<svg width="32" height="32" viewBox="0 0 32 32" fill="none" xmlns="http://www.w3.org/2000/svg">
<path d="M2.97554 28.6495C3.22667 28.9238 3.61617 29.0238 3.96843 28.9042L7.98192 27.5414L9.65982 31.4336C9.80745 31.7761 10.144 31.9985 10.5169 32H10.5208C10.8921 32 11.2287 31.7807 11.3786 31.4407L14.5063 24.3462C14.996 24.4063 15.4945 24.4379 16.0002 24.4379C16.506 24.4379 17.0044 24.4064 17.4942 24.3462L20.6218 31.4407C20.7717 31.7807 21.1083 32.0001 21.4797 32H21.4836C21.8565 31.9985 22.1931 31.7761 22.3407 31.4336L24.0186 27.5414L28.0321 28.9042C28.3841 29.0238 28.7739 28.9239 29.025 28.6495C29.2762 28.3752 29.3415 27.9783 29.1913 27.638L25.6709 19.6584C27.2485 17.6038 28.1879 15.0348 28.1879 12.2502C28.1879 5.49539 22.7206 0 16.0003 0C9.28 0 3.81261 5.49539 3.81261 12.2502C3.81261 15.0348 4.75206 17.6039 6.32971 19.6584L2.80929 27.638C2.65916 27.9783 2.72435 28.3752 2.97554 28.6495ZM26.6145 26.4427L23.8018 25.4876C23.3389 25.3303 22.833 25.5554 22.6394 26.0042L21.4701 28.7166L19.3742 23.9624C21.2329 23.4261 22.9101 22.4582 24.2905 21.175L26.6145 26.4427ZM5.68764 12.2502C5.68764 6.52928 10.3139 1.87503 16.0003 1.87503C21.6867 1.87503 26.3129 6.52928 26.3129 12.2502C26.3129 17.9366 21.6867 22.5628 16.0003 22.5628C10.3139 22.5628 5.68764 17.9366 5.68764 12.2502ZM7.70998 21.175C9.0905 22.4582 10.7676 23.4262 12.6264 23.9624L10.5304 28.7166L9.36113 26.0042C9.16756 25.5552 8.66162 25.3303 8.1988 25.4875L5.38607 26.4426L7.70998 21.175Z" fill="#704FE6"/>
<path d="M12.318 13.4466L11.7699 16.6425C11.7095 16.9942 11.8541 17.3497 12.1428 17.5594C12.431 17.7688 12.8137 17.7971 13.1301 17.6308L16.0002 16.1219L18.8703 17.6308C19.1862 17.7968 19.569 17.7692 19.8576 17.5594C20.1463 17.3497 20.2909 16.9942 20.2306 16.6425L19.6825 13.4466L22.0044 11.1833C22.2599 10.9342 22.3519 10.5616 22.2416 10.2222C22.1312 9.88287 21.8379 9.63549 21.4848 9.58418L18.2759 9.11792L16.8409 6.21025C16.683 5.89025 16.357 5.68762 16.0002 5.68762C15.6434 5.68762 15.3175 5.89019 15.1595 6.21025L13.7245 9.11792L10.5156 9.58418C10.1625 9.63549 9.86907 9.88287 9.75882 10.2222C9.64851 10.5616 9.74051 10.9342 9.99601 11.1833L12.318 13.4466ZM14.4819 10.9025C14.7873 10.8581 15.0512 10.6664 15.1878 10.3896L16.0002 8.74341L16.8127 10.3896C16.9492 10.6663 17.2132 10.8581 17.5186 10.9025L19.3353 11.1665L18.0207 12.4479C17.7997 12.6633 17.6989 12.9736 17.7511 13.2777L18.0614 15.0871L16.4365 14.2329C16.1634 14.0893 15.8371 14.0892 15.564 14.2329L13.939 15.0871L14.2493 13.2777C14.3014 12.9736 14.2006 12.6633 13.9797 12.4479L12.665 11.1665L14.4819 10.9025Z" fill="#704FE6"/>
</svg>
