<svg width="40" height="41" viewBox="0 0 40 41" fill="none" xmlns="http://www.w3.org/2000/svg">
<g clip-path="url(#clip0_64_1064)">
<path fill-rule="evenodd" clip-rule="evenodd" d="M27.8459 29.7491L31.1125 33.0166L30.6625 33.4691C30.3375 33.7946 30.3375 34.3221 30.6625 34.6475C30.6625 34.6475 34.2417 38.2262 36.0625 40.0496C36.4959 40.4821 37.0833 40.725 37.6917 40.725C38.3041 40.725 38.8916 40.4808 39.325 40.0487C39.7583 39.6162 40 39.03 40 38.4183C40 37.8066 39.7583 37.2204 39.325 36.7879C37.5 34.9646 33.9208 31.3858 33.9208 31.3858C33.5958 31.0604 33.0709 31.0604 32.7459 31.3858L32.2917 31.8383L29.025 28.5704C31.7 25.6125 33.3333 21.6912 33.3333 17.3916C33.3333 8.19289 25.8667 0.724976 16.6667 0.724976C7.46667 0.724976 0 8.19289 0 17.3916C0 26.5904 7.46667 34.0583 16.6667 34.0583C20.9667 34.0583 24.8875 32.4266 27.8459 29.7491ZM38.1459 38.8704C38.025 38.9904 37.8625 39.0583 37.6917 39.0583C37.525 39.0583 37.3624 38.9908 37.2416 38.8712L32.4292 34.0583L33.3333 33.1533L38.1459 37.9662C38.2667 38.0862 38.3333 38.2487 38.3333 38.4183C38.3333 38.5879 38.2667 38.7504 38.1459 38.8704ZM16.6667 2.39164C24.9458 2.39164 31.6667 9.11289 31.6667 17.3916C31.6667 25.6704 24.9458 32.3916 16.6667 32.3916C8.3875 32.3916 1.66667 25.6704 1.66667 17.3916C1.66667 9.11289 8.3875 2.39164 16.6667 2.39164ZM12.4625 18.3525C12.3416 18.0254 12.0292 17.8083 11.6792 17.8083C11.3333 17.8083 11.0208 18.0254 10.9 18.3525L9.90835 21.0346L7.22504 22.0266C6.89587 22.1479 6.67918 22.4596 6.67918 22.8083C6.67918 23.1571 6.89587 23.4687 7.22504 23.59L9.90835 24.5821L10.9 27.2641C11.0208 27.5912 11.3333 27.8083 11.6792 27.8083C12.0292 27.8083 12.3416 27.5912 12.4625 27.2641L13.4542 24.5821L16.1375 23.59C16.4625 23.4687 16.6792 23.1571 16.6792 22.8083C16.6792 22.4596 16.4625 22.1479 16.1375 22.0266L13.4542 21.0346L12.4625 18.3525ZM11.6792 21.0429L12.025 21.9721C12.1084 22.2004 12.2875 22.38 12.5167 22.4646L13.4458 22.8083L12.5167 23.1521C12.2875 23.2366 12.1084 23.4162 12.025 23.6446L11.6792 24.5737L11.3375 23.6446C11.2542 23.4162 11.0708 23.2366 10.8458 23.1521L9.91669 22.8083L10.8458 22.4646C11.0708 22.38 11.2542 22.2004 11.3375 21.9721L11.6792 21.0429ZM19.95 7.51914C19.8291 7.19206 19.5167 6.97498 19.1667 6.97498C18.8167 6.97498 18.5042 7.19206 18.3834 7.51914L16.3792 12.9383L10.9625 14.9433C10.6334 15.0646 10.4167 15.3762 10.4167 15.725C10.4167 16.0737 10.6334 16.3854 10.9625 16.5066L16.3792 18.5116L18.3834 23.9308C18.5042 24.2579 18.8167 24.475 19.1667 24.475C19.5167 24.475 19.8291 24.2579 19.95 23.9308L21.9541 18.5116L27.3708 16.5066C27.7 16.3854 27.9167 16.0737 27.9167 15.725C27.9167 15.3762 27.7 15.0646 27.3708 14.9433L21.9541 12.9383L19.95 7.51914ZM19.1667 10.2096L20.525 13.8758C20.6083 14.1041 20.7875 14.2837 21.0166 14.3683L24.6833 15.725L21.0166 17.0816C20.7875 17.1662 20.6083 17.3458 20.525 17.5741L19.1667 21.2404L17.8083 17.5741C17.725 17.3458 17.5459 17.1662 17.3167 17.0816L13.65 15.725L17.3167 14.3683C17.5459 14.2837 17.725 14.1041 17.8083 13.8758L19.1667 10.2096ZM10.8333 9.89164H10C9.54167 9.89164 9.16667 10.265 9.16667 10.725C9.16667 11.185 9.54167 11.5583 10 11.5583H10.8333V12.3916C10.8333 12.8516 11.2083 13.225 11.6667 13.225C12.125 13.225 12.5 12.8516 12.5 12.3916V11.5583H13.3333C13.7917 11.5583 14.1667 11.185 14.1667 10.725C14.1667 10.265 13.7917 9.89164 13.3333 9.89164H12.5V9.05831C12.5 8.59831 12.125 8.22498 11.6667 8.22498C11.2083 8.22498 10.8333 8.59831 10.8333 9.05831V9.89164Z" fill="#075E54"/>
</g>
<defs>
<clipPath id="clip0_64_1064">
<rect width="40" height="40" fill="white" transform="translate(0 0.724976)"/>
</clipPath>
</defs>
</svg>
