<svg width="116" height="23" viewBox="0 0 116 23" fill="none" xmlns="http://www.w3.org/2000/svg">
<path d="M9.92578 20.9727C10.8281 20.763 11.5846 20.2207 12.1953 19.3457C12.806 18.4707 13.1113 17.4499 13.1113 16.2832C13.1113 15.1257 12.806 14.1094 12.1953 13.2344C11.5846 12.3594 10.8281 11.8125 9.92578 11.5938C9.6888 11.5391 9.44271 11.5117 9.1875 11.5117H3.67773V21.0547C4.36133 21.0547 5.41406 21.082 6.83594 21.1367C8.25781 21.1823 9.28776 21.1276 9.92578 20.9727ZM11.0195 22.0391H0V0H9.69336C10.7598 0.0455729 11.7441 0.369141 12.6465 0.970703C13.4121 1.49023 14.0273 2.16927 14.4922 3.00781C14.957 3.84635 15.1895 4.75781 15.1895 5.74219C15.1895 6.79948 14.9297 7.76562 14.4102 8.64062C13.8997 9.50651 13.2253 10.1901 12.3867 10.6914C13.6445 10.9922 14.6882 11.6621 15.5176 12.7012C16.3561 13.7402 16.7754 14.9342 16.7754 16.2832C16.7754 18.3431 15.9277 19.9336 14.2324 21.0547C13.2754 21.7109 12.2044 22.0391 11.0195 22.0391ZM7.58789 10.5273C7.86133 10.5273 8.11654 10.4954 8.35352 10.4316C9.25586 10.222 10.0078 9.67969 10.6094 8.80469C11.2109 7.92969 11.5117 6.90885 11.5117 5.74219C11.5117 4.58464 11.2064 3.56836 10.5957 2.69336C9.98503 1.81836 9.22852 1.27148 8.32617 1.05273C7.82487 0.943359 7.05924 0.902344 6.0293 0.929688C4.99935 0.957031 4.21549 0.970703 3.67773 0.970703V10.5273H7.58789Z" fill="#30303D"/>
<path d="M30.0223 0.970703H24.5126V10.5273H30.0223C30.2776 10.5273 30.5236 10.5 30.7606 10.4453C31.663 10.2357 32.4195 9.69336 33.0302 8.81836C33.6408 7.94336 33.9462 6.91797 33.9462 5.74219C33.9462 4.58464 33.6408 3.57292 33.0302 2.70703C32.4195 1.83203 31.663 1.28516 30.7606 1.06641C30.4872 1.0026 30.2411 0.970703 30.0223 0.970703ZM30.0223 11.5117H24.5126V22.0391H20.8348V0H31.8544C33.0302 0 34.1011 0.323568 35.0673 0.970703C36.7626 2.11914 37.6102 3.70964 37.6102 5.74219C37.6102 6.92708 37.2912 7.99349 36.6532 8.94141C36.0152 9.88021 35.1903 10.5729 34.1786 11.0195C35.1903 11.4661 36.0152 12.1634 36.6532 13.1113C37.2912 14.0501 37.6102 15.1074 37.6102 16.2832V22.0391H33.9462V16.2832C33.9462 15.1257 33.6408 14.1094 33.0302 13.2344C32.4195 12.3594 31.663 11.8125 30.7606 11.5938C30.5236 11.5391 30.2776 11.5117 30.0223 11.5117Z" fill="#30303D"/>
<path d="M50.0642 4.34766L46.947 11.0195L41.8201 22.0391H40.74L45.867 11.0195L49.531 3.18555L51.0076 0H52.0877L62.3689 22.0391H58.322L50.0642 4.34766Z" fill="#30303D"/>
<path d="M65.9225 22.0391V0H69.6002V22.0391H65.9225Z" fill="#30303D"/>
<path d="M73.9605 0H74.9448L91.7886 16.8438V0H92.773V22.0391H91.7886L74.9448 5.19531V22.0391H73.9605V0Z" fill="#30303D"/>
<path d="M95.9437 0H100.414L106.799 9.0918L114.428 0H115.713L107.373 9.92578V22.0391H103.709V11.0879L95.9437 0Z" fill="#30303D"/>
</svg>
