<svg width="32" height="32" viewBox="0 0 32 32" fill="none" xmlns="http://www.w3.org/2000/svg">
<path d="M31.9165 31.0843L25.9317 19.6651C25.8237 19.4591 25.6103 19.33 25.3777 19.3301C25.145 19.3301 24.9317 19.4591 24.8237 19.6652L23.0638 23.0248L16.6248 10.7383V6.6125H20.7872V9.10969C20.7872 9.45506 21.0672 9.73506 21.4126 9.73506H28.0047C28.2377 9.73506 28.4515 9.6055 28.5592 9.39881C28.6669 9.19212 28.6508 8.94269 28.5174 8.75163L26.8947 6.428L28.5173 4.10606C28.6508 3.915 28.667 3.6655 28.5592 3.45881C28.4515 3.25213 28.2377 3.1225 28.0047 3.1225H23.4005C23.3681 3.1225 23.3365 3.12575 23.3055 3.1305V0.625375C23.3055 0.28 23.0255 0 22.6801 0H15.9995C15.6541 0 15.3741 0.279937 15.3741 0.625375V10.7383L8.93653 23.0241L7.17697 19.6652C7.06903 19.4591 6.85566 19.3301 6.62303 19.3301C6.39047 19.3301 6.17703 19.4591 6.06903 19.6651L0.0841592 31.0843C-0.0174033 31.2782 -0.0103408 31.5111 0.102972 31.6983C0.216284 31.8856 0.419222 32 0.638097 32H31.3626C31.5815 32 31.7844 31.8856 31.8977 31.6983C32.011 31.5111 32.0181 31.2782 31.9165 31.0843ZM15.9995 12.2395L18.426 16.8696C17.8449 16.8796 17.2672 17.0896 16.8151 17.5006C16.3735 17.9007 15.6263 17.9005 15.1847 17.5012C14.7382 17.0953 14.1547 16.8884 13.5682 16.8797L15.9995 12.2395ZM23.3054 5.98719V4.36531C23.3365 4.37006 23.3681 4.37331 23.4005 4.37331H26.8047L25.6192 6.06975C25.4689 6.28481 25.4688 6.57088 25.6191 6.78606L26.8052 8.48444H22.038V6.6125H22.68C23.0254 6.6125 23.3054 6.33256 23.3054 5.98719ZM16.6248 1.25069H22.0546V5.36181H16.6248V1.25069ZM6.62285 21.3029L8.23041 24.3717L4.88866 30.7493H1.67191L6.62285 21.3029ZM6.30078 30.7493L12.7893 18.3661C13.2362 18.0274 13.9258 18.0474 14.3445 18.4279C14.8089 18.8479 15.4045 19.0578 15.9999 19.0578C16.5958 19.0578 17.1917 18.8474 17.6557 18.4268C18.0725 18.0479 18.7615 18.0277 19.2096 18.3649L25.6998 30.7493H6.30078ZM27.112 30.7493L23.77 24.3722L25.3778 21.3029L30.3288 30.7493H27.112Z" fill="#704FE6"/>
</svg>
