<svg width="32" height="32" viewBox="0 0 32 32" fill="none" xmlns="http://www.w3.org/2000/svg">
<g clip-path="url(#clip0_64_949)">
<path d="M3.69016 24.9586C2.62088 24.9586 1.57623 24.6858 0.629477 24.1541C0.142359 23.9033 -0.0463102 23.2757 0.244693 22.8035C1.21156 21.2585 1.5607 19.3699 1.11802 17.5938C0.659179 15.7525 -0.004727 14.2017 2.53718e-05 12.2525C0.0165003 5.41371 5.70865 -0.130399 12.5404 0.00227145C19.1391 0.135179 24.5773 5.68214 24.5774 12.2826C24.5775 20.9028 15.5434 26.9549 7.56786 23.6261C6.46855 24.489 5.0868 24.9586 3.69016 24.9586ZM2.39086 22.854C3.89325 23.3206 5.58295 22.9478 6.7415 21.8278C7.02696 21.5517 7.45396 21.4823 7.81213 21.6536C14.6403 24.9182 22.6764 19.8012 22.6764 12.2826C22.6764 6.67206 18.1122 2.01577 12.5022 1.90282C6.72075 1.78797 1.91491 6.47032 1.90097 12.257C1.89646 14.1085 2.61882 15.5881 3.01358 17.342C3.42949 19.1903 3.21041 21.1448 2.39086 22.854Z" fill="#704FE6"/>
<path d="M28.3091 32C26.9126 32 25.5307 31.5303 24.4316 30.6676C20.1901 32.4377 15.1448 31.6316 11.6671 28.6283C11.2698 28.2851 11.226 27.685 11.569 27.2876C11.9121 26.8904 12.5123 26.8463 12.9096 27.1896C15.994 29.8533 20.5112 30.4524 24.1873 28.695C24.5453 28.5236 24.9723 28.5932 25.2579 28.8692C26.4164 29.9892 28.1061 30.3622 29.6085 29.8953C28.6417 27.8788 28.5078 25.5686 29.257 23.4299C29.2637 23.4106 29.2711 23.3917 29.279 23.3728C29.8262 22.083 30.1019 20.7121 30.0985 19.2984C30.0925 16.8059 29.2633 14.5003 27.7006 12.6307C27.364 12.2278 27.4176 11.6285 27.8204 11.2918C28.223 10.9551 28.8226 11.0088 29.1592 11.4116C30.9838 13.5946 31.9925 16.3938 31.9994 19.2938C32.0035 20.9548 31.6812 22.5668 31.0416 24.0857C30.3698 26.0304 30.6788 28.1127 31.7546 29.8447C32.0458 30.3169 31.857 30.9446 31.3697 31.1956C30.4232 31.727 29.3783 31.9999 28.3091 32Z" fill="#704FE6"/>
<path d="M12.2881 13.8331C13.1188 13.8331 13.7921 13.1601 13.7921 12.33C13.7921 11.4998 13.1188 10.8268 12.2881 10.8268C11.4575 10.8268 10.7842 11.4998 10.7842 12.33C10.7842 13.1601 11.4575 13.8331 12.2881 13.8331Z" fill="#704FE6"/>
<path d="M6.74713 13.8331C7.57775 13.8331 8.2511 13.1601 8.2511 12.33C8.2511 11.4998 7.57775 10.8268 6.74713 10.8268C5.91651 10.8268 5.24316 11.4998 5.24316 12.33C5.24316 13.1601 5.91651 13.8331 6.74713 13.8331Z" fill="#704FE6"/>
<path d="M17.8292 13.8331C18.6598 13.8331 19.3331 13.1601 19.3331 12.33C19.3331 11.4998 18.6598 10.8268 17.8292 10.8268C16.9985 10.8268 16.3252 11.4998 16.3252 12.33C16.3252 13.1601 16.9985 13.8331 17.8292 13.8331Z" fill="#704FE6"/>
</g>
<defs>
<clipPath id="clip0_64_949">
<rect width="32" height="32" fill="white"/>
</clipPath>
</defs>
</svg>
