<svg width="40" height="41" viewBox="0 0 40 41" fill="none" xmlns="http://www.w3.org/2000/svg">
<path d="M21.2503 18.0163C21.2503 17.326 20.6907 16.7664 20.0003 16.7664C19.31 16.7664 18.7503 17.326 18.7503 18.0163H21.2503ZM18.7503 36.4875C18.7503 37.1778 19.31 37.7375 20.0003 37.7375C20.6907 37.7375 21.2503 37.1778 21.2503 36.4875H18.7503ZM16.0411 8.86818C15.4435 9.21386 15.2393 9.97852 15.585 10.5761C15.9307 11.1737 16.6953 11.3779 17.2928 11.0322L16.0411 8.86818ZM22.7078 11.0322C23.3053 11.3779 24.07 11.1737 24.4157 10.5761C24.7613 9.97852 24.5572 9.21386 23.9595 8.86818L22.7078 11.0322ZM12.6185 5.12423C12.0523 5.51918 11.9135 6.29836 12.3084 6.86458C12.7034 7.43079 13.4826 7.56964 14.0488 7.17469L12.6185 5.12423ZM25.9518 7.17469C26.5182 7.56964 27.2973 7.43079 27.6922 6.86458C28.0872 6.29836 27.9483 5.51918 27.3822 5.12423L25.9518 7.17469ZM18.7503 18.0163V36.4875H21.2503V18.0163H18.7503ZM9.18959 15.3154C12.0807 15.6331 15.8087 16.4786 18.3857 18.2341L19.7932 16.1681C16.707 14.0655 12.4871 13.1627 9.46261 12.8304L9.18959 15.3154ZM9.18959 35.228C12.0807 35.5455 15.8087 36.3911 18.3857 38.1466L19.7932 36.0805C16.707 33.978 12.4871 33.0751 9.46261 32.7428L9.18959 35.228ZM5.41699 16.5669V31.1693H7.91699V16.5669H5.41699ZM9.46261 32.7428C8.55181 32.6428 7.91699 31.9201 7.91699 31.1693H5.41699C5.41699 33.3511 7.17264 35.0063 9.18959 35.228L9.46261 32.7428ZM9.46261 12.8304C7.18073 12.5797 5.41699 14.437 5.41699 16.5669H7.91699C7.91699 15.7642 8.54371 15.2445 9.18959 15.3154L9.46261 12.8304ZM30.538 12.8304C27.5135 13.1627 23.2937 14.0655 20.2075 16.1681L21.615 18.2341C24.192 16.4786 27.92 15.6331 30.811 15.3154L30.538 12.8304ZM30.538 32.7428C27.5135 33.0751 23.2937 33.978 20.2075 36.0805L21.615 38.1466C24.192 36.3911 27.92 35.5455 30.811 35.228L30.538 32.7428ZM32.0837 16.5669V31.1693H34.5837V16.5669H32.0837ZM30.811 35.228C32.828 35.0063 34.5837 33.3511 34.5837 31.1693H32.0837C32.0837 31.9201 31.4488 32.6428 30.538 32.7428L30.811 35.228ZM30.811 15.3154C31.457 15.2445 32.0837 15.7642 32.0837 16.5669H34.5837C34.5837 14.437 32.82 12.5797 30.538 12.8304L30.811 15.3154ZM18.3857 38.1466C19.3545 38.8066 20.6462 38.8066 21.615 38.1466L20.2075 36.0805C20.0878 36.162 19.9128 36.162 19.7932 36.0805L18.3857 38.1466ZM18.3857 18.2341C19.3545 18.8941 20.6462 18.8941 21.615 18.2341L20.2075 16.1681C20.0878 16.2495 19.9128 16.2495 19.7932 16.1681L18.3857 18.2341ZM17.2928 11.0322C18.0883 10.5721 19.0117 10.3083 20.0003 10.3083V7.80831C18.5605 7.80831 17.2068 8.19386 16.0411 8.86818L17.2928 11.0322ZM20.0003 10.3083C20.989 10.3083 21.9123 10.5721 22.7078 11.0322L23.9595 8.86818C22.7938 8.19386 21.4402 7.80831 20.0003 7.80831V10.3083ZM14.0488 7.17469C15.7355 5.99814 17.7855 5.30831 20.0003 5.30831V2.80831C17.2577 2.80831 14.7112 3.66453 12.6185 5.12423L14.0488 7.17469ZM20.0003 5.30831C22.2152 5.30831 24.2652 5.99814 25.9518 7.17469L27.3822 5.12423C25.2895 3.66453 22.743 2.80831 20.0003 2.80831V5.30831Z" fill="#075E54"/>
</svg>
