<svg width="14" height="14" viewBox="0 0 14 14" fill="none" xmlns="http://www.w3.org/2000/svg">
<path fill-rule="evenodd" clip-rule="evenodd" d="M0.729492 3.50001C0.729492 2.61406 1.4477 1.89584 2.33366 1.89584H11.667C12.553 1.89584 13.2712 2.61406 13.2712 3.50001V9.33334C13.2712 10.2193 12.553 10.9375 11.667 10.9375H8.29153L8.72903 11.8125H9.91699C10.1586 11.8125 10.3545 12.0084 10.3545 12.25C10.3545 12.4916 10.1586 12.6875 9.91699 12.6875H4.08366C3.84204 12.6875 3.64616 12.4916 3.64616 12.25C3.64616 12.0084 3.84204 11.8125 4.08366 11.8125H5.2716L5.7091 10.9375H2.33366C1.4477 10.9375 0.729492 10.2193 0.729492 9.33334V3.50001ZM11.667 10.0625H2.33366C1.93095 10.0625 1.60449 9.73608 1.60449 9.33334V3.50001C1.60449 3.0973 1.93095 2.77084 2.33366 2.77084H11.667C12.0697 2.77084 12.3962 3.0973 12.3962 3.50001V9.33334C12.3962 9.73608 12.0697 10.0625 11.667 10.0625Z" fill="#EC655A"/>
</svg>
