<svg width="57" height="60" viewBox="0 0 57 60" fill="none" xmlns="http://www.w3.org/2000/svg">
<path d="M15.9333 23.9736C14.0025 23.4257 13.8595 24.7417 13.4364 24.0317C12.8993 23.1206 11.3666 22.675 10.5252 23.219C9.16662 24.0853 9.06826 27.3902 10.391 30.0531C10.5792 30.4304 10.8648 31.0354 11.0216 31.3745C11.8652 33.1812 14.0383 31.902 16.5217 28.0987C17.9118 25.9758 17.7149 24.4647 15.9333 23.9736ZM12.4688 30.2495L11.9298 30.7244C11.1553 27.2778 10.6637 25.4704 11.3172 24.4014C11.8458 23.5312 12.1257 23.7627 12.2961 25.2572C12.3934 26.1323 12.5301 26.5328 12.7702 26.7392C13.8502 27.6402 13.9446 25.8127 15.263 25.0691C15.6737 24.8278 15.8241 25.0888 15.7589 25.8988C15.6637 26.7269 14.0778 28.8377 12.4688 30.2495Z" fill="#B1B4FF"/>
<path d="M44.5228 32.0501C43.8261 31.8341 43.7018 31.7375 43.5583 31.4067C43.3734 30.9945 42.5283 30.4263 41.8995 30.3084C40.0262 29.9632 37.5155 32.7504 36.7217 36.0435C36.1192 38.532 37.1177 38.8269 41.1637 37.3933C46.2167 35.5938 47.8003 33.0747 44.5228 32.0501ZM43.9002 34.5999C42.4799 35.5938 38.629 36.6877 38.8283 36.0176C39.1128 35.1235 40.3135 33.0666 40.9844 32.323C42.2597 30.9419 43.1295 30.9707 42.2459 32.3761C41.7958 33.0921 42.1978 33.6592 42.982 33.4122C43.1714 33.3463 43.6582 33.1899 44.0503 33.0664C45.2781 32.6729 45.1625 33.7101 43.9002 34.5999Z" fill="#B1B4FF"/>
<path d="M33.4197 22.9055C32.9582 22.8744 32.7559 22.7843 32.6419 22.5831C31.5347 20.6662 29.0079 21.3899 28.4456 23.7557C27.0621 29.6934 28.3963 30.5136 33.9812 27.1617C36.3971 25.7022 36.0487 23.0784 33.4197 22.9055ZM34.054 25.3391C33.6429 25.7282 32.7175 26.0528 31.6654 26.5198C29.764 27.3963 29.9349 27.4482 30.1327 26.0742C30.3037 24.8313 29.9824 23.8709 30.1298 23.3717C30.3458 22.675 31.4028 21.5822 31.6985 23.3775C31.8489 24.2859 32.3543 24.6591 32.8934 24.1841C34.261 23.009 34.6814 24.7531 34.054 25.3391Z" fill="#B1B4FF"/>
<path d="M44.0407 26.0495C51.3931 24.7707 55.2077 21.6746 51.6866 19.831L50.8097 19.3722L50.7949 18.66C50.7568 17.3966 49.9442 16.4233 48.6502 16.1277C46.3988 15.6188 44.5307 17.0898 42.6499 20.8465C40.2501 25.6643 40.533 26.6562 44.0407 26.0495ZM45.4742 19.3848C47.184 16.871 49.0237 16.1221 49.5142 17.7254C49.7759 18.5743 49.4747 19.4949 48.9083 19.6013C46.6345 20.0402 45.1596 21.5918 46.3264 22.3253C47.281 22.9254 48.946 22.3073 50.1 20.9425C51.1059 19.725 52.1548 20.4398 51.313 21.7789C50.8796 22.4684 50.1897 22.8302 47.817 23.6324C46.3615 24.1232 42.5841 25.0413 42.5629 24.8985C42.5171 24.6477 44.5842 20.7121 45.4742 19.3848Z" fill="#B1B4FF"/>
<path d="M37.7575 45.5186C37.3097 45.3481 37.2866 45.2966 37.4617 45.0182C37.9368 44.2624 37.0533 43.0782 35.8339 42.8111C33.2423 42.2548 29.1902 44.7575 27.9691 47.671C27.1355 49.6442 37.7053 50.2214 38.9389 48.2592C39.5474 47.2913 39.0129 45.9934 37.7575 45.5186ZM29.6288 47.8263C29.5894 47.6535 32.7505 44.9792 33.6867 44.4023C35.238 43.4353 36.39 43.4566 35.7649 44.451C35.6649 44.6101 35.2159 44.8828 34.7988 45.046C33.2584 45.6131 33.3149 45.6115 33.374 45.8707C33.4872 46.3673 34.7882 46.5932 35.9277 46.3107C37.24 45.9888 38.1548 46.5638 37.6297 47.3991C37.263 47.9825 29.7568 48.3877 29.6288 47.8263Z" fill="#B1B4FF"/>
<path d="M21.6585 36.082C22.3355 36.2116 25.9251 33.4737 26.7219 32.2357C27.6887 30.6977 26.8247 29.1001 24.9442 28.9723C24.6787 28.9533 24.4146 28.9909 24.3813 29.044C24.3396 29.1103 23.9169 28.8999 23.4479 28.5866C21.847 27.5432 20.9772 28.1617 20.4209 30.7533C19.8025 33.6202 20.2997 35.8012 21.6585 36.082ZM23.0375 29.975C23.0147 31.0706 23.9765 31.4533 24.5266 30.5782C24.9601 29.8888 25.8235 29.8395 25.5942 30.5279C25.365 31.2162 22.3516 33.8909 22.0334 33.6909C21.808 33.5492 22.204 30.6534 22.5462 29.962C22.9667 29.1165 23.058 29.1185 23.0375 29.975Z" fill="#B1B4FF"/>
<path d="M18.4267 42.782C18.1562 42.7415 17.7743 42.7603 17.6149 42.808C17.3739 42.897 17.1716 42.8068 16.6962 42.4155C14.4798 40.6151 12.4919 42.8062 13.2698 46.218C13.9739 49.3059 15.1115 49.7621 17.3592 47.8639C20.3889 45.3104 20.8561 43.1254 18.4267 42.782ZM15.3223 47.2492C15.1471 45.0857 14.887 42.9984 15.4192 42.5931C15.8284 42.2953 16.1037 43.0049 15.9419 43.9391C15.7816 44.9297 16.9006 45.5037 17.2946 44.6415C17.9024 43.3217 19.0449 43.1521 18.502 44.4572C18.0977 45.4239 15.5436 47.0739 15.3223 47.2492Z" fill="#B1B4FF"/>
<path d="M30.7257 12.0368C29.6684 11.9826 29.6817 11.9908 29.8196 11.3006C30.0364 10.3085 29.1822 9.40156 27.8695 9.2238C25.4234 8.90695 23.5537 12.2636 23.6845 16.8224C23.7121 17.6907 22.66 19.4525 26.1532 18.6333C28.0618 18.1868 31.0721 17.3415 32.0127 16.934C35.1222 15.5776 34.2413 12.212 30.7257 12.0368ZM32.458 14.9016C31.7635 15.7414 26.0214 17.6071 24.9282 17.3453C24.6395 17.2748 25.6891 13.31 26.3552 11.8974C27.31 9.90788 28.9632 9.33788 28.5168 11.1661C28.4028 11.6123 28.1621 12.201 27.9788 12.4927C27.3571 13.4522 28.2602 14.0754 29.3111 13.4042C31.3315 12.103 33.7836 13.2931 32.458 14.9016Z" fill="#B1B4FF"/>
</svg>
