<svg width="14" height="10" viewBox="0 0 14 10" fill="none" xmlns="http://www.w3.org/2000/svg">
<path fill-rule="evenodd" clip-rule="evenodd" d="M0.81807 8.59352C0.867129 9.28035 1.43865 9.8125 2.12723 9.8125H11.8728C12.5614 9.8125 13.1329 9.28035 13.1819 8.59352L13.5614 3.28117C13.574 3.1051 13.4795 2.93872 13.3219 2.85929C13.1642 2.77986 12.9743 2.80294 12.8403 2.91783L10.1761 5.20142L7.37792 0.404566C7.2995 0.270144 7.1556 0.1875 7.00001 0.1875C6.84441 0.1875 6.70052 0.270144 6.62209 0.404566L3.82393 5.20142L1.15973 2.91783C1.0257 2.80294 0.835778 2.77986 0.67814 2.85929C0.520504 2.93872 0.426041 3.1051 0.438617 3.28117L0.81807 8.59352ZM2.12723 8.9375C1.8977 8.9375 1.7072 8.76012 1.69085 8.53117L1.38607 4.26428L3.65278 6.20717C3.75133 6.29163 3.88227 6.32799 4.01024 6.30642C4.13823 6.28483 4.25001 6.20754 4.31542 6.09543L7.00001 1.49328L9.68459 6.09543C9.75 6.20754 9.86178 6.28483 9.98977 6.30642C10.1177 6.32799 10.2487 6.29163 10.3472 6.20717L12.6139 4.26428L12.3092 8.53117C12.2928 8.76012 12.1023 8.9375 11.8728 8.9375H2.12723Z" fill="#075E54"/>
</svg>
