<svg width="40" height="40" viewBox="0 0 40 40" fill="none" xmlns="http://www.w3.org/2000/svg">
<path d="M22.5003 33.3334H10.8337C10.1706 33.3334 9.53473 33.07 9.06589 32.6011C8.59705 32.1323 8.33366 31.4964 8.33366 30.8334V15H10.8337C11.9387 15 12.9985 14.561 13.7799 13.7796C14.5613 12.9982 15.0003 11.9384 15.0003 10.8334V8.33335H25.8337C26.4967 8.33335 27.1326 8.59675 27.6014 9.06559C28.0703 9.53443 28.3337 10.1703 28.3337 10.8334V17.5C28.3337 17.721 28.4215 17.933 28.5777 18.0893C28.734 18.2456 28.946 18.3334 29.167 18.3334C29.388 18.3334 29.6 18.2456 29.7563 18.0893C29.9125 17.933 30.0003 17.721 30.0003 17.5V10.8334C30.0003 9.72829 29.5613 8.66848 28.7799 7.88708C27.9985 7.10567 26.9387 6.66669 25.8337 6.66669H14.167C14.0574 6.66671 13.9488 6.68836 13.8476 6.7304C13.7463 6.77245 13.6544 6.83405 13.577 6.91169L6.91033 13.5784C6.75454 13.7345 6.66704 13.9461 6.66699 14.1667V30.8334C6.66699 31.9384 7.10598 32.9982 7.88738 33.7796C8.66878 34.561 9.72859 35 10.8337 35H22.5003C22.7213 35 22.9333 34.9122 23.0896 34.7559C23.2459 34.5997 23.3337 34.3877 23.3337 34.1667C23.3337 33.9457 23.2459 33.7337 23.0896 33.5774C22.9333 33.4212 22.7213 33.3334 22.5003 33.3334ZM10.8337 13.3334H9.51199L13.3337 9.51169V10.8334C13.3337 11.4964 13.0703 12.1323 12.6014 12.6011C12.1326 13.07 11.4967 13.3334 10.8337 13.3334ZM25.8337 11.6667C25.8337 11.8877 25.7459 12.0997 25.5896 12.2559C25.4333 12.4122 25.2213 12.5 25.0003 12.5H21.667C21.446 12.5 21.234 12.4122 21.0777 12.2559C20.9215 12.0997 20.8337 11.8877 20.8337 11.6667C20.8337 11.4457 20.9215 11.2337 21.0777 11.0774C21.234 10.9212 21.446 10.8334 21.667 10.8334H25.0003C25.2213 10.8334 25.4333 10.9212 25.5896 11.0774C25.7459 11.2337 25.8337 11.4457 25.8337 11.6667ZM25.0003 15.8334H20.0003C19.7793 15.8334 19.5674 15.7456 19.4111 15.5893C19.2548 15.433 19.167 15.221 19.167 15C19.167 14.779 19.2548 14.567 19.4111 14.4108C19.5674 14.2545 19.7793 14.1667 20.0003 14.1667H25.0003C25.2213 14.1667 25.4333 14.2545 25.5896 14.4108C25.7459 14.567 25.8337 14.779 25.8337 15C25.8337 15.221 25.7459 15.433 25.5896 15.5893C25.4333 15.7456 25.2213 15.8334 25.0003 15.8334ZM24.167 22.5H11.667C11.446 22.5 11.234 22.4122 11.0777 22.2559C10.9215 22.0997 10.8337 21.8877 10.8337 21.6667C10.8337 21.4457 10.9215 21.2337 11.0777 21.0774C11.234 20.9212 11.446 20.8334 11.667 20.8334H24.167C24.388 20.8334 24.6 20.9212 24.7562 21.0774C24.9125 21.2337 25.0003 21.4457 25.0003 21.6667C25.0003 21.8877 24.9125 22.0997 24.7562 22.2559C24.6 22.4122 24.388 22.5 24.167 22.5ZM21.667 25.8334H11.667C11.446 25.8334 11.234 25.7456 11.0777 25.5893C10.9215 25.433 10.8337 25.221 10.8337 25C10.8337 24.779 10.9215 24.567 11.0777 24.4108C11.234 24.2545 11.446 24.1667 11.667 24.1667H21.667C21.888 24.1667 22.1 24.2545 22.2562 24.4108C22.4125 24.567 22.5003 24.779 22.5003 25C22.5003 25.221 22.4125 25.433 22.2562 25.5893C22.1 25.7456 21.888 25.8334 21.667 25.8334ZM34.757 23.5767C34.6796 23.4991 34.5876 23.4375 34.4864 23.3955C34.3851 23.3535 34.2766 23.3319 34.167 23.3319C34.0574 23.3319 33.9488 23.3535 33.8476 23.3955C33.7464 23.4375 33.6544 23.4991 33.577 23.5767L32.6437 24.51C31.8683 23.9298 30.9592 23.5544 30.0003 23.4184V22.5H30.8337C31.0547 22.5 31.2666 22.4122 31.4229 22.2559C31.5792 22.0997 31.667 21.8877 31.667 21.6667C31.667 21.4457 31.5792 21.2337 31.4229 21.0774C31.2666 20.9212 31.0547 20.8334 30.8337 20.8334H27.5003C27.2793 20.8334 27.0674 20.9212 26.9111 21.0774C26.7548 21.2337 26.667 21.4457 26.667 21.6667C26.667 21.8877 26.7548 22.0997 26.9111 22.2559C27.0674 22.4122 27.2793 22.5 27.5003 22.5H28.3337V23.4184C27.0629 23.5975 25.8863 24.1896 24.9852 25.1033C24.084 26.017 23.5083 27.2017 23.3468 28.4748C23.1853 29.7479 23.4469 31.0389 24.0913 32.1487C24.7358 33.2585 25.7272 34.1256 26.913 34.6164C28.0988 35.1072 29.413 35.1944 30.6533 34.8647C31.8936 34.535 32.991 33.8066 33.7765 32.7917C34.562 31.7769 34.992 30.5319 35.0002 29.2486C35.0084 27.9653 34.5944 26.7149 33.822 25.69L34.757 24.7567C34.8346 24.6793 34.8962 24.5873 34.9382 24.4861C34.9802 24.3848 35.0018 24.2763 35.0018 24.1667C35.0018 24.0571 34.9802 23.9485 34.9382 23.8473C34.8962 23.7461 34.8346 23.6541 34.757 23.5767ZM29.167 33.3334C28.3429 33.3334 27.5373 33.089 26.8521 32.6311C26.1669 32.1733 25.6329 31.5226 25.3175 30.7612C25.0021 29.9998 24.9196 29.1621 25.0804 28.3538C25.2412 27.5456 25.638 26.8031 26.2207 26.2204C26.8034 25.6377 27.5459 25.2409 28.3541 25.0801C29.1624 24.9193 30.0001 25.0018 30.7615 25.3172C31.5229 25.6326 32.1736 26.1666 32.6315 26.8518C33.0893 27.537 33.3337 28.3426 33.3337 29.1667C33.3337 30.2718 32.8947 31.3316 32.1133 32.113C31.3319 32.8944 30.2721 33.3334 29.167 33.3334ZM30.0003 26.6667V29.1667C30.0003 29.3877 29.9125 29.5997 29.7563 29.7559C29.6 29.9122 29.388 30 29.167 30C28.946 30 28.734 29.9122 28.5777 29.7559C28.4215 29.5997 28.3337 29.3877 28.3337 29.1667V26.6667C28.3337 26.4457 28.4215 26.2337 28.5777 26.0774C28.734 25.9212 28.946 25.8334 29.167 25.8334C29.388 25.8334 29.6 25.9212 29.7563 26.0774C29.9125 26.2337 30.0003 26.4457 30.0003 26.6667ZM20.0003 27.5C20.2213 27.5 20.4333 27.5878 20.5896 27.7441C20.7459 27.9004 20.8337 28.1123 20.8337 28.3334C20.8337 28.5544 20.7459 28.7663 20.5896 28.9226C20.4333 29.0789 20.2213 29.1667 20.0003 29.1667H11.667C11.446 29.1667 11.234 29.0789 11.0777 28.9226C10.9215 28.7663 10.8337 28.5544 10.8337 28.3334C10.8337 28.1123 10.9215 27.9004 11.0777 27.7441C11.234 27.5878 11.446 27.5 11.667 27.5H20.0003Z" fill="#704FE6"/>
</svg>
