<svg width="1440" height="482" viewBox="0 0 1440 482" fill="none" xmlns="http://www.w3.org/2000/svg">
<path d="M477.849 0.725098H0V481.557H477.064C485.551 481.557 493.69 478.186 499.692 472.185L536.37 435.507C542.371 429.506 550.51 426.134 558.997 426.134H884.998C893.485 426.134 901.624 429.506 907.625 435.507L939.809 467.691C945.81 473.692 953.95 477.064 962.437 477.064H1440V0.725098H962.437C953.95 0.725098 945.81 4.09652 939.809 10.0977L907.625 42.2818C901.624 48.2829 893.485 51.6544 884.998 51.6544H558.212C550.192 51.6544 542.465 48.6431 536.56 43.2169L499.501 9.16261C493.596 3.73633 485.869 0.725098 477.849 0.725098Z" fill="url(#paint0_linear_64_1167)"/>
<defs>
<linearGradient id="paint0_linear_64_1167" x1="0" y1="0.725098" x2="1440" y2="481.725" gradientUnits="userSpaceOnUse">
<stop stop-color="#704FE6"/>
<stop offset="1" stop-color="#34B7F1"/>
</linearGradient>
</defs>
</svg>
