<svg width="14" height="14" viewBox="0 0 14 14" fill="none" xmlns="http://www.w3.org/2000/svg">
<path fill-rule="evenodd" clip-rule="evenodd" d="M5.88269 2.96274C5.49419 3.96849 5.24144 5.39649 5.24144 7.00149C5.24144 8.60649 5.49419 10.0345 5.88344 11.0402C6.07844 11.545 6.29744 11.9147 6.51194 12.1487C6.72644 12.3827 6.89144 12.4375 7.00019 12.4375C7.10894 12.4375 7.27469 12.3827 7.48919 12.1487C7.70294 11.9147 7.92194 11.545 8.11694 11.0402C8.50694 10.0345 8.75894 8.60649 8.75894 7.00149C8.75894 5.39649 8.50619 3.96849 8.11694 2.96274C7.92194 2.45799 7.70294 2.08824 7.48844 1.85424C7.27394 1.62024 7.10894 1.56549 7.00019 1.56549C6.89144 1.56549 6.72569 1.62024 6.51194 1.85424C6.29819 2.08824 6.07769 2.45799 5.88269 2.96274ZM5.68244 1.09524C6.02369 0.720991 6.46844 0.440491 7.00094 0.440491C7.53344 0.440491 7.97819 0.720991 8.31944 1.09449C8.66069 1.46724 8.94194 1.97574 9.16694 2.55699C9.61769 3.72174 9.88469 5.29374 9.88469 7.00149C9.88469 8.70924 9.61769 10.2812 9.16694 11.446C8.94194 12.0265 8.66069 12.5357 8.31944 12.9085C7.97819 13.2812 7.53344 13.5625 7.00094 13.5625C6.46844 13.5625 6.02369 13.2812 5.68244 12.9085C5.34119 12.5357 5.05994 12.0272 4.83494 11.446C4.38419 10.2812 4.11719 8.70924 4.11719 7.00149C4.11719 5.29374 4.38419 3.72174 4.83494 2.55699C5.05994 1.97574 5.34119 1.46799 5.68244 1.09524Z" fill="black"/>
<path fill-rule="evenodd" clip-rule="evenodd" d="M7 1.55951C6.28594 1.55951 5.57887 1.70015 4.91916 1.97341C4.25945 2.24667 3.66003 2.6472 3.15511 3.15212C2.65019 3.65703 2.24966 4.25646 1.9764 4.91617C1.70314 5.57588 1.5625 6.28295 1.5625 6.99701C1.5625 7.71107 1.70314 8.41814 1.9764 9.07785C2.24966 9.73756 2.65019 10.337 3.15511 10.8419C3.66003 11.3468 4.25945 11.7473 4.91916 12.0206C5.57887 12.2939 6.28594 12.4345 7 12.4345C8.44211 12.4345 9.82516 11.8616 10.8449 10.8419C11.8646 9.82217 12.4375 8.43912 12.4375 6.99701C12.4375 5.55489 11.8646 4.17185 10.8449 3.15212C9.82516 2.13239 8.44211 1.55951 7 1.55951ZM0.4375 6.99701C0.4375 5.25653 1.1289 3.58733 2.35961 2.35662C3.59032 1.12591 5.25952 0.434509 7 0.434509C8.74048 0.434509 10.4097 1.12591 11.6404 2.35662C12.8711 3.58733 13.5625 5.25653 13.5625 6.99701C13.5625 8.73749 12.8711 10.4067 11.6404 11.6374C10.4097 12.8681 8.74048 13.5595 7 13.5595C5.25952 13.5595 3.59032 12.8681 2.35961 11.6374C1.1289 10.4067 0.4375 8.73749 0.4375 6.99701Z" fill="black"/>
<path fill-rule="evenodd" clip-rule="evenodd" d="M0.4375 6.99249C0.4375 6.84331 0.496763 6.70023 0.602252 6.59475C0.707742 6.48926 0.850816 6.42999 1 6.42999L13 6.43899C13.1492 6.43899 13.2923 6.49826 13.3977 6.60375C13.5032 6.70923 13.5625 6.85231 13.5625 7.00149C13.5625 7.15068 13.5032 7.29375 13.3977 7.39924C13.2923 7.50473 13.1492 7.56399 13 7.56399L1 7.55574C0.850816 7.55574 0.707742 7.49648 0.602252 7.39099C0.496763 7.2855 0.4375 7.14243 0.4375 6.99324" fill="black"/>
</svg>
