<svg width="40" height="41" viewBox="0 0 40 41" fill="none" xmlns="http://www.w3.org/2000/svg">
<path d="M17.039 16.4894C15.2031 16.4894 13.7031 17.9982 13.7031 19.8348V22.4449H7.85148C5.99985 22.4449 4.47656 23.9508 4.47656 25.8021V34.6927C4.47656 36.5469 5.99985 38.0676 7.85148 38.0676H32.1562C34.0078 38.0676 35.5234 36.5469 35.5234 34.6927V29.0855C35.5234 27.2342 34.0078 25.7165 32.1562 25.7165H26.2186L26.1718 19.8259C26.1483 17.9982 24.6561 16.4894 22.8282 16.4894H17.039ZM17.039 18.3673H22.8281C23.6563 18.3673 24.2811 19.005 24.2967 19.8436L24.4296 36.1926H15.5701V19.8348C15.5701 19.0051 16.2108 18.3673 17.039 18.3673ZM7.85148 24.3199H13.7031V36.1926H7.85148C7.0076 36.1926 6.35152 35.5371 6.35152 34.6927V25.8021C6.35152 24.9665 7.0076 24.3199 7.85148 24.3199ZM26.2343 27.5915H32.1562C33.0001 27.5915 33.6562 28.2499 33.6562 29.0855V34.6927C33.6562 35.5371 33.0001 36.1926 32.1562 36.1926H26.3046L26.2343 27.5915Z" fill="#075E54"/>
<path d="M19.8435 3.3765C19.6684 3.37745 19.4969 3.42748 19.3487 3.52089C19.2005 3.61431 19.0814 3.74738 19.005 3.90503L17.6645 6.66284L14.635 7.12346C14.4624 7.1498 14.3005 7.22383 14.1677 7.33722C14.0349 7.4506 13.9364 7.59883 13.8833 7.7652C13.8302 7.93156 13.8246 8.10946 13.8671 8.27883C13.9097 8.4482 13.9987 8.60232 14.1242 8.72381L16.3328 10.8527L15.8338 13.8762C15.8055 14.0486 15.8259 14.2253 15.8927 14.3867C15.9595 14.548 16.0701 14.6875 16.2119 14.7894C16.3537 14.8913 16.5211 14.9516 16.6953 14.9635C16.8696 14.9753 17.0436 14.9383 17.1979 14.8565L19.9056 13.4127L22.6279 14.824C22.7832 14.9046 22.9579 14.9402 23.1323 14.9267C23.3066 14.9132 23.4738 14.8512 23.6148 14.7477C23.7558 14.6442 23.865 14.5033 23.9301 14.3409C23.9952 14.1786 24.0136 14.0012 23.9832 13.829L23.4458 10.8084L25.6279 8.65295C25.7519 8.53007 25.8392 8.37499 25.8799 8.20518C25.9205 8.03537 25.913 7.85757 25.858 7.69183C25.8031 7.52609 25.7029 7.37897 25.5689 7.26707C25.4348 7.15518 25.2722 7.08294 25.0993 7.05849L22.061 6.63626L20.688 3.89322C20.6095 3.73688 20.4888 3.60563 20.3395 3.51432C20.1903 3.423 20.0185 3.37526 19.8435 3.3765ZM19.8613 6.43252L20.6053 7.91773C20.6735 8.05345 20.7736 8.17058 20.897 8.25905C21.0205 8.34751 21.1636 8.40466 21.314 8.42558L22.9586 8.65295L21.7776 9.81926C21.669 9.92603 21.588 10.0576 21.5417 10.2027C21.4954 10.3478 21.4852 10.502 21.5118 10.6519L21.8041 12.2847L20.3307 11.5229C20.1955 11.4529 20.0453 11.4168 19.893 11.4178C19.7407 11.4189 19.591 11.457 19.4567 11.5289L17.9922 12.3084L18.2639 10.6696C18.2884 10.5199 18.2762 10.3664 18.2284 10.2224C18.1806 10.0784 18.0985 9.94817 17.9893 9.84287L16.7934 8.69133L18.4351 8.4433C18.5854 8.42056 18.7278 8.36166 18.8502 8.27164C18.9727 8.18163 19.0714 8.06321 19.1379 7.92658L19.8613 6.43252Z" fill="#075E54"/>
</svg>
