<svg width="40" height="41" viewBox="0 0 40 41" fill="none" xmlns="http://www.w3.org/2000/svg">
<path d="M36.6462 27.0187V16.1987C36.6462 16.1975 36.6462 16.1962 36.6462 16.195C36.6462 15.2575 36.1175 14.4275 35.2663 14.0312L20.5538 7.16624C19.5738 6.70749 18.4475 6.70749 17.465 7.16624L2.75375 14.0312C1.9025 14.4275 1.375 15.2575 1.375 16.195C1.375 17.1337 1.9025 17.9637 2.75375 18.36L6.2175 19.9762V25.3112C6.2175 27.0637 7.16 28.6962 8.68 29.5712L11.505 31.2012C13.82 32.5337 16.415 33.2025 19.01 33.2025C21.6062 33.2025 24.2012 32.535 26.5162 31.2012L29.3425 29.5712C30.86 28.6962 31.8038 27.0625 31.8038 25.3112V19.9762L34.3962 18.7662V27.0187C33.275 27.2162 32.4175 28.1912 32.4175 29.37V32.2362C32.4175 33.555 33.49 34.6275 34.81 34.6275H36.2325C37.5513 34.6275 38.625 33.555 38.625 32.2362V29.37C38.625 28.1925 37.7687 27.2162 36.6462 27.0187ZM29.555 25.3125C29.555 26.2637 29.0425 27.1487 28.22 27.6237L25.3937 29.2525C21.4575 31.5212 16.5662 31.5225 12.6287 29.2537L9.80375 27.625C8.98 27.1487 8.4675 26.2637 8.4675 25.3125V21.0262L17.4662 25.225C17.9575 25.455 18.4837 25.5687 19.0112 25.5687C19.5375 25.5687 20.065 25.4537 20.555 25.225L29.5537 21.0262L29.555 25.3125ZM34.3175 16.3225L19.605 23.1875C19.2275 23.365 18.795 23.3637 18.4175 23.1875L3.705 16.3225C3.68125 16.3112 3.625 16.2837 3.625 16.195C3.625 16.1075 3.68125 16.08 3.705 16.0687L18.4175 9.20374C18.6062 9.11624 18.8087 9.07249 19.0112 9.07249C19.2137 9.07249 19.4163 9.11624 19.605 9.20374L34.3175 16.0687C34.3425 16.08 34.3975 16.1062 34.3975 16.195C34.3975 16.2837 34.3413 16.3112 34.3175 16.3225ZM36.375 32.2362C36.375 32.315 36.3112 32.3762 36.2325 32.3762H34.81C34.7313 32.3762 34.6675 32.3137 34.6675 32.2362V29.37C34.6675 29.2912 34.7313 29.2287 34.81 29.2287H36.2325C36.3112 29.2287 36.375 29.2925 36.375 29.37V32.2362Z" fill="#075E54"/>
</svg>
