<svg width="221" height="42" viewBox="0 0 221 42" fill="none" xmlns="http://www.w3.org/2000/svg">
<path d="M18.9572 39.9677C20.6806 39.5682 22.1254 38.5347 23.2917 36.8672C24.4581 35.1998 25.0412 33.2543 25.0412 31.031C25.0412 28.8251 24.4581 26.8883 23.2917 25.2208C22.1254 23.5534 20.6806 22.5112 18.9572 22.0943C18.5046 21.9901 18.0346 21.938 17.5471 21.938H7.02408V40.1241C8.32967 40.1241 10.3403 40.1762 13.0559 40.2804C15.7715 40.3672 17.7386 40.263 18.9572 39.9677ZM21.0461 42H0V0H18.5133C20.55 0.0868486 22.4301 0.703474 24.1534 1.84988C25.6157 2.83995 26.7907 4.134 27.6785 5.73201C28.5663 7.33003 29.0102 9.067 29.0102 10.9429C29.0102 12.9578 28.5141 14.799 27.5219 16.4665C26.547 18.1166 25.2588 19.4194 23.6573 20.3747C26.0596 20.9479 28.0528 22.2246 29.6369 24.2047C31.2384 26.1849 32.0392 28.4603 32.0392 31.031C32.0392 34.9566 30.4203 37.9876 27.1824 40.1241C25.3546 41.3747 23.3092 42 21.0461 42ZM14.4921 20.062C15.0143 20.062 15.5017 20.0012 15.9543 19.8797C17.6777 19.4802 19.1139 18.4467 20.2628 16.7792C21.4117 15.1117 21.9862 13.1663 21.9862 10.9429C21.9862 8.73697 21.403 6.80025 20.2367 5.13275C19.0703 3.46526 17.6255 2.42308 15.9021 2.0062C14.9447 1.79777 13.4824 1.7196 11.5153 1.77171C9.54822 1.82382 8.05114 1.84988 7.02408 1.84988V20.062H14.4921Z" fill="white"/>
<path d="M57.3395 1.84988H46.8164V20.062H57.3395C57.8269 20.062 58.2969 20.0099 58.7495 19.9057C60.4729 19.5062 61.9177 18.4727 63.0841 16.8052C64.2504 15.1377 64.8336 13.1836 64.8336 10.9429C64.8336 8.73697 64.2504 6.80893 63.0841 5.15881C61.9177 3.49132 60.4729 2.44913 58.7495 2.03226C58.2273 1.91067 57.7573 1.84988 57.3395 1.84988ZM57.3395 21.938H46.8164V42H39.7923V0H60.8385C63.0841 0 65.1295 0.616625 66.9747 1.84988C70.2126 4.03846 71.8315 7.06948 71.8315 10.9429C71.8315 13.201 71.2223 15.2333 70.0037 17.0397C68.7852 18.8288 67.2097 20.1489 65.2775 21C67.2097 21.8511 68.7852 23.1799 70.0037 24.9864C71.2223 26.7754 71.8315 28.7903 71.8315 31.031V42H64.8336V31.031C64.8336 28.8251 64.2504 26.8883 63.0841 25.2208C61.9177 23.5534 60.4729 22.5112 58.7495 22.0943C58.2969 21.9901 57.8269 21.938 57.3395 21.938Z" fill="white"/>
<path d="M95.6173 8.28536L89.6638 21L79.8719 42H77.8091L87.601 21L94.599 6.07072L97.419 0H99.4819L119.118 42H111.389L95.6173 8.28536Z" fill="white"/>
<path d="M125.905 42V0H132.929V42H125.905Z" fill="white"/>
<path d="M141.257 0H143.137L175.306 32.0993V0H177.186V42H175.306L143.137 9.90074V42H141.257V0Z" fill="white"/>
<path d="M183.242 0H191.781L203.975 17.3263L218.545 0H221L205.072 18.9156V42H198.074V21.1303L183.242 0Z" fill="white"/>
</svg>
