<svg width="14" height="14" viewBox="0 0 14 14" fill="none" xmlns="http://www.w3.org/2000/svg">
<path d="M7.875 4.375H6.125C5.89294 4.375 5.67038 4.46719 5.50628 4.63128C5.34219 4.79538 5.25 5.01794 5.25 5.25V11.8125C5.25 12.0446 5.34219 12.2671 5.50628 12.4312C5.67038 12.5953 5.89294 12.6875 6.125 12.6875H7.875C8.10706 12.6875 8.32962 12.5953 8.49372 12.4312C8.65781 12.2671 8.75 12.0446 8.75 11.8125V5.25C8.75 5.01794 8.65781 4.79538 8.49372 4.63128C8.32962 4.46719 8.10706 4.375 7.875 4.375ZM6.125 11.8125V5.25H7.875V11.8125H6.125ZM12.25 1.3125H10.5C10.2679 1.3125 10.0454 1.40469 9.88128 1.56878C9.71719 1.73288 9.625 1.95544 9.625 2.1875V11.8125C9.625 12.0446 9.71719 12.2671 9.88128 12.4312C10.0454 12.5953 10.2679 12.6875 10.5 12.6875H12.25C12.4821 12.6875 12.7046 12.5953 12.8687 12.4312C13.0328 12.2671 13.125 12.0446 13.125 11.8125V2.1875C13.125 1.95544 13.0328 1.73288 12.8687 1.56878C12.7046 1.40469 12.4821 1.3125 12.25 1.3125ZM10.5 11.8125V2.1875H12.25V11.8125H10.5ZM3.5 7.4375H1.75C1.51794 7.4375 1.29538 7.52969 1.13128 7.69378C0.967187 7.85788 0.875 8.08044 0.875 8.3125V11.8125C0.875 12.0446 0.967187 12.2671 1.13128 12.4312C1.29538 12.5953 1.51794 12.6875 1.75 12.6875H3.5C3.73206 12.6875 3.95462 12.5953 4.11872 12.4312C4.28281 12.2671 4.375 12.0446 4.375 11.8125V8.3125C4.375 8.08044 4.28281 7.85788 4.11872 7.69378C3.95462 7.52969 3.73206 7.4375 3.5 7.4375ZM1.75 11.8125V8.3125H3.5V11.8125H1.75Z" fill="#34B7F1"/>
</svg>
