<svg width="18" height="18" viewBox="0 0 18 18" fill="none" xmlns="http://www.w3.org/2000/svg">
<path d="M15.1876 1.125C15.3368 1.125 15.4799 1.18426 15.5854 1.28975C15.6909 1.39524 15.7501 1.53832 15.7501 1.6875V2.25H16.3126C16.4618 2.25 16.6049 2.30926 16.7104 2.41475C16.8159 2.52024 16.8751 2.66332 16.8751 2.8125C16.8751 2.96168 16.8159 3.10476 16.7104 3.21025C16.6049 3.31574 16.4618 3.375 16.3126 3.375H15.7501V3.9375C15.7501 4.08668 15.6909 4.22976 15.5854 4.33525C15.4799 4.44074 15.3368 4.5 15.1876 4.5C15.0385 4.5 14.8954 4.44074 14.7899 4.33525C14.6844 4.22976 14.6251 4.08668 14.6251 3.9375V3.375H14.0626C13.9135 3.375 13.7704 3.31574 13.6649 3.21025C13.5594 3.10476 13.5001 2.96168 13.5001 2.8125C13.5001 2.66332 13.5594 2.52024 13.6649 2.41475C13.7704 2.30926 13.9135 2.25 14.0626 2.25H14.6251V1.6875C14.6251 1.53832 14.6844 1.39524 14.7899 1.28975C14.8954 1.18426 15.0385 1.125 15.1876 1.125ZM3.93764 3.375C4.08682 3.375 4.2299 3.43426 4.33539 3.53975C4.44088 3.64524 4.50014 3.78832 4.50014 3.9375V4.5H5.06264C5.21182 4.5 5.3549 4.55926 5.46039 4.66475C5.56588 4.77024 5.62514 4.91332 5.62514 5.0625C5.62514 5.21168 5.56588 5.35476 5.46039 5.46025C5.3549 5.56574 5.21182 5.625 5.06264 5.625H4.50014V6.1875C4.50014 6.33668 4.44088 6.47976 4.33539 6.58525C4.2299 6.69074 4.08682 6.75 3.93764 6.75C3.78845 6.75 3.64538 6.69074 3.53989 6.58525C3.4344 6.47976 3.37514 6.33668 3.37514 6.1875V5.625H2.81264C2.66345 5.625 2.52038 5.56574 2.41489 5.46025C2.3094 5.35476 2.25014 5.21168 2.25014 5.0625C2.25014 4.91332 2.3094 4.77024 2.41489 4.66475C2.52038 4.55926 2.66345 4.5 2.81264 4.5H3.37514V3.9375C3.37514 3.78832 3.4344 3.64524 3.53989 3.53975C3.64538 3.43426 3.78845 3.375 3.93764 3.375ZM14.0626 13.5C14.2118 13.5 14.3549 13.4407 14.4604 13.3352C14.5659 13.2298 14.6251 13.0867 14.6251 12.9375C14.6251 12.7883 14.5659 12.6452 14.4604 12.5398C14.3549 12.4343 14.2118 12.375 14.0626 12.375H13.5001V11.8125C13.5001 11.6633 13.4409 11.5202 13.3354 11.4148C13.2299 11.3093 13.0868 11.25 12.9376 11.25C12.7885 11.25 12.6454 11.3093 12.5399 11.4148C12.4344 11.5202 12.3751 11.6633 12.3751 11.8125V12.375H11.8126C11.6635 12.375 11.5204 12.4343 11.4149 12.5398C11.3094 12.6452 11.2501 12.7883 11.2501 12.9375C11.2501 13.0867 11.3094 13.2298 11.4149 13.3352C11.5204 13.4407 11.6635 13.5 11.8126 13.5H12.3751V14.0625C12.3751 14.2117 12.4344 14.3548 12.5399 14.4602C12.6454 14.5657 12.7885 14.625 12.9376 14.625C13.0868 14.625 13.2299 14.5657 13.3354 14.4602C13.4409 14.3548 13.5001 14.2117 13.5001 14.0625V13.5H14.0626ZM9.82139 5.13338C10.2254 4.72953 10.7733 4.50272 11.3445 4.50282C11.9157 4.50293 12.4635 4.72995 12.8673 5.13394C13.2712 5.53793 13.498 6.0858 13.4979 6.65702C13.4978 7.22825 13.2708 7.77603 12.8668 8.17987L4.80051 16.2461C4.39652 16.65 3.84865 16.8768 3.27743 16.8767C2.7062 16.8766 2.15842 16.6496 1.75458 16.2456C1.35073 15.8416 1.12392 15.2937 1.12402 14.7225C1.12413 14.1513 1.35115 13.6035 1.75514 13.1996L9.82139 5.13338ZM9.28139 7.26412L2.55051 13.995C2.35762 14.1879 2.24925 14.4495 2.24925 14.7223C2.24925 14.9951 2.35762 15.2567 2.55051 15.4496C2.74341 15.6425 3.00503 15.7509 3.27783 15.7509C3.55062 15.7509 3.81224 15.6425 4.00514 15.4496L10.736 8.71875L9.28139 7.26412ZM11.5314 7.92338L12.0714 7.38338C12.1687 7.28828 12.2462 7.17482 12.2993 7.04956C12.3524 6.92431 12.3802 6.78975 12.3809 6.6537C12.3817 6.51764 12.3554 6.38278 12.3037 6.25695C12.252 6.13111 12.1758 6.0168 12.0795 5.92063C11.9833 5.82445 11.8689 5.74834 11.743 5.6967C11.6171 5.64505 11.4823 5.6189 11.3462 5.61976C11.2101 5.62062 11.0756 5.64847 10.9504 5.70171C10.8252 5.75494 10.7118 5.83249 10.6168 5.92987L10.0768 6.46987L11.5314 7.92338Z" fill="black"/>
</svg>
