<svg width="48" height="48" viewBox="0 0 48 48" fill="none" xmlns="http://www.w3.org/2000/svg">
<rect width="48" height="48" rx="24" fill="#FF5959" fill-opacity="0.1"/>
<path d="M20.042 20.6667C20.042 20.3216 20.3218 20.0417 20.667 20.0417H24.0003C24.3455 20.0417 24.6253 20.3216 24.6253 20.6667C24.6253 21.0119 24.3455 21.2917 24.0003 21.2917H20.667C20.3218 21.2917 20.042 21.0119 20.042 20.6667Z" fill="#FF5959"/>
<path d="M20.042 24.0001C20.042 23.655 20.3218 23.3751 20.667 23.3751H27.3337C27.6788 23.3751 27.9587 23.655 27.9587 24.0001C27.9587 24.3453 27.6788 24.6251 27.3337 24.6251H20.667C20.3218 24.6251 20.042 24.3453 20.042 24.0001Z" fill="#FF5959"/>
<path fill-rule="evenodd" clip-rule="evenodd" d="M22.3057 15.0417H25.695C26.8381 15.0417 27.7342 15.0417 28.4546 15.1006C29.188 15.1605 29.7939 15.2846 30.3423 15.564C31.244 16.0234 31.977 16.7564 32.4364 17.658C32.7158 18.2065 32.8399 18.8124 32.8998 19.5459C32.9587 20.2661 32.9587 21.1623 32.9587 22.3054V23.3202V23.4427C32.9588 24.7332 32.959 25.5204 32.7651 26.1817C32.3059 27.7477 31.0812 28.9723 29.5152 29.4315C28.854 29.6254 28.0667 29.6252 26.7762 29.6251C26.7359 29.6251 26.6952 29.6251 26.6538 29.6251H26.1965L26.1462 29.6252C25.4236 29.6297 24.7197 29.8554 24.1289 30.2717L24.0879 30.3008L21.9123 31.8548C20.6586 32.7503 19.0111 31.4571 19.5833 30.0265C19.6602 29.8342 19.5186 29.6251 19.3115 29.6251H18.81C16.729 29.6251 15.042 27.9381 15.042 25.857V22.3054C15.042 21.1623 15.042 20.2662 15.1008 19.5459C15.1608 18.8124 15.2848 18.2065 15.5643 17.658C16.0236 16.7564 16.7567 16.0234 17.6583 15.564C18.2067 15.2846 18.8127 15.1605 19.5461 15.1006C20.2664 15.0417 21.1626 15.0417 22.3057 15.0417ZM19.6479 16.3464C18.9917 16.4 18.5686 16.5031 18.2258 16.6778C17.5594 17.0173 17.0176 17.5591 16.678 18.2255C16.5033 18.5684 16.4003 18.9915 16.3467 19.6476C16.2925 20.3111 16.292 21.1563 16.292 22.3334V25.857C16.292 27.2477 17.4194 28.3751 18.81 28.3751H19.3115C20.4029 28.3751 21.1492 29.4774 20.7439 30.4907C20.6353 30.7622 20.9479 31.0076 21.1858 30.8377L23.4088 29.2498C24.2081 28.6867 25.1605 28.3814 26.1382 28.3752L26.1965 28.3751H26.6538C28.1054 28.3751 28.6972 28.3687 29.1635 28.232C30.321 27.8926 31.2262 26.9874 31.5656 25.8299C31.7023 25.3637 31.7087 24.7718 31.7087 23.3202V22.3334C31.7087 21.1563 31.7082 20.3111 31.654 19.6476C31.6003 18.9915 31.4973 18.5684 31.3227 18.2255C30.9831 17.5591 30.4412 17.0173 29.7749 16.6778C29.432 16.5031 29.0089 16.4 28.3527 16.3464C27.6893 16.2922 26.8441 16.2917 25.667 16.2917H22.3337C21.1566 16.2917 20.3113 16.2922 19.6479 16.3464Z" fill="#FF5959"/>
</svg>
