<svg width="48" height="48" viewBox="0 0 48 48" fill="none" xmlns="http://www.w3.org/2000/svg">
<rect width="48" height="48" rx="24" fill="#DCF8C6"/>
<path d="M29.1117 23.1666C29.5958 27.6458 31.5 29 31.5 29H16.5C16.5 29 19 27.2225 19 21C19 19.5858 19.5267 18.2291 20.4642 17.2291C21.4017 16.2291 22.675 15.6666 24 15.6666C24.2817 15.6666 24.5594 15.6916 24.8333 15.7416M25.4417 31.5C25.2952 31.7525 25.0849 31.9622 24.8319 32.1079C24.5788 32.2536 24.292 32.3303 24 32.3303C23.708 32.3303 23.4212 32.2536 23.1681 32.1079C22.9151 31.9622 22.7048 31.7525 22.5583 31.5M29.8333 20.6666C30.4964 20.6666 31.1323 20.4032 31.6011 19.9344C32.0699 19.4656 32.3333 18.8297 32.3333 18.1666C32.3333 17.5036 32.0699 16.8677 31.6011 16.3989C31.1323 15.93 30.4964 15.6666 29.8333 15.6666C29.1703 15.6666 28.5344 15.93 28.0656 16.3989C27.5967 16.8677 27.3333 17.5036 27.3333 18.1666C27.3333 18.8297 27.5967 19.4656 28.0656 19.9344C28.5344 20.4032 29.1703 20.6666 29.8333 20.6666Z" stroke="#075E54" stroke-width="1.25" stroke-linecap="round" stroke-linejoin="round"/>
</svg>
