<svg width="1166" height="479" viewBox="0 0 1166 479" fill="none" xmlns="http://www.w3.org/2000/svg">
<rect width="1166" height="479" rx="12" fill="#F3F3FA"/>
<path d="M31.092 42.18C30.18 42.18 29.334 42.018 28.554 41.694C27.786 41.358 27.114 40.896 26.538 40.308C25.962 39.708 25.518 39.018 25.206 38.238C24.894 37.446 24.738 36.6 24.738 35.7C24.738 34.8 24.894 33.96 25.206 33.18C25.518 32.388 25.962 31.698 26.538 31.11C27.114 30.522 27.786 30.06 28.554 29.724C29.334 29.388 30.18 29.22 31.092 29.22C32.112 29.22 32.994 29.388 33.738 29.724C34.482 30.06 35.142 30.516 35.718 31.092L34.314 32.496C33.942 32.088 33.486 31.77 32.946 31.542C32.418 31.314 31.8 31.2 31.092 31.2C30.468 31.2 29.898 31.308 29.382 31.524C28.866 31.74 28.416 32.052 28.032 32.46C27.66 32.856 27.372 33.33 27.168 33.882C26.964 34.434 26.862 35.04 26.862 35.7C26.862 36.36 26.964 36.966 27.168 37.518C27.372 38.07 27.66 38.55 28.032 38.958C28.416 39.354 28.866 39.66 29.382 39.876C29.898 40.092 30.468 40.2 31.092 40.2C31.86 40.2 32.508 40.086 33.036 39.858C33.576 39.618 34.032 39.294 34.404 38.886L35.808 40.29C35.232 40.878 34.554 41.34 33.774 41.676C32.994 42.012 32.1 42.18 31.092 42.18ZM41.0814 42.18C40.2414 42.18 39.4794 41.982 38.7954 41.586C38.1114 41.178 37.5654 40.632 37.1574 39.948C36.7614 39.264 36.5634 38.502 36.5634 37.662C36.5634 36.822 36.7614 36.066 37.1574 35.394C37.5654 34.722 38.1114 34.188 38.7954 33.792C39.4794 33.384 40.2414 33.18 41.0814 33.18C41.9334 33.18 42.7014 33.378 43.3854 33.774C44.0694 34.17 44.6094 34.71 45.0054 35.394C45.4134 36.066 45.6174 36.822 45.6174 37.662C45.6174 38.502 45.4134 39.264 45.0054 39.948C44.6094 40.632 44.0694 41.178 43.3854 41.586C42.7014 41.982 41.9334 42.18 41.0814 42.18ZM41.0814 40.272C41.5734 40.272 42.0054 40.164 42.3774 39.948C42.7614 39.72 43.0554 39.408 43.2594 39.012C43.4754 38.616 43.5834 38.166 43.5834 37.662C43.5834 37.158 43.4754 36.714 43.2594 36.33C43.0434 35.946 42.7494 35.646 42.3774 35.43C42.0054 35.202 41.5734 35.088 41.0814 35.088C40.6014 35.088 40.1694 35.202 39.7854 35.43C39.4134 35.646 39.1194 35.946 38.9034 36.33C38.6994 36.714 38.5974 37.158 38.5974 37.662C38.5974 38.166 38.6994 38.616 38.9034 39.012C39.1194 39.408 39.4134 39.72 39.7854 39.948C40.1694 40.164 40.6014 40.272 41.0814 40.272ZM50.81 42.18C50.078 42.18 49.424 42.018 48.848 41.694C48.284 41.37 47.84 40.926 47.516 40.362C47.204 39.786 47.048 39.126 47.048 38.382V33.36H49.028V38.292C49.028 38.712 49.094 39.072 49.226 39.372C49.37 39.66 49.574 39.882 49.838 40.038C50.114 40.194 50.438 40.272 50.81 40.272C51.386 40.272 51.824 40.104 52.124 39.768C52.436 39.42 52.592 38.928 52.592 38.292V33.36H54.572V38.382C54.572 39.138 54.41 39.804 54.086 40.38C53.774 40.944 53.336 41.388 52.772 41.712C52.208 42.024 51.554 42.18 50.81 42.18ZM56.5628 42V33.36H58.5428V42H56.5628ZM58.5428 37.194L57.8588 36.852C57.8588 35.76 58.0988 34.878 58.5788 34.206C59.0708 33.522 59.8088 33.18 60.7928 33.18C61.2248 33.18 61.6148 33.258 61.9628 33.414C62.3108 33.57 62.6348 33.822 62.9348 34.17L61.6388 35.502C61.4828 35.334 61.3088 35.214 61.1168 35.142C60.9248 35.07 60.7028 35.034 60.4508 35.034C59.8988 35.034 59.4428 35.208 59.0828 35.556C58.7228 35.904 58.5428 36.45 58.5428 37.194ZM66.5256 42.18C66.0456 42.18 65.5836 42.12 65.1396 42C64.6956 41.868 64.2876 41.688 63.9156 41.46C63.5436 41.22 63.2196 40.932 62.9436 40.596L64.2036 39.336C64.5036 39.684 64.8456 39.948 65.2296 40.128C65.6256 40.296 66.0696 40.38 66.5616 40.38C67.0056 40.38 67.3416 40.314 67.5696 40.182C67.7976 40.05 67.9116 39.858 67.9116 39.606C67.9116 39.342 67.8036 39.138 67.5876 38.994C67.3716 38.85 67.0896 38.73 66.7416 38.634C66.4056 38.526 66.0456 38.418 65.6616 38.31C65.2896 38.202 64.9296 38.058 64.5816 37.878C64.2456 37.686 63.9696 37.428 63.7536 37.104C63.5376 36.78 63.4296 36.36 63.4296 35.844C63.4296 35.292 63.5556 34.818 63.8076 34.422C64.0716 34.026 64.4376 33.72 64.9056 33.504C65.3856 33.288 65.9556 33.18 66.6156 33.18C67.3116 33.18 67.9236 33.306 68.4516 33.558C68.9916 33.798 69.4416 34.164 69.8016 34.656L68.5416 35.916C68.2896 35.604 68.0016 35.37 67.6776 35.214C67.3536 35.058 66.9816 34.98 66.5616 34.98C66.1656 34.98 65.8596 35.04 65.6436 35.16C65.4276 35.28 65.3196 35.454 65.3196 35.682C65.3196 35.922 65.4276 36.108 65.6436 36.24C65.8596 36.372 66.1356 36.486 66.4716 36.582C66.8196 36.678 67.1796 36.786 67.5516 36.906C67.9356 37.014 68.2956 37.17 68.6316 37.374C68.9796 37.566 69.2616 37.83 69.4776 38.166C69.6936 38.49 69.8016 38.916 69.8016 39.444C69.8016 40.284 69.5076 40.95 68.9196 41.442C68.3316 41.934 67.5336 42.18 66.5256 42.18ZM75.4479 42.18C74.5839 42.18 73.8039 41.988 73.1079 41.604C72.4239 41.208 71.8779 40.668 71.4699 39.984C71.0739 39.3 70.8759 38.532 70.8759 37.68C70.8759 36.828 71.0739 36.066 71.4699 35.394C71.8659 34.71 72.3999 34.17 73.0719 33.774C73.7559 33.378 74.5119 33.18 75.3399 33.18C76.1439 33.18 76.8519 33.366 77.4639 33.738C78.0879 34.11 78.5739 34.62 78.9219 35.268C79.2819 35.916 79.4619 36.654 79.4619 37.482C79.4619 37.626 79.4499 37.776 79.4259 37.932C79.4139 38.076 79.3899 38.238 79.3539 38.418H72.2619V36.798H78.3279L77.5899 37.446C77.5659 36.918 77.4639 36.474 77.2839 36.114C77.1039 35.754 76.8459 35.478 76.5099 35.286C76.1859 35.094 75.7839 34.998 75.3039 34.998C74.7999 34.998 74.3619 35.106 73.9899 35.322C73.6179 35.538 73.3299 35.844 73.1259 36.24C72.9219 36.624 72.8199 37.086 72.8199 37.626C72.8199 38.166 72.9279 38.64 73.1439 39.048C73.3599 39.456 73.6659 39.774 74.0619 40.002C74.4579 40.218 74.9139 40.326 75.4299 40.326C75.8739 40.326 76.2819 40.248 76.6539 40.092C77.0379 39.936 77.3619 39.708 77.6259 39.408L78.8859 40.686C78.4659 41.178 77.9559 41.55 77.3559 41.802C76.7559 42.054 76.1199 42.18 75.4479 42.18ZM86.3447 37.248V35.448H89.4947C89.9267 35.448 90.3047 35.364 90.6287 35.196C90.9647 35.016 91.2287 34.77 91.4207 34.458C91.6127 34.134 91.7087 33.756 91.7087 33.324C91.7087 32.892 91.6127 32.52 91.4207 32.208C91.2287 31.884 90.9647 31.638 90.6287 31.47C90.3047 31.29 89.9267 31.2 89.4947 31.2H86.3447V29.4H89.6027C90.3947 29.4 91.1027 29.562 91.7267 29.886C92.3627 30.21 92.8607 30.666 93.2207 31.254C93.5927 31.842 93.7787 32.532 93.7787 33.324C93.7787 34.116 93.5927 34.806 93.2207 35.394C92.8607 35.982 92.3627 36.438 91.7267 36.762C91.1027 37.086 90.3947 37.248 89.6027 37.248H86.3447ZM84.9227 42V29.4H86.9927V42H84.9227ZM99.0905 42.18C98.2265 42.18 97.4465 41.988 96.7505 41.604C96.0665 41.208 95.5205 40.668 95.1125 39.984C94.7165 39.3 94.5185 38.532 94.5185 37.68C94.5185 36.828 94.7165 36.066 95.1125 35.394C95.5085 34.71 96.0425 34.17 96.7145 33.774C97.3985 33.378 98.1545 33.18 98.9825 33.18C99.7865 33.18 100.495 33.366 101.107 33.738C101.731 34.11 102.217 34.62 102.565 35.268C102.925 35.916 103.105 36.654 103.105 37.482C103.105 37.626 103.093 37.776 103.069 37.932C103.057 38.076 103.033 38.238 102.997 38.418H95.9045V36.798H101.971L101.233 37.446C101.209 36.918 101.107 36.474 100.927 36.114C100.747 35.754 100.489 35.478 100.153 35.286C99.8285 35.094 99.4265 34.998 98.9465 34.998C98.4425 34.998 98.0045 35.106 97.6325 35.322C97.2605 35.538 96.9725 35.844 96.7685 36.24C96.5645 36.624 96.4625 37.086 96.4625 37.626C96.4625 38.166 96.5705 38.64 96.7865 39.048C97.0025 39.456 97.3085 39.774 97.7045 40.002C98.1005 40.218 98.5565 40.326 99.0725 40.326C99.5165 40.326 99.9245 40.248 100.297 40.092C100.681 39.936 101.005 39.708 101.269 39.408L102.529 40.686C102.109 41.178 101.599 41.55 100.999 41.802C100.399 42.054 99.7625 42.18 99.0905 42.18ZM104.692 42V33.36H106.672V42H104.692ZM106.672 37.194L105.988 36.852C105.988 35.76 106.228 34.878 106.708 34.206C107.2 33.522 107.938 33.18 108.922 33.18C109.354 33.18 109.744 33.258 110.092 33.414C110.44 33.57 110.764 33.822 111.064 34.17L109.768 35.502C109.612 35.334 109.438 35.214 109.246 35.142C109.054 35.07 108.832 35.034 108.58 35.034C108.028 35.034 107.572 35.208 107.212 35.556C106.852 35.904 106.672 36.45 106.672 37.194ZM113.227 42V32.226C113.227 31.566 113.371 30.984 113.659 30.48C113.959 29.976 114.367 29.58 114.883 29.292C115.411 29.004 116.017 28.86 116.701 28.86C117.229 28.86 117.679 28.95 118.051 29.13C118.423 29.31 118.771 29.568 119.095 29.904L117.817 31.182C117.673 31.038 117.517 30.924 117.349 30.84C117.181 30.756 116.965 30.714 116.701 30.714C116.221 30.714 115.849 30.846 115.585 31.11C115.333 31.362 115.207 31.728 115.207 32.208V42H113.227ZM111.157 35.16V33.36H117.817V35.16H111.157ZM122.82 42.18C121.98 42.18 121.218 41.982 120.534 41.586C119.85 41.178 119.304 40.632 118.896 39.948C118.5 39.264 118.302 38.502 118.302 37.662C118.302 36.822 118.5 36.066 118.896 35.394C119.304 34.722 119.85 34.188 120.534 33.792C121.218 33.384 121.98 33.18 122.82 33.18C123.672 33.18 124.44 33.378 125.124 33.774C125.808 34.17 126.348 34.71 126.744 35.394C127.152 36.066 127.356 36.822 127.356 37.662C127.356 38.502 127.152 39.264 126.744 39.948C126.348 40.632 125.808 41.178 125.124 41.586C124.44 41.982 123.672 42.18 122.82 42.18ZM122.82 40.272C123.312 40.272 123.744 40.164 124.116 39.948C124.5 39.72 124.794 39.408 124.998 39.012C125.214 38.616 125.322 38.166 125.322 37.662C125.322 37.158 125.214 36.714 124.998 36.33C124.782 35.946 124.488 35.646 124.116 35.43C123.744 35.202 123.312 35.088 122.82 35.088C122.34 35.088 121.908 35.202 121.524 35.43C121.152 35.646 120.858 35.946 120.642 36.33C120.438 36.714 120.336 37.158 120.336 37.662C120.336 38.166 120.438 38.616 120.642 39.012C120.858 39.408 121.152 39.72 121.524 39.948C121.908 40.164 122.34 40.272 122.82 40.272ZM129.002 42V33.36H130.982V42H129.002ZM130.982 37.194L130.298 36.852C130.298 35.76 130.538 34.878 131.018 34.206C131.51 33.522 132.248 33.18 133.232 33.18C133.664 33.18 134.054 33.258 134.402 33.414C134.75 33.57 135.074 33.822 135.374 34.17L134.078 35.502C133.922 35.334 133.748 35.214 133.556 35.142C133.364 35.07 133.142 35.034 132.89 35.034C132.338 35.034 131.882 35.208 131.522 35.556C131.162 35.904 130.982 36.45 130.982 37.194ZM136.332 42V33.36H138.312V42H136.332ZM142.074 42V36.852C142.074 36.276 141.894 35.832 141.534 35.52C141.174 35.196 140.73 35.034 140.202 35.034C139.842 35.034 139.518 35.106 139.23 35.25C138.954 35.394 138.732 35.604 138.564 35.88C138.396 36.144 138.312 36.468 138.312 36.852L137.538 36.42C137.538 35.76 137.682 35.19 137.97 34.71C138.258 34.23 138.648 33.858 139.14 33.594C139.632 33.318 140.184 33.18 140.796 33.18C141.408 33.18 141.96 33.312 142.452 33.576C142.944 33.84 143.334 34.212 143.622 34.692C143.91 35.172 144.054 35.748 144.054 36.42V42H142.074ZM147.816 42V36.852C147.816 36.276 147.636 35.832 147.276 35.52C146.916 35.196 146.472 35.034 145.944 35.034C145.596 35.034 145.278 35.106 144.99 35.25C144.702 35.394 144.474 35.604 144.306 35.88C144.138 36.144 144.054 36.468 144.054 36.852L142.938 36.42C142.998 35.76 143.19 35.19 143.514 34.71C143.838 34.23 144.252 33.858 144.756 33.594C145.272 33.318 145.836 33.18 146.448 33.18C147.072 33.18 147.636 33.312 148.14 33.576C148.644 33.84 149.046 34.212 149.346 34.692C149.646 35.172 149.796 35.748 149.796 36.42V42H147.816ZM155.454 42.18C154.674 42.18 153.966 41.982 153.33 41.586C152.706 41.19 152.208 40.656 151.836 39.984C151.476 39.3 151.296 38.538 151.296 37.698C151.296 36.846 151.476 36.084 151.836 35.412C152.208 34.728 152.706 34.188 153.33 33.792C153.966 33.384 154.674 33.18 155.454 33.18C156.114 33.18 156.696 33.324 157.2 33.612C157.716 33.888 158.124 34.272 158.424 34.764C158.724 35.256 158.874 35.814 158.874 36.438V38.922C158.874 39.546 158.724 40.104 158.424 40.596C158.136 41.088 157.734 41.478 157.218 41.766C156.702 42.042 156.114 42.18 155.454 42.18ZM155.778 40.308C156.51 40.308 157.098 40.062 157.542 39.57C157.998 39.078 158.226 38.448 158.226 37.68C158.226 37.164 158.124 36.708 157.92 36.312C157.716 35.916 157.428 35.61 157.056 35.394C156.696 35.166 156.27 35.052 155.778 35.052C155.298 35.052 154.872 35.166 154.5 35.394C154.14 35.61 153.852 35.916 153.636 36.312C153.432 36.708 153.33 37.164 153.33 37.68C153.33 38.196 153.432 38.652 153.636 39.048C153.852 39.444 154.14 39.756 154.5 39.984C154.872 40.2 155.298 40.308 155.778 40.308ZM158.1 42V39.678L158.442 37.572L158.1 35.484V33.36H160.08V42H158.1ZM168.2 42V37.014C168.2 36.438 168.014 35.964 167.642 35.592C167.282 35.22 166.814 35.034 166.238 35.034C165.854 35.034 165.512 35.118 165.212 35.286C164.912 35.454 164.678 35.688 164.51 35.988C164.342 36.288 164.258 36.63 164.258 37.014L163.484 36.582C163.484 35.922 163.628 35.34 163.916 34.836C164.204 34.32 164.6 33.918 165.104 33.63C165.62 33.33 166.196 33.18 166.832 33.18C167.48 33.18 168.056 33.348 168.56 33.684C169.064 34.008 169.46 34.434 169.748 34.962C170.036 35.478 170.18 36.018 170.18 36.582V42H168.2ZM162.278 42V33.36H164.258V42H162.278ZM176.17 42.18C175.318 42.18 174.544 41.982 173.848 41.586C173.164 41.19 172.624 40.65 172.228 39.966C171.832 39.282 171.634 38.52 171.634 37.68C171.634 36.828 171.832 36.066 172.228 35.394C172.624 34.71 173.164 34.17 173.848 33.774C174.544 33.378 175.318 33.18 176.17 33.18C176.842 33.18 177.466 33.312 178.042 33.576C178.63 33.828 179.128 34.194 179.536 34.674L178.24 35.988C177.988 35.688 177.682 35.466 177.322 35.322C176.974 35.166 176.59 35.088 176.17 35.088C175.678 35.088 175.24 35.202 174.856 35.43C174.484 35.646 174.19 35.946 173.974 36.33C173.77 36.714 173.668 37.164 173.668 37.68C173.668 38.184 173.77 38.634 173.974 39.03C174.19 39.414 174.484 39.72 174.856 39.948C175.24 40.164 175.678 40.272 176.17 40.272C176.59 40.272 176.974 40.2 177.322 40.056C177.682 39.9 177.988 39.672 178.24 39.372L179.536 40.686C179.128 41.166 178.63 41.538 178.042 41.802C177.466 42.054 176.842 42.18 176.17 42.18ZM184.801 42.18C183.937 42.18 183.157 41.988 182.461 41.604C181.777 41.208 181.231 40.668 180.823 39.984C180.427 39.3 180.229 38.532 180.229 37.68C180.229 36.828 180.427 36.066 180.823 35.394C181.219 34.71 181.753 34.17 182.425 33.774C183.109 33.378 183.865 33.18 184.693 33.18C185.497 33.18 186.205 33.366 186.817 33.738C187.441 34.11 187.927 34.62 188.275 35.268C188.635 35.916 188.815 36.654 188.815 37.482C188.815 37.626 188.803 37.776 188.779 37.932C188.767 38.076 188.743 38.238 188.707 38.418H181.615V36.798H187.681L186.943 37.446C186.919 36.918 186.817 36.474 186.637 36.114C186.457 35.754 186.199 35.478 185.863 35.286C185.539 35.094 185.137 34.998 184.657 34.998C184.153 34.998 183.715 35.106 183.343 35.322C182.971 35.538 182.683 35.844 182.479 36.24C182.275 36.624 182.173 37.086 182.173 37.626C182.173 38.166 182.281 38.64 182.497 39.048C182.713 39.456 183.019 39.774 183.415 40.002C183.811 40.218 184.267 40.326 184.783 40.326C185.227 40.326 185.635 40.248 186.007 40.092C186.391 39.936 186.715 39.708 186.979 39.408L188.239 40.686C187.819 41.178 187.309 41.55 186.709 41.802C186.109 42.054 185.473 42.18 184.801 42.18Z" fill="#30303D"/>
<path d="M1077.58 40L1074.36 30.2H1075.95L1078.37 37.746H1077.95L1080.31 30.2H1081.43L1083.8 37.746H1083.38L1085.8 30.2H1087.38L1084.16 40H1083.04L1080.66 32.468H1081.08L1078.7 40H1077.58ZM1090.75 40.14C1090.07 40.14 1089.47 39.9907 1088.93 39.692C1088.39 39.384 1087.97 38.964 1087.65 38.432C1087.34 37.9 1087.19 37.3027 1087.19 36.64C1087.19 35.9773 1087.34 35.3847 1087.65 34.862C1087.96 34.33 1088.37 33.91 1088.9 33.602C1089.43 33.294 1090.02 33.14 1090.66 33.14C1091.29 33.14 1091.84 33.2847 1092.31 33.574C1092.8 33.8633 1093.18 34.26 1093.45 34.764C1093.73 35.268 1093.87 35.842 1093.87 36.486C1093.87 36.598 1093.86 36.7147 1093.84 36.836C1093.83 36.948 1093.81 37.074 1093.78 37.214H1088.27V35.954H1092.99L1092.41 36.458C1092.39 36.0473 1092.31 35.702 1092.17 35.422C1092.03 35.142 1091.83 34.9273 1091.57 34.778C1091.32 34.6287 1091.01 34.554 1090.63 34.554C1090.24 34.554 1089.9 34.638 1089.61 34.806C1089.32 34.974 1089.1 35.212 1088.94 35.52C1088.78 35.8187 1088.7 36.178 1088.7 36.598C1088.7 37.018 1088.79 37.3867 1088.95 37.704C1089.12 38.0213 1089.36 38.2687 1089.67 38.446C1089.98 38.614 1090.33 38.698 1090.73 38.698C1091.08 38.698 1091.39 38.6373 1091.68 38.516C1091.98 38.3947 1092.23 38.2173 1092.44 37.984L1093.42 38.978C1093.09 39.3607 1092.7 39.65 1092.23 39.846C1091.76 40.042 1091.27 40.14 1090.75 40.14ZM1098.22 40.14C1097.55 40.14 1096.95 39.9907 1096.4 39.692C1095.87 39.384 1095.45 38.964 1095.13 38.432C1094.82 37.9 1094.67 37.3027 1094.67 36.64C1094.67 35.9773 1094.82 35.3847 1095.13 34.862C1095.44 34.33 1095.85 33.91 1096.38 33.602C1096.91 33.294 1097.5 33.14 1098.14 33.14C1098.77 33.14 1099.32 33.2847 1099.79 33.574C1100.28 33.8633 1100.66 34.26 1100.93 34.764C1101.21 35.268 1101.35 35.842 1101.35 36.486C1101.35 36.598 1101.34 36.7147 1101.32 36.836C1101.31 36.948 1101.29 37.074 1101.26 37.214H1095.75V35.954H1100.46L1099.89 36.458C1099.87 36.0473 1099.79 35.702 1099.65 35.422C1099.51 35.142 1099.31 34.9273 1099.05 34.778C1098.8 34.6287 1098.49 34.554 1098.11 34.554C1097.72 34.554 1097.38 34.638 1097.09 34.806C1096.8 34.974 1096.58 35.212 1096.42 35.52C1096.26 35.8187 1096.18 36.178 1096.18 36.598C1096.18 37.018 1096.26 37.3867 1096.43 37.704C1096.6 38.0213 1096.84 38.2687 1097.15 38.446C1097.45 38.614 1097.81 38.698 1098.21 38.698C1098.56 38.698 1098.87 38.6373 1099.16 38.516C1099.46 38.3947 1099.71 38.2173 1099.92 37.984L1100.9 38.978C1100.57 39.3607 1100.17 39.65 1099.71 39.846C1099.24 40.042 1098.75 40.14 1098.22 40.14ZM1106.85 40L1104.01 36.57L1106.84 33.28H1108.67L1105.42 36.976L1105.49 36.094L1108.81 40H1106.85ZM1102.58 40V29.92H1104.12V40H1102.58ZM1109.73 40V29.92H1111.27V40H1109.73ZM1115.15 40.07L1112.28 33.28H1113.98L1115.94 38.264H1115.45L1117.52 33.28H1119.23L1116.11 40.07H1115.15ZM1113.15 42.8L1115.24 38.502L1116.11 40.07L1114.86 42.8H1113.15Z" fill="#767676"/>
<path d="M1130.67 33.6667L1134 37L1137.33 33.6667" stroke="#767676" stroke-width="1.66667" stroke-linecap="round" stroke-linejoin="round"/>
<path d="M61.4325 423.14C60.7045 423.14 60.0372 422.935 59.4305 422.524C58.8332 422.113 58.3572 421.535 58.0025 420.788C57.6478 420.032 57.4705 419.145 57.4705 418.128C57.4705 417.111 57.6432 416.229 57.9885 415.482C58.3432 414.735 58.8192 414.161 59.4165 413.76C60.0138 413.349 60.6718 413.144 61.3905 413.144C62.1278 413.144 62.7952 413.349 63.3925 413.76C63.9898 414.161 64.4612 414.735 64.8065 415.482C65.1612 416.229 65.3385 417.115 65.3385 418.142C65.3385 419.159 65.1612 420.046 64.8065 420.802C64.4612 421.549 63.9898 422.127 63.3925 422.538C62.8045 422.939 62.1512 423.14 61.4325 423.14ZM61.4045 421.894C61.9178 421.894 62.3658 421.754 62.7485 421.474C63.1405 421.185 63.4485 420.76 63.6725 420.2C63.8965 419.64 64.0085 418.949 64.0085 418.128C64.0085 417.307 63.8965 416.621 63.6725 416.07C63.4485 415.51 63.1405 415.09 62.7485 414.81C62.3565 414.521 61.9038 414.376 61.3905 414.376C60.8865 414.376 60.4385 414.521 60.0465 414.81C59.6545 415.09 59.3465 415.51 59.1225 416.07C58.9078 416.621 58.8005 417.307 58.8005 418.128C58.8005 418.949 58.9078 419.64 59.1225 420.2C59.3465 420.76 59.6545 421.185 60.0465 421.474C60.4385 421.754 60.8912 421.894 61.4045 421.894Z" fill="#787878"/>
<path d="M31.3253 356.202L34.9093 352.422C35.2733 352.049 35.5579 351.727 35.7633 351.456C35.9686 351.176 36.1133 350.919 36.1973 350.686C36.2906 350.453 36.3373 350.21 36.3373 349.958C36.3373 349.463 36.1786 349.076 35.8613 348.796C35.5439 348.516 35.1333 348.376 34.6293 348.376C34.1346 348.376 33.7006 348.497 33.3273 348.74C32.9539 348.973 32.6226 349.337 32.3333 349.832L31.4093 349.062C31.7919 348.427 32.2539 347.951 32.7953 347.634C33.3366 347.307 33.9619 347.144 34.6713 347.144C35.2686 347.144 35.7866 347.261 36.2253 347.494C36.6733 347.727 37.0186 348.054 37.2613 348.474C37.5039 348.894 37.6253 349.384 37.6253 349.944C37.6253 350.345 37.5739 350.705 37.4713 351.022C37.3779 351.339 37.2053 351.666 36.9533 352.002C36.7106 352.329 36.3699 352.721 35.9313 353.178L33.0333 356.16L31.3253 356.202ZM31.3253 357V356.202L32.4453 355.824H37.8493V357H31.3253ZM43.0575 357.14C42.3295 357.14 41.6622 356.935 41.0555 356.524C40.4582 356.113 39.9822 355.535 39.6275 354.788C39.2728 354.032 39.0955 353.145 39.0955 352.128C39.0955 351.111 39.2682 350.229 39.6135 349.482C39.9682 348.735 40.4442 348.161 41.0415 347.76C41.6388 347.349 42.2968 347.144 43.0155 347.144C43.7528 347.144 44.4202 347.349 45.0175 347.76C45.6148 348.161 46.0862 348.735 46.4315 349.482C46.7862 350.229 46.9635 351.115 46.9635 352.142C46.9635 353.159 46.7862 354.046 46.4315 354.802C46.0862 355.549 45.6148 356.127 45.0175 356.538C44.4295 356.939 43.7762 357.14 43.0575 357.14ZM43.0295 355.894C43.5428 355.894 43.9908 355.754 44.3735 355.474C44.7655 355.185 45.0735 354.76 45.2975 354.2C45.5215 353.64 45.6335 352.949 45.6335 352.128C45.6335 351.307 45.5215 350.621 45.2975 350.07C45.0735 349.51 44.7655 349.09 44.3735 348.81C43.9815 348.521 43.5288 348.376 43.0155 348.376C42.5115 348.376 42.0635 348.521 41.6715 348.81C41.2795 349.09 40.9715 349.51 40.7475 350.07C40.5328 350.621 40.4255 351.307 40.4255 352.128C40.4255 352.949 40.5328 353.64 40.7475 354.2C40.9715 354.76 41.2795 355.185 41.6715 355.474C42.0635 355.754 42.5162 355.894 43.0295 355.894ZM52.245 357.14C51.517 357.14 50.8497 356.935 50.243 356.524C49.6457 356.113 49.1697 355.535 48.815 354.788C48.4603 354.032 48.283 353.145 48.283 352.128C48.283 351.111 48.4557 350.229 48.801 349.482C49.1557 348.735 49.6317 348.161 50.229 347.76C50.8263 347.349 51.4843 347.144 52.203 347.144C52.9403 347.144 53.6077 347.349 54.205 347.76C54.8023 348.161 55.2737 348.735 55.619 349.482C55.9737 350.229 56.151 351.115 56.151 352.142C56.151 353.159 55.9737 354.046 55.619 354.802C55.2737 355.549 54.8023 356.127 54.205 356.538C53.617 356.939 52.9637 357.14 52.245 357.14ZM52.217 355.894C52.7303 355.894 53.1783 355.754 53.561 355.474C53.953 355.185 54.261 354.76 54.485 354.2C54.709 353.64 54.821 352.949 54.821 352.128C54.821 351.307 54.709 350.621 54.485 350.07C54.261 349.51 53.953 349.09 53.561 348.81C53.169 348.521 52.7163 348.376 52.203 348.376C51.699 348.376 51.251 348.521 50.859 348.81C50.467 349.09 50.159 349.51 49.935 350.07C49.7203 350.621 49.613 351.307 49.613 352.128C49.613 352.949 49.7203 353.64 49.935 354.2C50.159 354.76 50.467 355.185 50.859 355.474C51.251 355.754 51.7037 355.894 52.217 355.894ZM61.4325 357.14C60.7045 357.14 60.0372 356.935 59.4305 356.524C58.8332 356.113 58.3572 355.535 58.0025 354.788C57.6478 354.032 57.4705 353.145 57.4705 352.128C57.4705 351.111 57.6432 350.229 57.9885 349.482C58.3432 348.735 58.8192 348.161 59.4165 347.76C60.0138 347.349 60.6718 347.144 61.3905 347.144C62.1278 347.144 62.7952 347.349 63.3925 347.76C63.9898 348.161 64.4612 348.735 64.8065 349.482C65.1612 350.229 65.3385 351.115 65.3385 352.142C65.3385 353.159 65.1612 354.046 64.8065 354.802C64.4612 355.549 63.9898 356.127 63.3925 356.538C62.8045 356.939 62.1512 357.14 61.4325 357.14ZM61.4045 355.894C61.9178 355.894 62.3658 355.754 62.7485 355.474C63.1405 355.185 63.4485 354.76 63.6725 354.2C63.8965 353.64 64.0085 352.949 64.0085 352.128C64.0085 351.307 63.8965 350.621 63.6725 350.07C63.4485 349.51 63.1405 349.09 62.7485 348.81C62.3565 348.521 61.9038 348.376 61.3905 348.376C60.8865 348.376 60.4385 348.521 60.0465 348.81C59.6545 349.09 59.3465 349.51 59.1225 350.07C58.9078 350.621 58.8005 351.307 58.8005 352.128C58.8005 352.949 58.9078 353.64 59.1225 354.2C59.3465 354.76 59.6545 355.185 60.0465 355.474C60.4385 355.754 60.8912 355.894 61.4045 355.894Z" fill="#787878"/>
<path d="M30.5323 287.654L34.0743 281.284H35.5583L31.9463 287.654H30.5323ZM30.5323 288.466V287.654L31.0923 287.29H37.9803V288.466H30.5323ZM35.2783 291V284.574H36.5803V291H35.2783ZM43.0575 291.14C42.3295 291.14 41.6622 290.935 41.0555 290.524C40.4582 290.113 39.9822 289.535 39.6275 288.788C39.2728 288.032 39.0955 287.145 39.0955 286.128C39.0955 285.111 39.2682 284.229 39.6135 283.482C39.9682 282.735 40.4442 282.161 41.0415 281.76C41.6388 281.349 42.2968 281.144 43.0155 281.144C43.7528 281.144 44.4202 281.349 45.0175 281.76C45.6148 282.161 46.0862 282.735 46.4315 283.482C46.7862 284.229 46.9635 285.115 46.9635 286.142C46.9635 287.159 46.7862 288.046 46.4315 288.802C46.0862 289.549 45.6148 290.127 45.0175 290.538C44.4295 290.939 43.7762 291.14 43.0575 291.14ZM43.0295 289.894C43.5428 289.894 43.9908 289.754 44.3735 289.474C44.7655 289.185 45.0735 288.76 45.2975 288.2C45.5215 287.64 45.6335 286.949 45.6335 286.128C45.6335 285.307 45.5215 284.621 45.2975 284.07C45.0735 283.51 44.7655 283.09 44.3735 282.81C43.9815 282.521 43.5288 282.376 43.0155 282.376C42.5115 282.376 42.0635 282.521 41.6715 282.81C41.2795 283.09 40.9715 283.51 40.7475 284.07C40.5328 284.621 40.4255 285.307 40.4255 286.128C40.4255 286.949 40.5328 287.64 40.7475 288.2C40.9715 288.76 41.2795 289.185 41.6715 289.474C42.0635 289.754 42.5162 289.894 43.0295 289.894ZM52.245 291.14C51.517 291.14 50.8497 290.935 50.243 290.524C49.6457 290.113 49.1697 289.535 48.815 288.788C48.4603 288.032 48.283 287.145 48.283 286.128C48.283 285.111 48.4557 284.229 48.801 283.482C49.1557 282.735 49.6317 282.161 50.229 281.76C50.8263 281.349 51.4843 281.144 52.203 281.144C52.9403 281.144 53.6077 281.349 54.205 281.76C54.8023 282.161 55.2737 282.735 55.619 283.482C55.9737 284.229 56.151 285.115 56.151 286.142C56.151 287.159 55.9737 288.046 55.619 288.802C55.2737 289.549 54.8023 290.127 54.205 290.538C53.617 290.939 52.9637 291.14 52.245 291.14ZM52.217 289.894C52.7303 289.894 53.1783 289.754 53.561 289.474C53.953 289.185 54.261 288.76 54.485 288.2C54.709 287.64 54.821 286.949 54.821 286.128C54.821 285.307 54.709 284.621 54.485 284.07C54.261 283.51 53.953 283.09 53.561 282.81C53.169 282.521 52.7163 282.376 52.203 282.376C51.699 282.376 51.251 282.521 50.859 282.81C50.467 283.09 50.159 283.51 49.935 284.07C49.7203 284.621 49.613 285.307 49.613 286.128C49.613 286.949 49.7203 287.64 49.935 288.2C50.159 288.76 50.467 289.185 50.859 289.474C51.251 289.754 51.7037 289.894 52.217 289.894ZM61.4325 291.14C60.7045 291.14 60.0372 290.935 59.4305 290.524C58.8332 290.113 58.3572 289.535 58.0025 288.788C57.6478 288.032 57.4705 287.145 57.4705 286.128C57.4705 285.111 57.6432 284.229 57.9885 283.482C58.3432 282.735 58.8192 282.161 59.4165 281.76C60.0138 281.349 60.6718 281.144 61.3905 281.144C62.1278 281.144 62.7952 281.349 63.3925 281.76C63.9898 282.161 64.4612 282.735 64.8065 283.482C65.1612 284.229 65.3385 285.115 65.3385 286.142C65.3385 287.159 65.1612 288.046 64.8065 288.802C64.4612 289.549 63.9898 290.127 63.3925 290.538C62.8045 290.939 62.1512 291.14 61.4325 291.14ZM61.4045 289.894C61.9178 289.894 62.3658 289.754 62.7485 289.474C63.1405 289.185 63.4485 288.76 63.6725 288.2C63.8965 287.64 64.0085 286.949 64.0085 286.128C64.0085 285.307 63.8965 284.621 63.6725 284.07C63.4485 283.51 63.1405 283.09 62.7485 282.81C62.3565 282.521 61.9038 282.376 61.3905 282.376C60.8865 282.376 60.4385 282.521 60.0465 282.81C59.6545 283.09 59.3465 283.51 59.1225 284.07C58.9078 284.621 58.8005 285.307 58.8005 286.128C58.8005 286.949 58.9078 287.64 59.1225 288.2C59.3465 288.76 59.6545 289.185 60.0465 289.474C60.4385 289.754 60.8912 289.894 61.4045 289.894Z" fill="#787878"/>
<path d="M34.4832 225.14C33.8392 225.14 33.2605 224.991 32.7472 224.692C32.2432 224.393 31.8418 223.992 31.5432 223.488C31.2445 222.984 31.0952 222.424 31.0952 221.808C31.0952 220.949 31.3938 220.095 31.9912 219.246L34.8472 215.284H36.3732L33.4472 219.274L32.9712 219.526C33.0832 219.33 33.2185 219.167 33.3772 219.036C33.5358 218.896 33.7318 218.789 33.9652 218.714C34.1985 218.639 34.4738 218.602 34.7912 218.602C35.3605 218.602 35.8738 218.737 36.3312 219.008C36.7978 219.279 37.1712 219.652 37.4512 220.128C37.7405 220.595 37.8852 221.141 37.8852 221.766C37.8852 222.382 37.7312 222.947 37.4232 223.46C37.1245 223.973 36.7138 224.384 36.1912 224.692C35.6778 224.991 35.1085 225.14 34.4832 225.14ZM34.4832 223.908C34.8752 223.908 35.2252 223.815 35.5332 223.628C35.8505 223.432 36.0978 223.175 36.2752 222.858C36.4618 222.531 36.5552 222.167 36.5552 221.766C36.5552 221.365 36.4618 221.005 36.2752 220.688C36.0978 220.361 35.8505 220.105 35.5332 219.918C35.2252 219.731 34.8752 219.638 34.4832 219.638C34.0912 219.638 33.7365 219.731 33.4192 219.918C33.1112 220.105 32.8638 220.361 32.6772 220.688C32.4998 221.005 32.4112 221.365 32.4112 221.766C32.4112 222.167 32.4998 222.531 32.6772 222.858C32.8638 223.185 33.1112 223.441 33.4192 223.628C33.7365 223.815 34.0912 223.908 34.4832 223.908ZM43.0575 225.14C42.3295 225.14 41.6622 224.935 41.0555 224.524C40.4582 224.113 39.9822 223.535 39.6275 222.788C39.2728 222.032 39.0955 221.145 39.0955 220.128C39.0955 219.111 39.2682 218.229 39.6135 217.482C39.9682 216.735 40.4442 216.161 41.0415 215.76C41.6388 215.349 42.2968 215.144 43.0155 215.144C43.7528 215.144 44.4202 215.349 45.0175 215.76C45.6148 216.161 46.0862 216.735 46.4315 217.482C46.7862 218.229 46.9635 219.115 46.9635 220.142C46.9635 221.159 46.7862 222.046 46.4315 222.802C46.0862 223.549 45.6148 224.127 45.0175 224.538C44.4295 224.939 43.7762 225.14 43.0575 225.14ZM43.0295 223.894C43.5428 223.894 43.9908 223.754 44.3735 223.474C44.7655 223.185 45.0735 222.76 45.2975 222.2C45.5215 221.64 45.6335 220.949 45.6335 220.128C45.6335 219.307 45.5215 218.621 45.2975 218.07C45.0735 217.51 44.7655 217.09 44.3735 216.81C43.9815 216.521 43.5288 216.376 43.0155 216.376C42.5115 216.376 42.0635 216.521 41.6715 216.81C41.2795 217.09 40.9715 217.51 40.7475 218.07C40.5328 218.621 40.4255 219.307 40.4255 220.128C40.4255 220.949 40.5328 221.64 40.7475 222.2C40.9715 222.76 41.2795 223.185 41.6715 223.474C42.0635 223.754 42.5162 223.894 43.0295 223.894ZM52.245 225.14C51.517 225.14 50.8497 224.935 50.243 224.524C49.6457 224.113 49.1697 223.535 48.815 222.788C48.4603 222.032 48.283 221.145 48.283 220.128C48.283 219.111 48.4557 218.229 48.801 217.482C49.1557 216.735 49.6317 216.161 50.229 215.76C50.8263 215.349 51.4843 215.144 52.203 215.144C52.9403 215.144 53.6077 215.349 54.205 215.76C54.8023 216.161 55.2737 216.735 55.619 217.482C55.9737 218.229 56.151 219.115 56.151 220.142C56.151 221.159 55.9737 222.046 55.619 222.802C55.2737 223.549 54.8023 224.127 54.205 224.538C53.617 224.939 52.9637 225.14 52.245 225.14ZM52.217 223.894C52.7303 223.894 53.1783 223.754 53.561 223.474C53.953 223.185 54.261 222.76 54.485 222.2C54.709 221.64 54.821 220.949 54.821 220.128C54.821 219.307 54.709 218.621 54.485 218.07C54.261 217.51 53.953 217.09 53.561 216.81C53.169 216.521 52.7163 216.376 52.203 216.376C51.699 216.376 51.251 216.521 50.859 216.81C50.467 217.09 50.159 217.51 49.935 218.07C49.7203 218.621 49.613 219.307 49.613 220.128C49.613 220.949 49.7203 221.64 49.935 222.2C50.159 222.76 50.467 223.185 50.859 223.474C51.251 223.754 51.7037 223.894 52.217 223.894ZM61.4325 225.14C60.7045 225.14 60.0372 224.935 59.4305 224.524C58.8332 224.113 58.3572 223.535 58.0025 222.788C57.6478 222.032 57.4705 221.145 57.4705 220.128C57.4705 219.111 57.6432 218.229 57.9885 217.482C58.3432 216.735 58.8192 216.161 59.4165 215.76C60.0138 215.349 60.6718 215.144 61.3905 215.144C62.1278 215.144 62.7952 215.349 63.3925 215.76C63.9898 216.161 64.4612 216.735 64.8065 217.482C65.1612 218.229 65.3385 219.115 65.3385 220.142C65.3385 221.159 65.1612 222.046 64.8065 222.802C64.4612 223.549 63.9898 224.127 63.3925 224.538C62.8045 224.939 62.1512 225.14 61.4325 225.14ZM61.4045 223.894C61.9178 223.894 62.3658 223.754 62.7485 223.474C63.1405 223.185 63.4485 222.76 63.6725 222.2C63.8965 221.64 64.0085 220.949 64.0085 220.128C64.0085 219.307 63.8965 218.621 63.6725 218.07C63.4485 217.51 63.1405 217.09 62.7485 216.81C62.3565 216.521 61.9038 216.376 61.3905 216.376C60.8865 216.376 60.4385 216.521 60.0465 216.81C59.6545 217.09 59.3465 217.51 59.1225 218.07C58.9078 218.621 58.8005 219.307 58.8005 220.128C58.8005 220.949 58.9078 221.64 59.1225 222.2C59.3465 222.76 59.6545 223.185 60.0465 223.474C60.4385 223.754 60.8912 223.894 61.4045 223.894Z" fill="#787878"/>
<path d="M34.5902 159.14C33.9462 159.14 33.3769 159.019 32.8822 158.776C32.3969 158.533 32.0189 158.197 31.7482 157.768C31.4776 157.339 31.3422 156.853 31.3422 156.312C31.3422 155.873 31.4262 155.472 31.5942 155.108C31.7622 154.744 32.0096 154.436 32.3362 154.184C32.6629 153.923 33.0456 153.736 33.4842 153.624L33.5262 154.002C33.1529 153.899 32.8356 153.736 32.5742 153.512C32.3129 153.279 32.1122 153.008 31.9722 152.7C31.8416 152.383 31.7762 152.047 31.7762 151.692C31.7762 151.188 31.8976 150.745 32.1402 150.362C32.3829 149.979 32.7142 149.681 33.1342 149.466C33.5636 149.242 34.0489 149.13 34.5902 149.13C35.1409 149.13 35.6262 149.242 36.0462 149.466C36.4662 149.681 36.7976 149.979 37.0402 150.362C37.2829 150.745 37.4042 151.188 37.4042 151.692C37.4042 152.047 37.3342 152.383 37.1942 152.7C37.0636 153.008 36.8676 153.279 36.6062 153.512C36.3542 153.736 36.0416 153.899 35.6682 154.002L35.6962 153.624C36.1442 153.736 36.5269 153.923 36.8442 154.184C37.1709 154.436 37.4182 154.744 37.5862 155.108C37.7636 155.472 37.8522 155.873 37.8522 156.312C37.8522 156.853 37.7169 157.339 37.4462 157.768C37.1756 158.197 36.7929 158.533 36.2982 158.776C35.8129 159.019 35.2436 159.14 34.5902 159.14ZM34.5902 157.95C34.9822 157.95 35.3229 157.875 35.6122 157.726C35.9109 157.567 36.1442 157.353 36.3122 157.082C36.4896 156.811 36.5782 156.499 36.5782 156.144C36.5782 155.799 36.4896 155.491 36.3122 155.22C36.1442 154.949 35.9109 154.739 35.6122 154.59C35.3229 154.431 34.9822 154.352 34.5902 154.352C34.2076 154.352 33.8669 154.431 33.5682 154.59C33.2696 154.739 33.0316 154.949 32.8542 155.22C32.6862 155.491 32.6022 155.799 32.6022 156.144C32.6022 156.499 32.6862 156.811 32.8542 157.082C33.0316 157.353 33.2696 157.567 33.5682 157.726C33.8669 157.875 34.2076 157.95 34.5902 157.95ZM34.5902 153.33C35.0569 153.33 35.4396 153.185 35.7382 152.896C36.0369 152.607 36.1862 152.233 36.1862 151.776C36.1862 151.328 36.0369 150.964 35.7382 150.684C35.4396 150.395 35.0569 150.25 34.5902 150.25C34.1329 150.25 33.7549 150.395 33.4562 150.684C33.1576 150.964 33.0082 151.328 33.0082 151.776C33.0082 152.233 33.1576 152.607 33.4562 152.896C33.7549 153.185 34.1329 153.33 34.5902 153.33ZM43.0575 159.14C42.3295 159.14 41.6622 158.935 41.0555 158.524C40.4582 158.113 39.9822 157.535 39.6275 156.788C39.2728 156.032 39.0955 155.145 39.0955 154.128C39.0955 153.111 39.2682 152.229 39.6135 151.482C39.9682 150.735 40.4442 150.161 41.0415 149.76C41.6388 149.349 42.2968 149.144 43.0155 149.144C43.7528 149.144 44.4202 149.349 45.0175 149.76C45.6148 150.161 46.0862 150.735 46.4315 151.482C46.7862 152.229 46.9635 153.115 46.9635 154.142C46.9635 155.159 46.7862 156.046 46.4315 156.802C46.0862 157.549 45.6148 158.127 45.0175 158.538C44.4295 158.939 43.7762 159.14 43.0575 159.14ZM43.0295 157.894C43.5428 157.894 43.9908 157.754 44.3735 157.474C44.7655 157.185 45.0735 156.76 45.2975 156.2C45.5215 155.64 45.6335 154.949 45.6335 154.128C45.6335 153.307 45.5215 152.621 45.2975 152.07C45.0735 151.51 44.7655 151.09 44.3735 150.81C43.9815 150.521 43.5288 150.376 43.0155 150.376C42.5115 150.376 42.0635 150.521 41.6715 150.81C41.2795 151.09 40.9715 151.51 40.7475 152.07C40.5328 152.621 40.4255 153.307 40.4255 154.128C40.4255 154.949 40.5328 155.64 40.7475 156.2C40.9715 156.76 41.2795 157.185 41.6715 157.474C42.0635 157.754 42.5162 157.894 43.0295 157.894ZM52.245 159.14C51.517 159.14 50.8497 158.935 50.243 158.524C49.6457 158.113 49.1697 157.535 48.815 156.788C48.4603 156.032 48.283 155.145 48.283 154.128C48.283 153.111 48.4557 152.229 48.801 151.482C49.1557 150.735 49.6317 150.161 50.229 149.76C50.8263 149.349 51.4843 149.144 52.203 149.144C52.9403 149.144 53.6077 149.349 54.205 149.76C54.8023 150.161 55.2737 150.735 55.619 151.482C55.9737 152.229 56.151 153.115 56.151 154.142C56.151 155.159 55.9737 156.046 55.619 156.802C55.2737 157.549 54.8023 158.127 54.205 158.538C53.617 158.939 52.9637 159.14 52.245 159.14ZM52.217 157.894C52.7303 157.894 53.1783 157.754 53.561 157.474C53.953 157.185 54.261 156.76 54.485 156.2C54.709 155.64 54.821 154.949 54.821 154.128C54.821 153.307 54.709 152.621 54.485 152.07C54.261 151.51 53.953 151.09 53.561 150.81C53.169 150.521 52.7163 150.376 52.203 150.376C51.699 150.376 51.251 150.521 50.859 150.81C50.467 151.09 50.159 151.51 49.935 152.07C49.7203 152.621 49.613 153.307 49.613 154.128C49.613 154.949 49.7203 155.64 49.935 156.2C50.159 156.76 50.467 157.185 50.859 157.474C51.251 157.754 51.7037 157.894 52.217 157.894ZM61.4325 159.14C60.7045 159.14 60.0372 158.935 59.4305 158.524C58.8332 158.113 58.3572 157.535 58.0025 156.788C57.6478 156.032 57.4705 155.145 57.4705 154.128C57.4705 153.111 57.6432 152.229 57.9885 151.482C58.3432 150.735 58.8192 150.161 59.4165 149.76C60.0138 149.349 60.6718 149.144 61.3905 149.144C62.1278 149.144 62.7952 149.349 63.3925 149.76C63.9898 150.161 64.4612 150.735 64.8065 151.482C65.1612 152.229 65.3385 153.115 65.3385 154.142C65.3385 155.159 65.1612 156.046 64.8065 156.802C64.4612 157.549 63.9898 158.127 63.3925 158.538C62.8045 158.939 62.1512 159.14 61.4325 159.14ZM61.4045 157.894C61.9178 157.894 62.3658 157.754 62.7485 157.474C63.1405 157.185 63.4485 156.76 63.6725 156.2C63.8965 155.64 64.0085 154.949 64.0085 154.128C64.0085 153.307 63.8965 152.621 63.6725 152.07C63.4485 151.51 63.1405 151.09 62.7485 150.81C62.3565 150.521 61.9038 150.376 61.3905 150.376C60.8865 150.376 60.4385 150.521 60.0465 150.81C59.6545 151.09 59.3465 151.51 59.1225 152.07C58.9078 152.621 58.8005 153.307 58.8005 154.128C58.8005 154.949 58.9078 155.64 59.1225 156.2C59.3465 156.76 59.6545 157.185 60.0465 157.474C60.4385 157.754 60.8912 157.894 61.4045 157.894Z" fill="#787878"/>
<path d="M26.8185 93V83.284H28.1205V93H26.8185ZM24.8305 84.46V83.284H27.9805V84.46H24.8305ZM33.87 93.14C33.142 93.14 32.4747 92.9347 31.868 92.524C31.2707 92.1133 30.7947 91.5347 30.44 90.788C30.0853 90.032 29.908 89.1453 29.908 88.128C29.908 87.1107 30.0807 86.2287 30.426 85.482C30.7807 84.7353 31.2567 84.1613 31.854 83.76C32.4513 83.3493 33.1093 83.144 33.828 83.144C34.5653 83.144 35.2327 83.3493 35.83 83.76C36.4273 84.1613 36.8987 84.7353 37.244 85.482C37.5987 86.2287 37.776 87.1153 37.776 88.142C37.776 89.1593 37.5987 90.046 37.244 90.802C36.8987 91.5487 36.4273 92.1273 35.83 92.538C35.242 92.9393 34.5887 93.14 33.87 93.14ZM33.842 91.894C34.3553 91.894 34.8033 91.754 35.186 91.474C35.578 91.1847 35.886 90.76 36.11 90.2C36.334 89.64 36.446 88.9493 36.446 88.128C36.446 87.3067 36.334 86.6207 36.11 86.07C35.886 85.51 35.578 85.09 35.186 84.81C34.794 84.5207 34.3413 84.376 33.828 84.376C33.324 84.376 32.876 84.5207 32.484 84.81C32.092 85.09 31.784 85.51 31.56 86.07C31.3453 86.6207 31.238 87.3067 31.238 88.128C31.238 88.9493 31.3453 89.64 31.56 90.2C31.784 90.76 32.092 91.1847 32.484 91.474C32.876 91.754 33.3287 91.894 33.842 91.894ZM43.0575 93.14C42.3295 93.14 41.6622 92.9347 41.0555 92.524C40.4582 92.1133 39.9822 91.5347 39.6275 90.788C39.2728 90.032 39.0955 89.1453 39.0955 88.128C39.0955 87.1107 39.2682 86.2287 39.6135 85.482C39.9682 84.7353 40.4442 84.1613 41.0415 83.76C41.6388 83.3493 42.2968 83.144 43.0155 83.144C43.7528 83.144 44.4202 83.3493 45.0175 83.76C45.6148 84.1613 46.0862 84.7353 46.4315 85.482C46.7862 86.2287 46.9635 87.1153 46.9635 88.142C46.9635 89.1593 46.7862 90.046 46.4315 90.802C46.0862 91.5487 45.6148 92.1273 45.0175 92.538C44.4295 92.9393 43.7762 93.14 43.0575 93.14ZM43.0295 91.894C43.5428 91.894 43.9908 91.754 44.3735 91.474C44.7655 91.1847 45.0735 90.76 45.2975 90.2C45.5215 89.64 45.6335 88.9493 45.6335 88.128C45.6335 87.3067 45.5215 86.6207 45.2975 86.07C45.0735 85.51 44.7655 85.09 44.3735 84.81C43.9815 84.5207 43.5288 84.376 43.0155 84.376C42.5115 84.376 42.0635 84.5207 41.6715 84.81C41.2795 85.09 40.9715 85.51 40.7475 86.07C40.5328 86.6207 40.4255 87.3067 40.4255 88.128C40.4255 88.9493 40.5328 89.64 40.7475 90.2C40.9715 90.76 41.2795 91.1847 41.6715 91.474C42.0635 91.754 42.5162 91.894 43.0295 91.894ZM52.245 93.14C51.517 93.14 50.8497 92.9347 50.243 92.524C49.6457 92.1133 49.1697 91.5347 48.815 90.788C48.4603 90.032 48.283 89.1453 48.283 88.128C48.283 87.1107 48.4557 86.2287 48.801 85.482C49.1557 84.7353 49.6317 84.1613 50.229 83.76C50.8263 83.3493 51.4843 83.144 52.203 83.144C52.9403 83.144 53.6077 83.3493 54.205 83.76C54.8023 84.1613 55.2737 84.7353 55.619 85.482C55.9737 86.2287 56.151 87.1153 56.151 88.142C56.151 89.1593 55.9737 90.046 55.619 90.802C55.2737 91.5487 54.8023 92.1273 54.205 92.538C53.617 92.9393 52.9637 93.14 52.245 93.14ZM52.217 91.894C52.7303 91.894 53.1783 91.754 53.561 91.474C53.953 91.1847 54.261 90.76 54.485 90.2C54.709 89.64 54.821 88.9493 54.821 88.128C54.821 87.3067 54.709 86.6207 54.485 86.07C54.261 85.51 53.953 85.09 53.561 84.81C53.169 84.5207 52.7163 84.376 52.203 84.376C51.699 84.376 51.251 84.5207 50.859 84.81C50.467 85.09 50.159 85.51 49.935 86.07C49.7203 86.6207 49.613 87.3067 49.613 88.128C49.613 88.9493 49.7203 89.64 49.935 90.2C50.159 90.76 50.467 91.1847 50.859 91.474C51.251 91.754 51.7037 91.894 52.217 91.894ZM61.4325 93.14C60.7045 93.14 60.0372 92.9347 59.4305 92.524C58.8332 92.1133 58.3572 91.5347 58.0025 90.788C57.6478 90.032 57.4705 89.1453 57.4705 88.128C57.4705 87.1107 57.6432 86.2287 57.9885 85.482C58.3432 84.7353 58.8192 84.1613 59.4165 83.76C60.0138 83.3493 60.6718 83.144 61.3905 83.144C62.1278 83.144 62.7952 83.3493 63.3925 83.76C63.9898 84.1613 64.4612 84.7353 64.8065 85.482C65.1612 86.2287 65.3385 87.1153 65.3385 88.142C65.3385 89.1593 65.1612 90.046 64.8065 90.802C64.4612 91.5487 63.9898 92.1273 63.3925 92.538C62.8045 92.9393 62.1512 93.14 61.4325 93.14ZM61.4045 91.894C61.9178 91.894 62.3658 91.754 62.7485 91.474C63.1405 91.1847 63.4485 90.76 63.6725 90.2C63.8965 89.64 64.0085 88.9493 64.0085 88.128C64.0085 87.3067 63.8965 86.6207 63.6725 86.07C63.4485 85.51 63.1405 85.09 62.7485 84.81C62.3565 84.5207 61.9038 84.376 61.3905 84.376C60.8865 84.376 60.4385 84.5207 60.0465 84.81C59.6545 85.09 59.3465 85.51 59.1225 86.07C58.9078 86.6207 58.8005 87.3067 58.8005 88.128C58.8005 88.9493 58.9078 89.64 59.1225 90.2C59.3465 90.76 59.6545 91.1847 60.0465 91.474C60.4385 91.754 60.8912 91.894 61.4045 91.894Z" fill="#787878"/>
<line x1="78.5" y1="79" x2="78.5" y2="427" stroke="#979797"/>
<line x1="78" y1="427.5" x2="1142" y2="427.5" stroke="#979797"/>
<path d="M119.355 454V444.284H120.671V454H119.355ZM120.251 454V452.796H125.823V454H120.251ZM120.251 449.604V448.456H125.361V449.604H120.251ZM120.251 445.488V444.284H125.753V445.488H120.251ZM132.093 454V450.122C132.093 449.618 131.934 449.203 131.617 448.876C131.3 448.549 130.889 448.386 130.385 448.386C130.049 448.386 129.75 448.461 129.489 448.61C129.228 448.759 129.022 448.965 128.873 449.226C128.724 449.487 128.649 449.786 128.649 450.122L128.131 449.828C128.131 449.324 128.243 448.876 128.467 448.484C128.691 448.092 129.004 447.784 129.405 447.56C129.806 447.327 130.259 447.21 130.763 447.21C131.267 447.21 131.71 447.336 132.093 447.588C132.485 447.84 132.793 448.171 133.017 448.582C133.241 448.983 133.353 449.413 133.353 449.87V454H132.093ZM127.389 454V447.35H128.649V454H127.389ZM135.059 454V447.35H136.319V454H135.059ZM136.319 450.206L135.843 449.996C135.843 449.147 136.039 448.47 136.431 447.966C136.823 447.462 137.387 447.21 138.125 447.21C138.461 447.21 138.764 447.271 139.035 447.392C139.305 447.504 139.557 447.695 139.791 447.966L138.965 448.82C138.825 448.671 138.671 448.563 138.503 448.498C138.335 448.433 138.139 448.4 137.915 448.4C137.448 448.4 137.065 448.549 136.767 448.848C136.468 449.147 136.319 449.599 136.319 450.206ZM143.497 454.14C142.844 454.14 142.256 453.986 141.733 453.678C141.21 453.37 140.795 452.955 140.487 452.432C140.179 451.9 140.025 451.307 140.025 450.654C140.025 450.01 140.179 449.431 140.487 448.918C140.795 448.395 141.21 447.98 141.733 447.672C142.256 447.364 142.844 447.21 143.497 447.21C144.141 447.21 144.724 447.364 145.247 447.672C145.779 447.971 146.199 448.381 146.507 448.904C146.815 449.427 146.969 450.01 146.969 450.654C146.969 451.307 146.815 451.9 146.507 452.432C146.199 452.955 145.779 453.37 145.247 453.678C144.724 453.986 144.141 454.14 143.497 454.14ZM143.497 452.922C143.917 452.922 144.29 452.824 144.617 452.628C144.944 452.432 145.2 452.166 145.387 451.83C145.574 451.485 145.667 451.093 145.667 450.654C145.667 450.225 145.569 449.842 145.373 449.506C145.186 449.17 144.93 448.909 144.603 448.722C144.286 448.526 143.917 448.428 143.497 448.428C143.077 448.428 142.704 448.526 142.377 448.722C142.05 448.909 141.794 449.17 141.607 449.506C141.42 449.842 141.327 450.225 141.327 450.654C141.327 451.093 141.42 451.485 141.607 451.83C141.794 452.166 142.05 452.432 142.377 452.628C142.704 452.824 143.077 452.922 143.497 452.922ZM148.389 454V444.004H149.649V454H148.389ZM151.492 454V447.35H152.752V454H151.492ZM155.986 454V449.982C155.986 449.487 155.832 449.1 155.524 448.82C155.226 448.531 154.848 448.386 154.39 448.386C154.082 448.386 153.807 448.451 153.564 448.582C153.322 448.713 153.126 448.895 152.976 449.128C152.827 449.361 152.752 449.641 152.752 449.968L152.234 449.716C152.234 449.212 152.342 448.773 152.556 448.4C152.78 448.027 153.084 447.737 153.466 447.532C153.849 447.317 154.278 447.21 154.754 447.21C155.221 447.21 155.641 447.313 156.014 447.518C156.397 447.723 156.696 448.013 156.91 448.386C157.134 448.759 157.246 449.203 157.246 449.716V454H155.986ZM160.48 454V449.982C160.48 449.487 160.326 449.1 160.018 448.82C159.72 448.531 159.346 448.386 158.898 448.386C158.59 448.386 158.31 448.451 158.058 448.582C157.816 448.713 157.62 448.895 157.47 449.128C157.321 449.361 157.246 449.641 157.246 449.968L156.532 449.716C156.56 449.203 156.696 448.764 156.938 448.4C157.19 448.027 157.512 447.737 157.904 447.532C158.296 447.317 158.726 447.21 159.192 447.21C159.678 447.21 160.112 447.313 160.494 447.518C160.877 447.723 161.18 448.013 161.404 448.386C161.638 448.759 161.754 449.207 161.754 449.73V454H160.48ZM166.549 454.14C165.886 454.14 165.289 453.991 164.757 453.692C164.225 453.384 163.805 452.969 163.497 452.446C163.189 451.923 163.035 451.331 163.035 450.668C163.035 450.015 163.184 449.427 163.483 448.904C163.791 448.381 164.202 447.971 164.715 447.672C165.238 447.364 165.821 447.21 166.465 447.21C167.081 447.21 167.622 447.35 168.089 447.63C168.565 447.91 168.934 448.297 169.195 448.792C169.466 449.287 169.601 449.847 169.601 450.472C169.601 450.565 169.596 450.668 169.587 450.78C169.578 450.883 169.559 451.004 169.531 451.144H163.917V450.094H168.859L168.397 450.5C168.397 450.052 168.318 449.674 168.159 449.366C168 449.049 167.776 448.806 167.487 448.638C167.198 448.461 166.848 448.372 166.437 448.372C166.008 448.372 165.63 448.465 165.303 448.652C164.976 448.839 164.724 449.1 164.547 449.436C164.37 449.772 164.281 450.169 164.281 450.626C164.281 451.093 164.374 451.503 164.561 451.858C164.748 452.203 165.014 452.474 165.359 452.67C165.704 452.857 166.101 452.95 166.549 452.95C166.922 452.95 167.263 452.885 167.571 452.754C167.888 452.623 168.159 452.427 168.383 452.166L169.195 452.992C168.878 453.365 168.486 453.65 168.019 453.846C167.562 454.042 167.072 454.14 166.549 454.14ZM175.679 454V450.122C175.679 449.618 175.52 449.203 175.203 448.876C174.885 448.549 174.475 448.386 173.971 448.386C173.635 448.386 173.336 448.461 173.075 448.61C172.813 448.759 172.608 448.965 172.459 449.226C172.309 449.487 172.235 449.786 172.235 450.122L171.717 449.828C171.717 449.324 171.829 448.876 172.053 448.484C172.277 448.092 172.589 447.784 172.991 447.56C173.392 447.327 173.845 447.21 174.349 447.21C174.853 447.21 175.296 447.336 175.679 447.588C176.071 447.84 176.379 448.171 176.603 448.582C176.827 448.983 176.939 449.413 176.939 449.87V454H175.679ZM170.975 454V447.35H172.235V454H170.975ZM179.585 454V444.564H180.845V454H179.585ZM177.947 448.498V447.35H182.483V448.498H177.947Z" fill="#787878"/>
<path d="M341.735 454.14C341.035 454.14 340.386 454.014 339.789 453.762C339.191 453.501 338.669 453.141 338.221 452.684C337.782 452.227 337.441 451.695 337.199 451.088C336.956 450.481 336.835 449.833 336.835 449.142C336.835 448.442 336.956 447.789 337.199 447.182C337.441 446.575 337.782 446.048 338.221 445.6C338.669 445.143 339.187 444.788 339.775 444.536C340.372 444.275 341.021 444.144 341.721 444.144C342.486 444.144 343.158 444.275 343.737 444.536C344.315 444.797 344.829 445.152 345.277 445.6L344.367 446.51C344.059 446.165 343.681 445.894 343.233 445.698C342.794 445.502 342.29 445.404 341.721 445.404C341.207 445.404 340.736 445.497 340.307 445.684C339.877 445.861 339.504 446.118 339.187 446.454C338.869 446.79 338.622 447.187 338.445 447.644C338.277 448.101 338.193 448.601 338.193 449.142C338.193 449.683 338.277 450.183 338.445 450.64C338.622 451.097 338.869 451.494 339.187 451.83C339.504 452.166 339.877 452.427 340.307 452.614C340.736 452.791 341.207 452.88 341.721 452.88C342.327 452.88 342.855 452.782 343.303 452.586C343.751 452.381 344.129 452.105 344.437 451.76L345.347 452.656C344.899 453.123 344.371 453.487 343.765 453.748C343.167 454.009 342.491 454.14 341.735 454.14ZM349.545 454.14C348.892 454.14 348.304 453.986 347.781 453.678C347.258 453.37 346.843 452.955 346.535 452.432C346.227 451.9 346.073 451.307 346.073 450.654C346.073 450.01 346.227 449.431 346.535 448.918C346.843 448.395 347.258 447.98 347.781 447.672C348.304 447.364 348.892 447.21 349.545 447.21C350.189 447.21 350.772 447.364 351.295 447.672C351.827 447.971 352.247 448.381 352.555 448.904C352.863 449.427 353.017 450.01 353.017 450.654C353.017 451.307 352.863 451.9 352.555 452.432C352.247 452.955 351.827 453.37 351.295 453.678C350.772 453.986 350.189 454.14 349.545 454.14ZM349.545 452.922C349.965 452.922 350.338 452.824 350.665 452.628C350.992 452.432 351.248 452.166 351.435 451.83C351.622 451.485 351.715 451.093 351.715 450.654C351.715 450.225 351.617 449.842 351.421 449.506C351.234 449.17 350.978 448.909 350.651 448.722C350.334 448.526 349.965 448.428 349.545 448.428C349.125 448.428 348.752 448.526 348.425 448.722C348.098 448.909 347.842 449.17 347.655 449.506C347.468 449.842 347.375 450.225 347.375 450.654C347.375 451.093 347.468 451.485 347.655 451.83C347.842 452.166 348.098 452.432 348.425 452.628C348.752 452.824 349.125 452.922 349.545 452.922ZM354.437 454V447.35H355.697V454H354.437ZM358.931 454V449.982C358.931 449.487 358.777 449.1 358.469 448.82C358.17 448.531 357.792 448.386 357.335 448.386C357.027 448.386 356.751 448.451 356.509 448.582C356.266 448.713 356.07 448.895 355.921 449.128C355.771 449.361 355.697 449.641 355.697 449.968L355.179 449.716C355.179 449.212 355.286 448.773 355.501 448.4C355.725 448.027 356.028 447.737 356.411 447.532C356.793 447.317 357.223 447.21 357.699 447.21C358.165 447.21 358.585 447.313 358.959 447.518C359.341 447.723 359.64 448.013 359.855 448.386C360.079 448.759 360.191 449.203 360.191 449.716V454H358.931ZM363.425 454V449.982C363.425 449.487 363.271 449.1 362.963 448.82C362.664 448.531 362.291 448.386 361.843 448.386C361.535 448.386 361.255 448.451 361.003 448.582C360.76 448.713 360.564 448.895 360.415 449.128C360.265 449.361 360.191 449.641 360.191 449.968L359.477 449.716C359.505 449.203 359.64 448.764 359.883 448.4C360.135 448.027 360.457 447.737 360.849 447.532C361.241 447.317 361.67 447.21 362.137 447.21C362.622 447.21 363.056 447.313 363.439 447.518C363.821 447.723 364.125 448.013 364.349 448.386C364.582 448.759 364.699 449.207 364.699 449.73V454H363.425ZM369.913 454.14C369.409 454.14 368.952 454.037 368.541 453.832C368.14 453.617 367.818 453.323 367.575 452.95C367.333 452.577 367.197 452.152 367.169 451.676V449.674C367.197 449.189 367.333 448.764 367.575 448.4C367.827 448.027 368.154 447.737 368.555 447.532C368.966 447.317 369.419 447.21 369.913 447.21C370.52 447.21 371.066 447.364 371.551 447.672C372.046 447.98 372.433 448.395 372.713 448.918C372.993 449.441 373.133 450.029 373.133 450.682C373.133 451.335 372.993 451.923 372.713 452.446C372.433 452.969 372.046 453.384 371.551 453.692C371.066 453.991 370.52 454.14 369.913 454.14ZM366.413 456.786V447.35H367.673V449.1L367.435 450.71L367.673 452.334V456.786H366.413ZM369.703 452.95C370.123 452.95 370.492 452.852 370.809 452.656C371.127 452.46 371.379 452.194 371.565 451.858C371.752 451.513 371.845 451.116 371.845 450.668C371.845 450.229 371.752 449.837 371.565 449.492C371.379 449.147 371.127 448.881 370.809 448.694C370.492 448.498 370.128 448.4 369.717 448.4C369.297 448.4 368.929 448.498 368.611 448.694C368.294 448.881 368.047 449.147 367.869 449.492C367.692 449.837 367.603 450.234 367.603 450.682C367.603 451.121 367.687 451.513 367.855 451.858C368.033 452.194 368.28 452.46 368.597 452.656C368.924 452.852 369.293 452.95 369.703 452.95ZM374.562 454V444.004H375.822V454H374.562ZM380.745 454.14C380.083 454.14 379.485 453.991 378.953 453.692C378.421 453.384 378.001 452.969 377.693 452.446C377.385 451.923 377.231 451.331 377.231 450.668C377.231 450.015 377.381 449.427 377.679 448.904C377.987 448.381 378.398 447.971 378.911 447.672C379.434 447.364 380.017 447.21 380.661 447.21C381.277 447.21 381.819 447.35 382.285 447.63C382.761 447.91 383.13 448.297 383.391 448.792C383.662 449.287 383.797 449.847 383.797 450.472C383.797 450.565 383.793 450.668 383.783 450.78C383.774 450.883 383.755 451.004 383.727 451.144H378.113V450.094H383.055L382.593 450.5C382.593 450.052 382.514 449.674 382.355 449.366C382.197 449.049 381.973 448.806 381.683 448.638C381.394 448.461 381.044 448.372 380.633 448.372C380.204 448.372 379.826 448.465 379.499 448.652C379.173 448.839 378.921 449.1 378.743 449.436C378.566 449.772 378.477 450.169 378.477 450.626C378.477 451.093 378.571 451.503 378.757 451.858C378.944 452.203 379.21 452.474 379.555 452.67C379.901 452.857 380.297 452.95 380.745 452.95C381.119 452.95 381.459 452.885 381.767 452.754C382.085 452.623 382.355 452.427 382.579 452.166L383.391 452.992C383.074 453.365 382.682 453.65 382.215 453.846C381.758 454.042 381.268 454.14 380.745 454.14ZM385.988 454V444.564H387.248V454H385.988ZM384.35 448.498V447.35H388.886V448.498H384.35ZM390.134 454V447.35H391.394V454H390.134ZM390.764 446.02C390.531 446.02 390.34 445.945 390.19 445.796C390.041 445.637 389.966 445.441 389.966 445.208C389.966 444.984 390.041 444.797 390.19 444.648C390.34 444.489 390.531 444.41 390.764 444.41C390.998 444.41 391.189 444.489 391.338 444.648C391.488 444.797 391.562 444.984 391.562 445.208C391.562 445.441 391.488 445.637 391.338 445.796C391.189 445.945 390.998 446.02 390.764 446.02ZM396.289 454.14C395.636 454.14 395.048 453.986 394.525 453.678C394.002 453.37 393.587 452.955 393.279 452.432C392.971 451.9 392.817 451.307 392.817 450.654C392.817 450.01 392.971 449.431 393.279 448.918C393.587 448.395 394.002 447.98 394.525 447.672C395.048 447.364 395.636 447.21 396.289 447.21C396.933 447.21 397.516 447.364 398.039 447.672C398.571 447.971 398.991 448.381 399.299 448.904C399.607 449.427 399.761 450.01 399.761 450.654C399.761 451.307 399.607 451.9 399.299 452.432C398.991 452.955 398.571 453.37 398.039 453.678C397.516 453.986 396.933 454.14 396.289 454.14ZM396.289 452.922C396.709 452.922 397.082 452.824 397.409 452.628C397.736 452.432 397.992 452.166 398.179 451.83C398.366 451.485 398.459 451.093 398.459 450.654C398.459 450.225 398.361 449.842 398.165 449.506C397.978 449.17 397.722 448.909 397.395 448.722C397.078 448.526 396.709 448.428 396.289 448.428C395.869 448.428 395.496 448.526 395.169 448.722C394.842 448.909 394.586 449.17 394.399 449.506C394.212 449.842 394.119 450.225 394.119 450.654C394.119 451.093 394.212 451.485 394.399 451.83C394.586 452.166 394.842 452.432 395.169 452.628C395.496 452.824 395.869 452.922 396.289 452.922ZM405.885 454V450.122C405.885 449.618 405.726 449.203 405.409 448.876C405.092 448.549 404.681 448.386 404.177 448.386C403.841 448.386 403.542 448.461 403.281 448.61C403.02 448.759 402.814 448.965 402.665 449.226C402.516 449.487 402.441 449.786 402.441 450.122L401.923 449.828C401.923 449.324 402.035 448.876 402.259 448.484C402.483 448.092 402.796 447.784 403.197 447.56C403.598 447.327 404.051 447.21 404.555 447.21C405.059 447.21 405.502 447.336 405.885 447.588C406.277 447.84 406.585 448.171 406.809 448.582C407.033 448.983 407.145 449.413 407.145 449.87V454H405.885ZM401.181 454V447.35H402.441V454H401.181ZM412.869 449.772V448.666H415.501C416.07 448.666 416.509 448.521 416.817 448.232C417.125 447.943 417.279 447.551 417.279 447.056C417.279 446.589 417.125 446.202 416.817 445.894C416.518 445.586 416.084 445.432 415.515 445.432H412.869V444.284H415.557C416.173 444.284 416.71 444.405 417.167 444.648C417.624 444.881 417.974 445.203 418.217 445.614C418.469 446.025 418.595 446.496 418.595 447.028C418.595 447.579 418.469 448.059 418.217 448.47C417.974 448.881 417.624 449.203 417.167 449.436C416.71 449.66 416.173 449.772 415.557 449.772H412.869ZM411.987 454V444.284H413.303V454H411.987ZM417.587 454L414.059 449.646L415.305 449.212L419.253 454H417.587ZM422.999 454.14C422.392 454.14 421.842 453.991 421.347 453.692C420.852 453.384 420.46 452.969 420.171 452.446C419.891 451.923 419.751 451.335 419.751 450.682C419.751 450.029 419.891 449.441 420.171 448.918C420.46 448.395 420.848 447.98 421.333 447.672C421.828 447.364 422.383 447.21 422.999 447.21C423.503 447.21 423.951 447.317 424.343 447.532C424.744 447.737 425.066 448.027 425.309 448.4C425.552 448.764 425.687 449.189 425.715 449.674V451.676C425.687 452.152 425.552 452.577 425.309 452.95C425.076 453.323 424.758 453.617 424.357 453.832C423.965 454.037 423.512 454.14 422.999 454.14ZM423.209 452.95C423.834 452.95 424.338 452.74 424.721 452.32C425.104 451.891 425.295 451.345 425.295 450.682C425.295 450.225 425.206 449.828 425.029 449.492C424.861 449.147 424.618 448.881 424.301 448.694C423.984 448.498 423.615 448.4 423.195 448.4C422.775 448.4 422.402 448.498 422.075 448.694C421.758 448.89 421.506 449.161 421.319 449.506C421.142 449.842 421.053 450.229 421.053 450.668C421.053 451.116 421.142 451.513 421.319 451.858C421.506 452.194 421.762 452.46 422.089 452.656C422.416 452.852 422.789 452.95 423.209 452.95ZM425.211 454V452.208L425.449 450.584L425.211 448.974V447.35H426.485V454H425.211ZM429.314 454V444.564H430.574V454H429.314ZM427.676 448.498V447.35H432.212V448.498H427.676ZM436.321 454.14C435.659 454.14 435.061 453.991 434.529 453.692C433.997 453.384 433.577 452.969 433.269 452.446C432.961 451.923 432.807 451.331 432.807 450.668C432.807 450.015 432.957 449.427 433.255 448.904C433.563 448.381 433.974 447.971 434.487 447.672C435.01 447.364 435.593 447.21 436.237 447.21C436.853 447.21 437.395 447.35 437.861 447.63C438.337 447.91 438.706 448.297 438.967 448.792C439.238 449.287 439.373 449.847 439.373 450.472C439.373 450.565 439.369 450.668 439.359 450.78C439.35 450.883 439.331 451.004 439.303 451.144H433.689V450.094H438.631L438.169 450.5C438.169 450.052 438.09 449.674 437.931 449.366C437.773 449.049 437.549 448.806 437.259 448.638C436.97 448.461 436.62 448.372 436.209 448.372C435.78 448.372 435.402 448.465 435.075 448.652C434.749 448.839 434.497 449.1 434.319 449.436C434.142 449.772 434.053 450.169 434.053 450.626C434.053 451.093 434.147 451.503 434.333 451.858C434.52 452.203 434.786 452.474 435.131 452.67C435.477 452.857 435.873 452.95 436.321 452.95C436.695 452.95 437.035 452.885 437.343 452.754C437.661 452.623 437.931 452.427 438.155 452.166L438.967 452.992C438.65 453.365 438.258 453.65 437.791 453.846C437.334 454.042 436.844 454.14 436.321 454.14Z" fill="#787878"/>
<path d="M595.31 454V452.796H598.012C598.731 452.796 599.361 452.642 599.902 452.334C600.443 452.017 600.863 451.583 601.162 451.032C601.47 450.481 601.624 449.847 601.624 449.128C601.624 448.419 601.47 447.789 601.162 447.238C600.854 446.687 600.429 446.258 599.888 445.95C599.347 445.642 598.721 445.488 598.012 445.488H595.324V444.284H598.04C598.749 444.284 599.403 444.405 600 444.648C600.607 444.891 601.129 445.231 601.568 445.67C602.016 446.109 602.361 446.622 602.604 447.21C602.856 447.798 602.982 448.442 602.982 449.142C602.982 449.833 602.856 450.477 602.604 451.074C602.361 451.662 602.021 452.175 601.582 452.614C601.143 453.053 600.621 453.393 600.014 453.636C599.417 453.879 598.768 454 598.068 454H595.31ZM594.442 454V444.284H595.758V454H594.442ZM604.581 454V447.35H605.841V454H604.581ZM605.841 450.206L605.365 449.996C605.365 449.147 605.561 448.47 605.953 447.966C606.345 447.462 606.91 447.21 607.647 447.21C607.983 447.21 608.287 447.271 608.557 447.392C608.828 447.504 609.08 447.695 609.313 447.966L608.487 448.82C608.347 448.671 608.193 448.563 608.025 448.498C607.857 448.433 607.661 448.4 607.437 448.4C606.971 448.4 606.588 448.549 606.289 448.848C605.991 449.147 605.841 449.599 605.841 450.206ZM613.02 454.14C612.366 454.14 611.778 453.986 611.256 453.678C610.733 453.37 610.318 452.955 610.01 452.432C609.702 451.9 609.548 451.307 609.548 450.654C609.548 450.01 609.702 449.431 610.01 448.918C610.318 448.395 610.733 447.98 611.256 447.672C611.778 447.364 612.366 447.21 613.02 447.21C613.664 447.21 614.247 447.364 614.77 447.672C615.302 447.971 615.722 448.381 616.03 448.904C616.338 449.427 616.492 450.01 616.492 450.654C616.492 451.307 616.338 451.9 616.03 452.432C615.722 452.955 615.302 453.37 614.77 453.678C614.247 453.986 613.664 454.14 613.02 454.14ZM613.02 452.922C613.44 452.922 613.813 452.824 614.14 452.628C614.466 452.432 614.723 452.166 614.91 451.83C615.096 451.485 615.19 451.093 615.19 450.654C615.19 450.225 615.092 449.842 614.896 449.506C614.709 449.17 614.452 448.909 614.126 448.722C613.808 448.526 613.44 448.428 613.02 448.428C612.6 448.428 612.226 448.526 611.9 448.722C611.573 448.909 611.316 449.17 611.13 449.506C610.943 449.842 610.85 450.225 610.85 450.654C610.85 451.093 610.943 451.485 611.13 451.83C611.316 452.166 611.573 452.432 611.9 452.628C612.226 452.824 612.6 452.922 613.02 452.922ZM621.411 454.14C620.907 454.14 620.45 454.037 620.039 453.832C619.638 453.617 619.316 453.323 619.073 452.95C618.831 452.577 618.695 452.152 618.667 451.676V449.674C618.695 449.189 618.831 448.764 619.073 448.4C619.325 448.027 619.652 447.737 620.053 447.532C620.464 447.317 620.917 447.21 621.411 447.21C622.018 447.21 622.564 447.364 623.049 447.672C623.544 447.98 623.931 448.395 624.211 448.918C624.491 449.441 624.631 450.029 624.631 450.682C624.631 451.335 624.491 451.923 624.211 452.446C623.931 452.969 623.544 453.384 623.049 453.692C622.564 453.991 622.018 454.14 621.411 454.14ZM617.911 456.786V447.35H619.171V449.1L618.933 450.71L619.171 452.334V456.786H617.911ZM621.201 452.95C621.621 452.95 621.99 452.852 622.307 452.656C622.625 452.46 622.877 452.194 623.063 451.858C623.25 451.513 623.343 451.116 623.343 450.668C623.343 450.229 623.25 449.837 623.063 449.492C622.877 449.147 622.625 448.881 622.307 448.694C621.99 448.498 621.626 448.4 621.215 448.4C620.795 448.4 620.427 448.498 620.109 448.694C619.792 448.881 619.545 449.147 619.367 449.492C619.19 449.837 619.101 450.234 619.101 450.682C619.101 451.121 619.185 451.513 619.353 451.858C619.531 452.194 619.778 452.46 620.095 452.656C620.422 452.852 620.791 452.95 621.201 452.95ZM633.62 454.14C632.929 454.14 632.285 454.014 631.688 453.762C631.091 453.501 630.568 453.141 630.12 452.684C629.672 452.217 629.322 451.681 629.07 451.074C628.827 450.467 628.706 449.819 628.706 449.128C628.706 448.428 628.827 447.779 629.07 447.182C629.322 446.575 629.667 446.043 630.106 445.586C630.554 445.129 631.072 444.774 631.66 444.522C632.257 444.27 632.901 444.144 633.592 444.144C634.283 444.144 634.922 444.27 635.51 444.522C636.107 444.774 636.63 445.129 637.078 445.586C637.526 446.043 637.876 446.575 638.128 447.182C638.38 447.789 638.506 448.442 638.506 449.142C638.506 449.833 638.38 450.481 638.128 451.088C637.876 451.695 637.526 452.227 637.078 452.684C636.639 453.141 636.121 453.501 635.524 453.762C634.936 454.014 634.301 454.14 633.62 454.14ZM633.592 452.88C634.292 452.88 634.903 452.721 635.426 452.404C635.958 452.077 636.378 451.634 636.686 451.074C636.994 450.505 637.148 449.856 637.148 449.128C637.148 448.587 637.059 448.092 636.882 447.644C636.705 447.187 636.457 446.79 636.14 446.454C635.823 446.118 635.449 445.861 635.02 445.684C634.591 445.497 634.115 445.404 633.592 445.404C632.901 445.404 632.29 445.563 631.758 445.88C631.235 446.197 630.82 446.636 630.512 447.196C630.213 447.756 630.064 448.4 630.064 449.128C630.064 449.669 630.148 450.173 630.316 450.64C630.493 451.097 630.736 451.494 631.044 451.83C631.361 452.157 631.735 452.413 632.164 452.6C632.603 452.787 633.079 452.88 633.592 452.88ZM641.039 454V446.622C641.039 446.109 641.146 445.661 641.361 445.278C641.585 444.886 641.893 444.578 642.285 444.354C642.677 444.121 643.13 444.004 643.643 444.004C644.166 444.004 644.595 444.116 644.931 444.34C645.267 444.564 645.514 444.872 645.673 445.264C645.841 445.647 645.925 446.081 645.925 446.566H645.001C644.992 446.137 644.875 445.796 644.651 445.544C644.427 445.283 644.091 445.152 643.643 445.152C643.204 445.152 642.868 445.283 642.635 445.544C642.411 445.796 642.299 446.146 642.299 446.594V454H641.039ZM639.401 448.498V447.35H648.375V448.498H639.401ZM645.001 454V446.356C645.001 445.861 645.108 445.432 645.323 445.068C645.538 444.695 645.832 444.401 646.205 444.186C646.588 443.971 647.031 443.864 647.535 443.864C647.918 443.864 648.249 443.929 648.529 444.06C648.809 444.191 649.066 444.382 649.299 444.634L648.473 445.446C648.352 445.315 648.216 445.217 648.067 445.152C647.918 445.077 647.736 445.04 647.521 445.04C647.12 445.04 646.807 445.157 646.583 445.39C646.368 445.623 646.261 445.945 646.261 446.356V454H645.001Z" fill="#787878"/>
<path d="M805.894 454.14C805.129 454.14 804.475 454 803.934 453.72C803.393 453.44 802.912 453.034 802.492 452.502L803.388 451.606C803.696 452.035 804.051 452.362 804.452 452.586C804.853 452.801 805.348 452.908 805.936 452.908C806.515 452.908 806.977 452.782 807.322 452.53C807.677 452.278 807.854 451.933 807.854 451.494C807.854 451.13 807.77 450.836 807.602 450.612C807.434 450.388 807.205 450.206 806.916 450.066C806.636 449.917 806.328 449.786 805.992 449.674C805.656 449.553 805.32 449.427 804.984 449.296C804.648 449.156 804.34 448.988 804.06 448.792C803.78 448.587 803.551 448.321 803.374 447.994C803.206 447.667 803.122 447.257 803.122 446.762C803.122 446.211 803.253 445.745 803.514 445.362C803.785 444.97 804.149 444.671 804.606 444.466C805.073 444.251 805.595 444.144 806.174 444.144C806.809 444.144 807.378 444.27 807.882 444.522C808.386 444.765 808.797 445.087 809.114 445.488L808.218 446.384C807.929 446.048 807.616 445.796 807.28 445.628C806.953 445.46 806.575 445.376 806.146 445.376C805.623 445.376 805.208 445.493 804.9 445.726C804.592 445.95 804.438 446.267 804.438 446.678C804.438 447.005 804.522 447.271 804.69 447.476C804.867 447.672 805.096 447.84 805.376 447.98C805.656 448.12 805.964 448.251 806.3 448.372C806.645 448.484 806.986 448.61 807.322 448.75C807.658 448.89 807.966 449.067 808.246 449.282C808.526 449.497 808.75 449.777 808.918 450.122C809.095 450.458 809.184 450.883 809.184 451.396C809.184 452.255 808.885 452.927 808.288 453.412C807.7 453.897 806.902 454.14 805.894 454.14ZM813.718 454.14C813.055 454.14 812.458 453.991 811.926 453.692C811.394 453.384 810.974 452.969 810.666 452.446C810.358 451.923 810.204 451.331 810.204 450.668C810.204 450.015 810.353 449.427 810.652 448.904C810.96 448.381 811.371 447.971 811.884 447.672C812.407 447.364 812.99 447.21 813.634 447.21C814.25 447.21 814.791 447.35 815.258 447.63C815.734 447.91 816.103 448.297 816.364 448.792C816.635 449.287 816.77 449.847 816.77 450.472C816.77 450.565 816.765 450.668 816.756 450.78C816.747 450.883 816.728 451.004 816.7 451.144H811.086V450.094H816.028L815.566 450.5C815.566 450.052 815.487 449.674 815.328 449.366C815.169 449.049 814.945 448.806 814.656 448.638C814.367 448.461 814.017 448.372 813.606 448.372C813.177 448.372 812.799 448.465 812.472 448.652C812.145 448.839 811.893 449.1 811.716 449.436C811.539 449.772 811.45 450.169 811.45 450.626C811.45 451.093 811.543 451.503 811.73 451.858C811.917 452.203 812.183 452.474 812.528 452.67C812.873 452.857 813.27 452.95 813.718 452.95C814.091 452.95 814.432 452.885 814.74 452.754C815.057 452.623 815.328 452.427 815.552 452.166L816.364 452.992C816.047 453.365 815.655 453.65 815.188 453.846C814.731 454.042 814.241 454.14 813.718 454.14ZM820.258 454.14C819.884 454.14 819.53 454.093 819.194 454C818.867 453.897 818.564 453.757 818.284 453.58C818.004 453.393 817.761 453.174 817.556 452.922L818.368 452.11C818.61 452.409 818.89 452.633 819.208 452.782C819.525 452.922 819.88 452.992 820.272 452.992C820.664 452.992 820.967 452.927 821.182 452.796C821.396 452.656 821.504 452.465 821.504 452.222C821.504 451.979 821.415 451.793 821.238 451.662C821.07 451.522 820.85 451.41 820.58 451.326C820.309 451.233 820.02 451.144 819.712 451.06C819.413 450.967 819.128 450.85 818.858 450.71C818.587 450.57 818.363 450.379 818.186 450.136C818.018 449.893 817.934 449.571 817.934 449.17C817.934 448.769 818.032 448.423 818.228 448.134C818.424 447.835 818.694 447.607 819.04 447.448C819.394 447.289 819.819 447.21 820.314 447.21C820.836 447.21 821.298 447.303 821.7 447.49C822.11 447.667 822.446 447.938 822.708 448.302L821.896 449.114C821.709 448.871 821.476 448.685 821.196 448.554C820.925 448.423 820.617 448.358 820.272 448.358C819.908 448.358 819.628 448.423 819.432 448.554C819.245 448.675 819.152 448.848 819.152 449.072C819.152 449.296 819.236 449.469 819.404 449.59C819.572 449.711 819.791 449.814 820.062 449.898C820.342 449.982 820.631 450.071 820.93 450.164C821.228 450.248 821.513 450.365 821.784 450.514C822.054 450.663 822.274 450.864 822.442 451.116C822.619 451.368 822.708 451.699 822.708 452.11C822.708 452.735 822.484 453.23 822.036 453.594C821.597 453.958 821.004 454.14 820.258 454.14ZM826.232 454.14C825.859 454.14 825.504 454.093 825.168 454C824.842 453.897 824.538 453.757 824.258 453.58C823.978 453.393 823.736 453.174 823.53 452.922L824.342 452.11C824.585 452.409 824.865 452.633 825.182 452.782C825.5 452.922 825.854 452.992 826.246 452.992C826.638 452.992 826.942 452.927 827.156 452.796C827.371 452.656 827.478 452.465 827.478 452.222C827.478 451.979 827.39 451.793 827.212 451.662C827.044 451.522 826.825 451.41 826.554 451.326C826.284 451.233 825.994 451.144 825.686 451.06C825.388 450.967 825.103 450.85 824.832 450.71C824.562 450.57 824.338 450.379 824.16 450.136C823.992 449.893 823.908 449.571 823.908 449.17C823.908 448.769 824.006 448.423 824.202 448.134C824.398 447.835 824.669 447.607 825.014 447.448C825.369 447.289 825.794 447.21 826.288 447.21C826.811 447.21 827.273 447.303 827.674 447.49C828.085 447.667 828.421 447.938 828.682 448.302L827.87 449.114C827.684 448.871 827.45 448.685 827.17 448.554C826.9 448.423 826.592 448.358 826.246 448.358C825.882 448.358 825.602 448.423 825.406 448.554C825.22 448.675 825.126 448.848 825.126 449.072C825.126 449.296 825.21 449.469 825.378 449.59C825.546 449.711 825.766 449.814 826.036 449.898C826.316 449.982 826.606 450.071 826.904 450.164C827.203 450.248 827.488 450.365 827.758 450.514C828.029 450.663 828.248 450.864 828.416 451.116C828.594 451.368 828.682 451.699 828.682 452.11C828.682 452.735 828.458 453.23 828.01 453.594C827.572 453.958 826.979 454.14 826.232 454.14ZM830.107 454V447.35H831.367V454H830.107ZM830.737 446.02C830.504 446.02 830.312 445.945 830.163 445.796C830.014 445.637 829.939 445.441 829.939 445.208C829.939 444.984 830.014 444.797 830.163 444.648C830.312 444.489 830.504 444.41 830.737 444.41C830.97 444.41 831.162 444.489 831.311 444.648C831.46 444.797 831.535 444.984 831.535 445.208C831.535 445.441 831.46 445.637 831.311 445.796C831.162 445.945 830.97 446.02 830.737 446.02ZM836.262 454.14C835.608 454.14 835.02 453.986 834.498 453.678C833.975 453.37 833.56 452.955 833.252 452.432C832.944 451.9 832.79 451.307 832.79 450.654C832.79 450.01 832.944 449.431 833.252 448.918C833.56 448.395 833.975 447.98 834.498 447.672C835.02 447.364 835.608 447.21 836.262 447.21C836.906 447.21 837.489 447.364 838.012 447.672C838.544 447.971 838.964 448.381 839.272 448.904C839.58 449.427 839.734 450.01 839.734 450.654C839.734 451.307 839.58 451.9 839.272 452.432C838.964 452.955 838.544 453.37 838.012 453.678C837.489 453.986 836.906 454.14 836.262 454.14ZM836.262 452.922C836.682 452.922 837.055 452.824 837.382 452.628C837.708 452.432 837.965 452.166 838.152 451.83C838.338 451.485 838.432 451.093 838.432 450.654C838.432 450.225 838.334 449.842 838.138 449.506C837.951 449.17 837.694 448.909 837.368 448.722C837.05 448.526 836.682 448.428 836.262 448.428C835.842 448.428 835.468 448.526 835.142 448.722C834.815 448.909 834.558 449.17 834.372 449.506C834.185 449.842 834.092 450.225 834.092 450.654C834.092 451.093 834.185 451.485 834.372 451.83C834.558 452.166 834.815 452.432 835.142 452.628C835.468 452.824 835.842 452.922 836.262 452.922ZM845.857 454V450.122C845.857 449.618 845.699 449.203 845.381 448.876C845.064 448.549 844.653 448.386 844.149 448.386C843.813 448.386 843.515 448.461 843.253 448.61C842.992 448.759 842.787 448.965 842.637 449.226C842.488 449.487 842.413 449.786 842.413 450.122L841.895 449.828C841.895 449.324 842.007 448.876 842.231 448.484C842.455 448.092 842.768 447.784 843.169 447.56C843.571 447.327 844.023 447.21 844.527 447.21C845.031 447.21 845.475 447.336 845.857 447.588C846.249 447.84 846.557 448.171 846.781 448.582C847.005 448.983 847.117 449.413 847.117 449.87V454H845.857ZM841.153 454V447.35H842.413V454H841.153ZM854.317 454V444.564H855.633V454H854.317ZM851.013 445.488V444.284H858.923V445.488H851.013ZM860.281 454V447.35H861.541V454H860.281ZM860.911 446.02C860.677 446.02 860.486 445.945 860.337 445.796C860.187 445.637 860.113 445.441 860.113 445.208C860.113 444.984 860.187 444.797 860.337 444.648C860.486 444.489 860.677 444.41 860.911 444.41C861.144 444.41 861.335 444.489 861.485 444.648C861.634 444.797 861.709 444.984 861.709 445.208C861.709 445.441 861.634 445.637 861.485 445.796C861.335 445.945 861.144 446.02 860.911 446.02ZM863.398 454V447.35H864.658V454H863.398ZM867.892 454V449.982C867.892 449.487 867.738 449.1 867.43 448.82C867.131 448.531 866.753 448.386 866.296 448.386C865.988 448.386 865.712 448.451 865.47 448.582C865.227 448.713 865.031 448.895 864.882 449.128C864.732 449.361 864.658 449.641 864.658 449.968L864.14 449.716C864.14 449.212 864.247 448.773 864.462 448.4C864.686 448.027 864.989 447.737 865.372 447.532C865.754 447.317 866.184 447.21 866.66 447.21C867.126 447.21 867.546 447.313 867.92 447.518C868.302 447.723 868.601 448.013 868.816 448.386C869.04 448.759 869.152 449.203 869.152 449.716V454H867.892ZM872.386 454V449.982C872.386 449.487 872.232 449.1 871.924 448.82C871.625 448.531 871.252 448.386 870.804 448.386C870.496 448.386 870.216 448.451 869.964 448.582C869.721 448.713 869.525 448.895 869.376 449.128C869.226 449.361 869.152 449.641 869.152 449.968L868.438 449.716C868.466 449.203 868.601 448.764 868.844 448.4C869.096 448.027 869.418 447.737 869.81 447.532C870.202 447.317 870.631 447.21 871.098 447.21C871.583 447.21 872.017 447.313 872.4 447.518C872.782 447.723 873.086 448.013 873.31 448.386C873.543 448.759 873.66 449.207 873.66 449.73V454H872.386ZM878.454 454.14C877.792 454.14 877.194 453.991 876.662 453.692C876.13 453.384 875.71 452.969 875.402 452.446C875.094 451.923 874.94 451.331 874.94 450.668C874.94 450.015 875.09 449.427 875.388 448.904C875.696 448.381 876.107 447.971 876.62 447.672C877.143 447.364 877.726 447.21 878.37 447.21C878.986 447.21 879.528 447.35 879.994 447.63C880.47 447.91 880.839 448.297 881.1 448.792C881.371 449.287 881.506 449.847 881.506 450.472C881.506 450.565 881.502 450.668 881.492 450.78C881.483 450.883 881.464 451.004 881.436 451.144H875.822V450.094H880.764L880.302 450.5C880.302 450.052 880.223 449.674 880.064 449.366C879.906 449.049 879.682 448.806 879.392 448.638C879.103 448.461 878.753 448.372 878.342 448.372C877.913 448.372 877.535 448.465 877.208 448.652C876.882 448.839 876.63 449.1 876.452 449.436C876.275 449.772 876.186 450.169 876.186 450.626C876.186 451.093 876.28 451.503 876.466 451.858C876.653 452.203 876.919 452.474 877.264 452.67C877.61 452.857 878.006 452.95 878.454 452.95C878.828 452.95 879.168 452.885 879.476 452.754C879.794 452.623 880.064 452.427 880.288 452.166L881.1 452.992C880.783 453.365 880.391 453.65 879.924 453.846C879.467 454.042 878.977 454.14 878.454 454.14Z" fill="#787878"/>
<path d="M1035.79 454L1039.77 444.284H1040.72L1044.68 454H1043.26L1039.99 445.782H1040.48L1037.19 454H1035.79ZM1037.68 451.802V450.654H1042.79V451.802H1037.68ZM1047.34 454L1044.29 447.35H1045.69L1048.14 452.964H1047.33L1049.79 447.35H1051.14L1048.09 454H1047.34ZM1054.71 456.926C1054.03 456.926 1053.42 456.8 1052.89 456.548C1052.37 456.296 1051.95 455.941 1051.63 455.484L1052.44 454.658C1052.71 455.003 1053.03 455.265 1053.41 455.442C1053.78 455.629 1054.22 455.722 1054.74 455.722C1055.42 455.722 1055.96 455.54 1056.35 455.176C1056.75 454.821 1056.95 454.341 1056.95 453.734V452.082L1057.17 450.584L1056.95 449.1V447.35H1058.21V453.734C1058.21 454.369 1058.06 454.924 1057.76 455.4C1057.47 455.876 1057.06 456.249 1056.53 456.52C1056.01 456.791 1055.4 456.926 1054.71 456.926ZM1054.71 453.888C1054.1 453.888 1053.56 453.743 1053.07 453.454C1052.6 453.165 1052.22 452.768 1051.94 452.264C1051.66 451.751 1051.52 451.177 1051.52 450.542C1051.52 449.907 1051.66 449.343 1051.94 448.848C1052.22 448.344 1052.6 447.947 1053.07 447.658C1053.56 447.359 1054.1 447.21 1054.71 447.21C1055.23 447.21 1055.69 447.313 1056.1 447.518C1056.5 447.723 1056.81 448.013 1057.05 448.386C1057.29 448.75 1057.42 449.179 1057.44 449.674V451.438C1057.41 451.923 1057.28 452.353 1057.03 452.726C1056.8 453.09 1056.48 453.375 1056.08 453.58C1055.68 453.785 1055.22 453.888 1054.71 453.888ZM1054.96 452.698C1055.37 452.698 1055.73 452.609 1056.04 452.432C1056.36 452.255 1056.6 452.007 1056.77 451.69C1056.94 451.363 1057.02 450.985 1057.02 450.556C1057.02 450.127 1056.93 449.753 1056.75 449.436C1056.59 449.109 1056.35 448.857 1056.04 448.68C1055.73 448.493 1055.37 448.4 1054.95 448.4C1054.53 448.4 1054.16 448.493 1053.84 448.68C1053.52 448.857 1053.27 449.109 1053.09 449.436C1052.91 449.753 1052.82 450.122 1052.82 450.542C1052.82 450.962 1052.91 451.335 1053.09 451.662C1053.27 451.989 1053.52 452.245 1053.84 452.432C1054.17 452.609 1054.54 452.698 1054.96 452.698ZM1064.08 449.772V448.666H1066.71C1067.28 448.666 1067.72 448.521 1068.03 448.232C1068.33 447.943 1068.49 447.551 1068.49 447.056C1068.49 446.589 1068.33 446.202 1068.03 445.894C1067.73 445.586 1067.29 445.432 1066.72 445.432H1064.08V444.284H1066.77C1067.38 444.284 1067.92 444.405 1068.38 444.648C1068.83 444.881 1069.18 445.203 1069.43 445.614C1069.68 446.025 1069.8 446.496 1069.8 447.028C1069.8 447.579 1069.68 448.059 1069.43 448.47C1069.18 448.881 1068.83 449.203 1068.38 449.436C1067.92 449.66 1067.38 449.772 1066.77 449.772H1064.08ZM1063.2 454V444.284H1064.51V454H1063.2ZM1068.8 454L1065.27 449.646L1066.51 449.212L1070.46 454H1068.8ZM1074.21 454.14C1073.6 454.14 1073.05 453.991 1072.56 453.692C1072.06 453.384 1071.67 452.969 1071.38 452.446C1071.1 451.923 1070.96 451.335 1070.96 450.682C1070.96 450.029 1071.1 449.441 1071.38 448.918C1071.67 448.395 1072.06 447.98 1072.54 447.672C1073.04 447.364 1073.59 447.21 1074.21 447.21C1074.71 447.21 1075.16 447.317 1075.55 447.532C1075.95 447.737 1076.28 448.027 1076.52 448.4C1076.76 448.764 1076.9 449.189 1076.92 449.674V451.676C1076.9 452.152 1076.76 452.577 1076.52 452.95C1076.28 453.323 1075.97 453.617 1075.57 453.832C1075.17 454.037 1074.72 454.14 1074.21 454.14ZM1074.42 452.95C1075.04 452.95 1075.55 452.74 1075.93 452.32C1076.31 451.891 1076.5 451.345 1076.5 450.682C1076.5 450.225 1076.42 449.828 1076.24 449.492C1076.07 449.147 1075.83 448.881 1075.51 448.694C1075.19 448.498 1074.82 448.4 1074.4 448.4C1073.98 448.4 1073.61 448.498 1073.28 448.694C1072.97 448.89 1072.71 449.161 1072.53 449.506C1072.35 449.842 1072.26 450.229 1072.26 450.668C1072.26 451.116 1072.35 451.513 1072.53 451.858C1072.71 452.194 1072.97 452.46 1073.3 452.656C1073.62 452.852 1074 452.95 1074.42 452.95ZM1076.42 454V452.208L1076.66 450.584L1076.42 448.974V447.35H1077.69V454H1076.42ZM1080.52 454V444.564H1081.78V454H1080.52ZM1078.89 448.498V447.35H1083.42V448.498H1078.89ZM1084.67 454V447.35H1085.93V454H1084.67ZM1085.3 446.02C1085.07 446.02 1084.87 445.945 1084.73 445.796C1084.58 445.637 1084.5 445.441 1084.5 445.208C1084.5 444.984 1084.58 444.797 1084.73 444.648C1084.87 444.489 1085.07 444.41 1085.3 444.41C1085.53 444.41 1085.72 444.489 1085.87 444.648C1086.02 444.797 1086.1 444.984 1086.1 445.208C1086.1 445.441 1086.02 445.637 1085.87 445.796C1085.72 445.945 1085.53 446.02 1085.3 446.02ZM1092.49 454V450.122C1092.49 449.618 1092.33 449.203 1092.01 448.876C1091.7 448.549 1091.29 448.386 1090.78 448.386C1090.45 448.386 1090.15 448.461 1089.89 448.61C1089.62 448.759 1089.42 448.965 1089.27 449.226C1089.12 449.487 1089.05 449.786 1089.05 450.122L1088.53 449.828C1088.53 449.324 1088.64 448.876 1088.86 448.484C1089.09 448.092 1089.4 447.784 1089.8 447.56C1090.2 447.327 1090.66 447.21 1091.16 447.21C1091.66 447.21 1092.11 447.336 1092.49 447.588C1092.88 447.84 1093.19 448.171 1093.41 448.582C1093.64 448.983 1093.75 449.413 1093.75 449.87V454H1092.49ZM1087.79 454V447.35H1089.05V454H1087.79ZM1098.21 456.926C1097.53 456.926 1096.93 456.8 1096.39 456.548C1095.87 456.296 1095.45 455.941 1095.13 455.484L1095.95 454.658C1096.22 455.003 1096.54 455.265 1096.91 455.442C1097.29 455.629 1097.73 455.722 1098.24 455.722C1098.92 455.722 1099.46 455.54 1099.85 455.176C1100.25 454.821 1100.45 454.341 1100.45 453.734V452.082L1100.68 450.584L1100.45 449.1V447.35H1101.71V453.734C1101.71 454.369 1101.56 454.924 1101.27 455.4C1100.98 455.876 1100.57 456.249 1100.03 456.52C1099.51 456.791 1098.9 456.926 1098.21 456.926ZM1098.21 453.888C1097.61 453.888 1097.06 453.743 1096.58 453.454C1096.1 453.165 1095.72 452.768 1095.44 452.264C1095.16 451.751 1095.02 451.177 1095.02 450.542C1095.02 449.907 1095.16 449.343 1095.44 448.848C1095.72 448.344 1096.1 447.947 1096.58 447.658C1097.06 447.359 1097.61 447.21 1098.21 447.21C1098.74 447.21 1099.2 447.313 1099.6 447.518C1100 447.723 1100.32 448.013 1100.55 448.386C1100.79 448.75 1100.93 449.179 1100.94 449.674V451.438C1100.92 451.923 1100.78 452.353 1100.54 452.726C1100.3 453.09 1099.99 453.375 1099.59 453.58C1099.18 453.785 1098.73 453.888 1098.21 453.888ZM1098.47 452.698C1098.88 452.698 1099.24 452.609 1099.54 452.432C1099.86 452.255 1100.1 452.007 1100.27 451.69C1100.44 451.363 1100.52 450.985 1100.52 450.556C1100.52 450.127 1100.44 449.753 1100.26 449.436C1100.09 449.109 1099.85 448.857 1099.54 448.68C1099.24 448.493 1098.87 448.4 1098.45 448.4C1098.03 448.4 1097.66 448.493 1097.35 448.68C1097.03 448.857 1096.78 449.109 1096.59 449.436C1096.41 449.753 1096.32 450.122 1096.32 450.542C1096.32 450.962 1096.41 451.335 1096.59 451.662C1096.78 451.989 1097.03 452.245 1097.35 452.432C1097.67 452.609 1098.05 452.698 1098.47 452.698Z" fill="#787878"/>
<rect x="134" y="145" width="34" height="269" rx="17" fill="#704FE6"/>
<rect x="1052" y="79" width="34" height="335" rx="17" fill="#FF8F8F"/>
<rect x="371" y="79" width="34" height="335" rx="17" fill="#ED9659"/>
<rect x="604" y="295" width="34" height="119" rx="17" fill="#25D366"/>
<rect x="825" y="202" width="34" height="212" rx="17" fill="#34B7F1"/>
</svg>
