<svg width="1166" height="479" viewBox="0 0 1166 479" fill="none" xmlns="http://www.w3.org/2000/svg">
<rect width="1166" height="479" rx="12" fill="#F3F3FA"/>
<path d="M31.182 42.18C30.282 42.18 29.442 42.012 28.662 41.676C27.882 41.34 27.198 40.878 26.61 40.29C26.022 39.69 25.56 39 25.224 38.22C24.9 37.428 24.738 36.582 24.738 35.682C24.738 34.782 24.9 33.942 25.224 33.162C25.56 32.382 26.016 31.698 26.592 31.11C27.18 30.51 27.858 30.048 28.626 29.724C29.406 29.388 30.246 29.22 31.146 29.22C32.046 29.22 32.88 29.388 33.648 29.724C34.428 30.048 35.112 30.51 35.7 31.11C36.288 31.698 36.744 32.388 37.068 33.18C37.404 33.96 37.572 34.8 37.572 35.7C37.572 36.6 37.404 37.446 37.068 38.238C36.744 39.018 36.288 39.702 35.7 40.29C35.124 40.878 34.446 41.34 33.666 41.676C32.898 42.012 32.07 42.18 31.182 42.18ZM36.942 42.864L31.272 37.194L32.604 35.862L38.274 41.532L36.942 42.864ZM31.146 40.2C31.998 40.2 32.742 40.008 33.378 39.624C34.026 39.24 34.53 38.712 34.89 38.04C35.262 37.356 35.448 36.57 35.448 35.682C35.448 35.022 35.34 34.422 35.124 33.882C34.92 33.33 34.626 32.856 34.242 32.46C33.858 32.052 33.402 31.74 32.874 31.524C32.358 31.308 31.782 31.2 31.146 31.2C30.306 31.2 29.562 31.392 28.914 31.776C28.278 32.148 27.774 32.67 27.402 33.342C27.042 34.014 26.862 34.794 26.862 35.682C26.862 36.342 26.964 36.954 27.168 37.518C27.384 38.07 27.678 38.544 28.05 38.94C28.434 39.336 28.89 39.648 29.418 39.876C29.946 40.092 30.522 40.2 31.146 40.2ZM43.4096 42.18C42.6776 42.18 42.0236 42.018 41.4476 41.694C40.8836 41.37 40.4396 40.926 40.1156 40.362C39.8036 39.786 39.6476 39.126 39.6476 38.382V33.36H41.6276V38.292C41.6276 38.712 41.6936 39.072 41.8256 39.372C41.9696 39.66 42.1736 39.882 42.4376 40.038C42.7136 40.194 43.0376 40.272 43.4096 40.272C43.9856 40.272 44.4236 40.104 44.7236 39.768C45.0356 39.42 45.1916 38.928 45.1916 38.292V33.36H47.1716V38.382C47.1716 39.138 47.0096 39.804 46.6856 40.38C46.3736 40.944 45.9356 41.388 45.3716 41.712C44.8076 42.024 44.1536 42.18 43.4096 42.18ZM49.1805 42V33.36H51.1605V42H49.1805ZM50.1705 31.776C49.8345 31.776 49.5525 31.662 49.3245 31.434C49.1085 31.206 49.0005 30.924 49.0005 30.588C49.0005 30.252 49.1085 29.97 49.3245 29.742C49.5525 29.514 49.8345 29.4 50.1705 29.4C50.5185 29.4 50.8005 29.514 51.0165 29.742C51.2325 29.97 51.3405 30.252 51.3405 30.588C51.3405 30.924 51.2325 31.206 51.0165 31.434C50.8005 31.662 50.5185 31.776 50.1705 31.776ZM52.7332 40.92L57.5572 34.44H59.8792L55.0552 40.92H52.7332ZM52.7332 42V40.92L54.5332 40.2H59.7712V42H52.7332ZM53.0572 35.16V33.36H59.8792V34.44L58.0792 35.16H53.0572ZM66.7978 37.248V35.448H69.9478C70.3798 35.448 70.7578 35.364 71.0818 35.196C71.4178 35.016 71.6818 34.77 71.8738 34.458C72.0658 34.134 72.1618 33.756 72.1618 33.324C72.1618 32.892 72.0658 32.52 71.8738 32.208C71.6818 31.884 71.4178 31.638 71.0818 31.47C70.7578 31.29 70.3798 31.2 69.9478 31.2H66.7978V29.4H70.0558C70.8478 29.4 71.5558 29.562 72.1798 29.886C72.8158 30.21 73.3138 30.666 73.6738 31.254C74.0458 31.842 74.2318 32.532 74.2318 33.324C74.2318 34.116 74.0458 34.806 73.6738 35.394C73.3138 35.982 72.8158 36.438 72.1798 36.762C71.5558 37.086 70.8478 37.248 70.0558 37.248H66.7978ZM65.3758 42V29.4H67.4458V42H65.3758ZM79.5436 42.18C78.6796 42.18 77.8996 41.988 77.2036 41.604C76.5196 41.208 75.9736 40.668 75.5656 39.984C75.1696 39.3 74.9716 38.532 74.9716 37.68C74.9716 36.828 75.1696 36.066 75.5656 35.394C75.9616 34.71 76.4956 34.17 77.1676 33.774C77.8516 33.378 78.6076 33.18 79.4356 33.18C80.2396 33.18 80.9476 33.366 81.5596 33.738C82.1836 34.11 82.6696 34.62 83.0176 35.268C83.3776 35.916 83.5576 36.654 83.5576 37.482C83.5576 37.626 83.5456 37.776 83.5216 37.932C83.5096 38.076 83.4856 38.238 83.4496 38.418H76.3576V36.798H82.4236L81.6856 37.446C81.6616 36.918 81.5596 36.474 81.3796 36.114C81.1996 35.754 80.9416 35.478 80.6056 35.286C80.2816 35.094 79.8796 34.998 79.3996 34.998C78.8956 34.998 78.4576 35.106 78.0856 35.322C77.7136 35.538 77.4256 35.844 77.2216 36.24C77.0176 36.624 76.9156 37.086 76.9156 37.626C76.9156 38.166 77.0236 38.64 77.2396 39.048C77.4556 39.456 77.7616 39.774 78.1576 40.002C78.5536 40.218 79.0096 40.326 79.5256 40.326C79.9696 40.326 80.3776 40.248 80.7496 40.092C81.1336 39.936 81.4576 39.708 81.7216 39.408L82.9816 40.686C82.5616 41.178 82.0516 41.55 81.4516 41.802C80.8516 42.054 80.2156 42.18 79.5436 42.18ZM85.1449 42V33.36H87.1249V42H85.1449ZM87.1249 37.194L86.4409 36.852C86.4409 35.76 86.6809 34.878 87.1609 34.206C87.6529 33.522 88.3909 33.18 89.3749 33.18C89.8069 33.18 90.1969 33.258 90.5449 33.414C90.8929 33.57 91.2169 33.822 91.5169 34.17L90.2209 35.502C90.0649 35.334 89.8909 35.214 89.6989 35.142C89.5069 35.07 89.2849 35.034 89.0329 35.034C88.4809 35.034 88.0249 35.208 87.6649 35.556C87.3049 35.904 87.1249 36.45 87.1249 37.194ZM93.6805 42V32.226C93.6805 31.566 93.8245 30.984 94.1125 30.48C94.4125 29.976 94.8205 29.58 95.3365 29.292C95.8645 29.004 96.4705 28.86 97.1545 28.86C97.6825 28.86 98.1325 28.95 98.5045 29.13C98.8765 29.31 99.2245 29.568 99.5485 29.904L98.2705 31.182C98.1265 31.038 97.9705 30.924 97.8025 30.84C97.6345 30.756 97.4185 30.714 97.1545 30.714C96.6745 30.714 96.3025 30.846 96.0385 31.11C95.7865 31.362 95.6605 31.728 95.6605 32.208V42H93.6805ZM91.6105 35.16V33.36H98.2705V35.16H91.6105ZM103.273 42.18C102.433 42.18 101.671 41.982 100.987 41.586C100.303 41.178 99.7568 40.632 99.3488 39.948C98.9528 39.264 98.7548 38.502 98.7548 37.662C98.7548 36.822 98.9528 36.066 99.3488 35.394C99.7568 34.722 100.303 34.188 100.987 33.792C101.671 33.384 102.433 33.18 103.273 33.18C104.125 33.18 104.893 33.378 105.577 33.774C106.261 34.17 106.801 34.71 107.197 35.394C107.605 36.066 107.809 36.822 107.809 37.662C107.809 38.502 107.605 39.264 107.197 39.948C106.801 40.632 106.261 41.178 105.577 41.586C104.893 41.982 104.125 42.18 103.273 42.18ZM103.273 40.272C103.765 40.272 104.197 40.164 104.569 39.948C104.953 39.72 105.247 39.408 105.451 39.012C105.667 38.616 105.775 38.166 105.775 37.662C105.775 37.158 105.667 36.714 105.451 36.33C105.235 35.946 104.941 35.646 104.569 35.43C104.197 35.202 103.765 35.088 103.273 35.088C102.793 35.088 102.361 35.202 101.977 35.43C101.605 35.646 101.311 35.946 101.095 36.33C100.891 36.714 100.789 37.158 100.789 37.662C100.789 38.166 100.891 38.616 101.095 39.012C101.311 39.408 101.605 39.72 101.977 39.948C102.361 40.164 102.793 40.272 103.273 40.272ZM109.455 42V33.36H111.435V42H109.455ZM111.435 37.194L110.751 36.852C110.751 35.76 110.991 34.878 111.471 34.206C111.963 33.522 112.701 33.18 113.685 33.18C114.117 33.18 114.507 33.258 114.855 33.414C115.203 33.57 115.527 33.822 115.827 34.17L114.531 35.502C114.375 35.334 114.201 35.214 114.009 35.142C113.817 35.07 113.595 35.034 113.343 35.034C112.791 35.034 112.335 35.208 111.975 35.556C111.615 35.904 111.435 36.45 111.435 37.194ZM116.786 42V33.36H118.766V42H116.786ZM122.528 42V36.852C122.528 36.276 122.348 35.832 121.988 35.52C121.628 35.196 121.184 35.034 120.656 35.034C120.296 35.034 119.972 35.106 119.684 35.25C119.408 35.394 119.186 35.604 119.018 35.88C118.85 36.144 118.766 36.468 118.766 36.852L117.992 36.42C117.992 35.76 118.136 35.19 118.424 34.71C118.712 34.23 119.102 33.858 119.594 33.594C120.086 33.318 120.638 33.18 121.25 33.18C121.862 33.18 122.414 33.312 122.906 33.576C123.398 33.84 123.788 34.212 124.076 34.692C124.364 35.172 124.508 35.748 124.508 36.42V42H122.528ZM128.27 42V36.852C128.27 36.276 128.09 35.832 127.73 35.52C127.37 35.196 126.926 35.034 126.398 35.034C126.05 35.034 125.732 35.106 125.444 35.25C125.156 35.394 124.928 35.604 124.76 35.88C124.592 36.144 124.508 36.468 124.508 36.852L123.392 36.42C123.452 35.76 123.644 35.19 123.968 34.71C124.292 34.23 124.706 33.858 125.21 33.594C125.726 33.318 126.29 33.18 126.902 33.18C127.526 33.18 128.09 33.312 128.594 33.576C129.098 33.84 129.5 34.212 129.8 34.692C130.1 35.172 130.25 35.748 130.25 36.42V42H128.27ZM135.907 42.18C135.127 42.18 134.419 41.982 133.783 41.586C133.159 41.19 132.661 40.656 132.289 39.984C131.929 39.3 131.749 38.538 131.749 37.698C131.749 36.846 131.929 36.084 132.289 35.412C132.661 34.728 133.159 34.188 133.783 33.792C134.419 33.384 135.127 33.18 135.907 33.18C136.567 33.18 137.149 33.324 137.653 33.612C138.169 33.888 138.577 34.272 138.877 34.764C139.177 35.256 139.327 35.814 139.327 36.438V38.922C139.327 39.546 139.177 40.104 138.877 40.596C138.589 41.088 138.187 41.478 137.671 41.766C137.155 42.042 136.567 42.18 135.907 42.18ZM136.231 40.308C136.963 40.308 137.551 40.062 137.995 39.57C138.451 39.078 138.679 38.448 138.679 37.68C138.679 37.164 138.577 36.708 138.373 36.312C138.169 35.916 137.881 35.61 137.509 35.394C137.149 35.166 136.723 35.052 136.231 35.052C135.751 35.052 135.325 35.166 134.953 35.394C134.593 35.61 134.305 35.916 134.089 36.312C133.885 36.708 133.783 37.164 133.783 37.68C133.783 38.196 133.885 38.652 134.089 39.048C134.305 39.444 134.593 39.756 134.953 39.984C135.325 40.2 135.751 40.308 136.231 40.308ZM138.553 42V39.678L138.895 37.572L138.553 35.484V33.36H140.533V42H138.553ZM148.653 42V37.014C148.653 36.438 148.467 35.964 148.095 35.592C147.735 35.22 147.267 35.034 146.691 35.034C146.307 35.034 145.965 35.118 145.665 35.286C145.365 35.454 145.131 35.688 144.963 35.988C144.795 36.288 144.711 36.63 144.711 37.014L143.937 36.582C143.937 35.922 144.081 35.34 144.369 34.836C144.657 34.32 145.053 33.918 145.557 33.63C146.073 33.33 146.649 33.18 147.285 33.18C147.933 33.18 148.509 33.348 149.013 33.684C149.517 34.008 149.913 34.434 150.201 34.962C150.489 35.478 150.633 36.018 150.633 36.582V42H148.653ZM142.731 42V33.36H144.711V42H142.731ZM156.623 42.18C155.771 42.18 154.997 41.982 154.301 41.586C153.617 41.19 153.077 40.65 152.681 39.966C152.285 39.282 152.087 38.52 152.087 37.68C152.087 36.828 152.285 36.066 152.681 35.394C153.077 34.71 153.617 34.17 154.301 33.774C154.997 33.378 155.771 33.18 156.623 33.18C157.295 33.18 157.919 33.312 158.495 33.576C159.083 33.828 159.581 34.194 159.989 34.674L158.693 35.988C158.441 35.688 158.135 35.466 157.775 35.322C157.427 35.166 157.043 35.088 156.623 35.088C156.131 35.088 155.693 35.202 155.309 35.43C154.937 35.646 154.643 35.946 154.427 36.33C154.223 36.714 154.121 37.164 154.121 37.68C154.121 38.184 154.223 38.634 154.427 39.03C154.643 39.414 154.937 39.72 155.309 39.948C155.693 40.164 156.131 40.272 156.623 40.272C157.043 40.272 157.427 40.2 157.775 40.056C158.135 39.9 158.441 39.672 158.693 39.372L159.989 40.686C159.581 41.166 159.083 41.538 158.495 41.802C157.919 42.054 157.295 42.18 156.623 42.18ZM165.255 42.18C164.391 42.18 163.611 41.988 162.915 41.604C162.231 41.208 161.685 40.668 161.277 39.984C160.881 39.3 160.683 38.532 160.683 37.68C160.683 36.828 160.881 36.066 161.277 35.394C161.673 34.71 162.207 34.17 162.879 33.774C163.563 33.378 164.319 33.18 165.147 33.18C165.951 33.18 166.659 33.366 167.271 33.738C167.895 34.11 168.381 34.62 168.729 35.268C169.089 35.916 169.269 36.654 169.269 37.482C169.269 37.626 169.257 37.776 169.233 37.932C169.221 38.076 169.197 38.238 169.161 38.418H162.069V36.798H168.135L167.397 37.446C167.373 36.918 167.271 36.474 167.091 36.114C166.911 35.754 166.653 35.478 166.317 35.286C165.993 35.094 165.591 34.998 165.111 34.998C164.607 34.998 164.169 35.106 163.797 35.322C163.425 35.538 163.137 35.844 162.933 36.24C162.729 36.624 162.627 37.086 162.627 37.626C162.627 38.166 162.735 38.64 162.951 39.048C163.167 39.456 163.473 39.774 163.869 40.002C164.265 40.218 164.721 40.326 165.237 40.326C165.681 40.326 166.089 40.248 166.461 40.092C166.845 39.936 167.169 39.708 167.433 39.408L168.693 40.686C168.273 41.178 167.763 41.55 167.163 41.802C166.563 42.054 165.927 42.18 165.255 42.18Z" fill="#30303D"/>
<path d="M1077.58 40L1074.36 30.2H1075.95L1078.37 37.746H1077.95L1080.31 30.2H1081.43L1083.8 37.746H1083.38L1085.8 30.2H1087.38L1084.16 40H1083.04L1080.66 32.468H1081.08L1078.7 40H1077.58ZM1090.75 40.14C1090.07 40.14 1089.47 39.9907 1088.93 39.692C1088.39 39.384 1087.97 38.964 1087.65 38.432C1087.34 37.9 1087.19 37.3027 1087.19 36.64C1087.19 35.9773 1087.34 35.3847 1087.65 34.862C1087.96 34.33 1088.37 33.91 1088.9 33.602C1089.43 33.294 1090.02 33.14 1090.66 33.14C1091.29 33.14 1091.84 33.2847 1092.31 33.574C1092.8 33.8633 1093.18 34.26 1093.45 34.764C1093.73 35.268 1093.87 35.842 1093.87 36.486C1093.87 36.598 1093.86 36.7147 1093.84 36.836C1093.83 36.948 1093.81 37.074 1093.78 37.214H1088.27V35.954H1092.99L1092.41 36.458C1092.39 36.0473 1092.31 35.702 1092.17 35.422C1092.03 35.142 1091.83 34.9273 1091.57 34.778C1091.32 34.6287 1091.01 34.554 1090.63 34.554C1090.24 34.554 1089.9 34.638 1089.61 34.806C1089.32 34.974 1089.1 35.212 1088.94 35.52C1088.78 35.8187 1088.7 36.178 1088.7 36.598C1088.7 37.018 1088.79 37.3867 1088.95 37.704C1089.12 38.0213 1089.36 38.2687 1089.67 38.446C1089.98 38.614 1090.33 38.698 1090.73 38.698C1091.08 38.698 1091.39 38.6373 1091.68 38.516C1091.98 38.3947 1092.23 38.2173 1092.44 37.984L1093.42 38.978C1093.09 39.3607 1092.7 39.65 1092.23 39.846C1091.76 40.042 1091.27 40.14 1090.75 40.14ZM1098.22 40.14C1097.55 40.14 1096.95 39.9907 1096.4 39.692C1095.87 39.384 1095.45 38.964 1095.13 38.432C1094.82 37.9 1094.67 37.3027 1094.67 36.64C1094.67 35.9773 1094.82 35.3847 1095.13 34.862C1095.44 34.33 1095.85 33.91 1096.38 33.602C1096.91 33.294 1097.5 33.14 1098.14 33.14C1098.77 33.14 1099.32 33.2847 1099.79 33.574C1100.28 33.8633 1100.66 34.26 1100.93 34.764C1101.21 35.268 1101.35 35.842 1101.35 36.486C1101.35 36.598 1101.34 36.7147 1101.32 36.836C1101.31 36.948 1101.29 37.074 1101.26 37.214H1095.75V35.954H1100.46L1099.89 36.458C1099.87 36.0473 1099.79 35.702 1099.65 35.422C1099.51 35.142 1099.31 34.9273 1099.05 34.778C1098.8 34.6287 1098.49 34.554 1098.11 34.554C1097.72 34.554 1097.38 34.638 1097.09 34.806C1096.8 34.974 1096.58 35.212 1096.42 35.52C1096.26 35.8187 1096.18 36.178 1096.18 36.598C1096.18 37.018 1096.26 37.3867 1096.43 37.704C1096.6 38.0213 1096.84 38.2687 1097.15 38.446C1097.45 38.614 1097.81 38.698 1098.21 38.698C1098.56 38.698 1098.87 38.6373 1099.16 38.516C1099.46 38.3947 1099.71 38.2173 1099.92 37.984L1100.9 38.978C1100.57 39.3607 1100.17 39.65 1099.71 39.846C1099.24 40.042 1098.75 40.14 1098.22 40.14ZM1106.85 40L1104.01 36.57L1106.84 33.28H1108.67L1105.42 36.976L1105.49 36.094L1108.81 40H1106.85ZM1102.58 40V29.92H1104.12V40H1102.58ZM1109.73 40V29.92H1111.27V40H1109.73ZM1115.15 40.07L1112.28 33.28H1113.98L1115.94 38.264H1115.45L1117.52 33.28H1119.23L1116.11 40.07H1115.15ZM1113.15 42.8L1115.24 38.502L1116.11 40.07L1114.86 42.8H1113.15Z" fill="#767676"/>
<path d="M1130.67 33.6667L1134 37L1137.33 33.6667" stroke="#767676" stroke-width="1.66667" stroke-linecap="round" stroke-linejoin="round"/>
<path d="M61.4325 423.14C60.7045 423.14 60.0372 422.935 59.4305 422.524C58.8332 422.113 58.3572 421.535 58.0025 420.788C57.6478 420.032 57.4705 419.145 57.4705 418.128C57.4705 417.111 57.6432 416.229 57.9885 415.482C58.3432 414.735 58.8192 414.161 59.4165 413.76C60.0138 413.349 60.6718 413.144 61.3905 413.144C62.1278 413.144 62.7952 413.349 63.3925 413.76C63.9898 414.161 64.4612 414.735 64.8065 415.482C65.1612 416.229 65.3385 417.115 65.3385 418.142C65.3385 419.159 65.1612 420.046 64.8065 420.802C64.4612 421.549 63.9898 422.127 63.3925 422.538C62.8045 422.939 62.1512 423.14 61.4325 423.14ZM61.4045 421.894C61.9178 421.894 62.3658 421.754 62.7485 421.474C63.1405 421.185 63.4485 420.76 63.6725 420.2C63.8965 419.64 64.0085 418.949 64.0085 418.128C64.0085 417.307 63.8965 416.621 63.6725 416.07C63.4485 415.51 63.1405 415.09 62.7485 414.81C62.3565 414.521 61.9038 414.376 61.3905 414.376C60.8865 414.376 60.4385 414.521 60.0465 414.81C59.6545 415.09 59.3465 415.51 59.1225 416.07C58.9078 416.621 58.8005 417.307 58.8005 418.128C58.8005 418.949 58.9078 419.64 59.1225 420.2C59.3465 420.76 59.6545 421.185 60.0465 421.474C60.4385 421.754 60.8912 421.894 61.4045 421.894Z" fill="#787878"/>
<path d="M40.4581 356.202L44.0421 352.422C44.4061 352.049 44.6908 351.727 44.8961 351.456C45.1014 351.176 45.2461 350.919 45.3301 350.686C45.4234 350.453 45.4701 350.21 45.4701 349.958C45.4701 349.463 45.3114 349.076 44.9941 348.796C44.6768 348.516 44.2661 348.376 43.7621 348.376C43.2674 348.376 42.8334 348.497 42.4601 348.74C42.0868 348.973 41.7554 349.337 41.4661 349.832L40.5421 349.062C40.9248 348.427 41.3868 347.951 41.9281 347.634C42.4694 347.307 43.0948 347.144 43.8041 347.144C44.4014 347.144 44.9194 347.261 45.3581 347.494C45.8061 347.727 46.1514 348.054 46.3941 348.474C46.6368 348.894 46.7581 349.384 46.7581 349.944C46.7581 350.345 46.7068 350.705 46.6041 351.022C46.5108 351.339 46.3381 351.666 46.0861 352.002C45.8434 352.329 45.5028 352.721 45.0641 353.178L42.1661 356.16L40.4581 356.202ZM40.4581 357V356.202L41.5781 355.824H46.9821V357H40.4581ZM52.1903 357.14C51.4623 357.14 50.795 356.935 50.1883 356.524C49.591 356.113 49.115 355.535 48.7603 354.788C48.4056 354.032 48.2283 353.145 48.2283 352.128C48.2283 351.111 48.401 350.229 48.7463 349.482C49.101 348.735 49.577 348.161 50.1743 347.76C50.7716 347.349 51.4296 347.144 52.1483 347.144C52.8856 347.144 53.553 347.349 54.1503 347.76C54.7476 348.161 55.219 348.735 55.5643 349.482C55.919 350.229 56.0963 351.115 56.0963 352.142C56.0963 353.159 55.919 354.046 55.5643 354.802C55.219 355.549 54.7476 356.127 54.1503 356.538C53.5623 356.939 52.909 357.14 52.1903 357.14ZM52.1623 355.894C52.6756 355.894 53.1236 355.754 53.5063 355.474C53.8983 355.185 54.2063 354.76 54.4303 354.2C54.6543 353.64 54.7663 352.949 54.7663 352.128C54.7663 351.307 54.6543 350.621 54.4303 350.07C54.2063 349.51 53.8983 349.09 53.5063 348.81C53.1143 348.521 52.6616 348.376 52.1483 348.376C51.6443 348.376 51.1963 348.521 50.8043 348.81C50.4123 349.09 50.1043 349.51 49.8803 350.07C49.6656 350.621 49.5583 351.307 49.5583 352.128C49.5583 352.949 49.6656 353.64 49.8803 354.2C50.1043 354.76 50.4123 355.185 50.8043 355.474C51.1963 355.754 51.649 355.894 52.1623 355.894ZM57.6258 357L63.8558 347.284H65.1298L58.8998 357H57.6258ZM63.3238 357.14C62.9598 357.14 62.6285 357.051 62.3298 356.874C62.0311 356.697 61.7931 356.463 61.6158 356.174C61.4385 355.875 61.3498 355.539 61.3498 355.166C61.3498 354.802 61.4385 354.475 61.6158 354.186C61.7931 353.887 62.0311 353.649 62.3298 353.472C62.6285 353.295 62.9598 353.206 63.3238 353.206C63.6878 353.206 64.0191 353.295 64.3178 353.472C64.6258 353.649 64.8685 353.887 65.0458 354.186C65.2231 354.475 65.3118 354.802 65.3118 355.166C65.3118 355.539 65.2231 355.875 65.0458 356.174C64.8685 356.463 64.6305 356.697 64.3318 356.874C64.0331 357.051 63.6971 357.14 63.3238 357.14ZM63.3238 356.146C63.6038 356.146 63.8325 356.057 64.0098 355.88C64.1871 355.693 64.2758 355.455 64.2758 355.166C64.2758 354.886 64.1825 354.657 63.9958 354.48C63.8185 354.293 63.5945 354.2 63.3238 354.2C63.0531 354.2 62.8291 354.293 62.6518 354.48C62.4745 354.657 62.3858 354.886 62.3858 355.166C62.3858 355.455 62.4745 355.693 62.6518 355.88C62.8291 356.057 63.0531 356.146 63.3238 356.146ZM59.4178 351.078C59.0631 351.078 58.7365 350.989 58.4378 350.812C58.1391 350.635 57.9011 350.397 57.7238 350.098C57.5465 349.799 57.4578 349.468 57.4578 349.104C57.4578 348.731 57.5418 348.399 57.7098 348.11C57.8871 347.821 58.1251 347.587 58.4238 347.41C58.7225 347.233 59.0538 347.144 59.4178 347.144C59.7911 347.144 60.1271 347.233 60.4258 347.41C60.7245 347.587 60.9625 347.821 61.1398 348.11C61.3171 348.399 61.4058 348.731 61.4058 349.104C61.4058 349.468 61.3171 349.799 61.1398 350.098C60.9625 350.397 60.7245 350.635 60.4258 350.812C60.1365 350.989 59.8005 351.078 59.4178 351.078ZM59.4178 350.084C59.6978 350.084 59.9265 349.995 60.1038 349.818C60.2811 349.631 60.3698 349.393 60.3698 349.104C60.3698 348.815 60.2765 348.581 60.0898 348.404C59.9125 348.227 59.6885 348.138 59.4178 348.138C59.1471 348.138 58.9231 348.227 58.7458 348.404C58.5778 348.581 58.4938 348.815 58.4938 349.104C58.4938 349.393 58.5778 349.631 58.7458 349.818C58.9231 349.995 59.1471 350.084 59.4178 350.084Z" fill="#787878"/>
<path d="M39.6651 287.654L43.2071 281.284H44.6911L41.0791 287.654H39.6651ZM39.6651 288.466V287.654L40.2251 287.29H47.1131V288.466H39.6651ZM44.4111 291V284.574H45.7131V291H44.4111ZM52.1903 291.14C51.4623 291.14 50.795 290.935 50.1883 290.524C49.591 290.113 49.115 289.535 48.7603 288.788C48.4056 288.032 48.2283 287.145 48.2283 286.128C48.2283 285.111 48.401 284.229 48.7463 283.482C49.101 282.735 49.577 282.161 50.1743 281.76C50.7716 281.349 51.4296 281.144 52.1483 281.144C52.8856 281.144 53.553 281.349 54.1503 281.76C54.7476 282.161 55.219 282.735 55.5643 283.482C55.919 284.229 56.0963 285.115 56.0963 286.142C56.0963 287.159 55.919 288.046 55.5643 288.802C55.219 289.549 54.7476 290.127 54.1503 290.538C53.5623 290.939 52.909 291.14 52.1903 291.14ZM52.1623 289.894C52.6756 289.894 53.1236 289.754 53.5063 289.474C53.8983 289.185 54.2063 288.76 54.4303 288.2C54.6543 287.64 54.7663 286.949 54.7663 286.128C54.7663 285.307 54.6543 284.621 54.4303 284.07C54.2063 283.51 53.8983 283.09 53.5063 282.81C53.1143 282.521 52.6616 282.376 52.1483 282.376C51.6443 282.376 51.1963 282.521 50.8043 282.81C50.4123 283.09 50.1043 283.51 49.8803 284.07C49.6656 284.621 49.5583 285.307 49.5583 286.128C49.5583 286.949 49.6656 287.64 49.8803 288.2C50.1043 288.76 50.4123 289.185 50.8043 289.474C51.1963 289.754 51.649 289.894 52.1623 289.894ZM57.6258 291L63.8558 281.284H65.1298L58.8998 291H57.6258ZM63.3238 291.14C62.9598 291.14 62.6285 291.051 62.3298 290.874C62.0311 290.697 61.7931 290.463 61.6158 290.174C61.4385 289.875 61.3498 289.539 61.3498 289.166C61.3498 288.802 61.4385 288.475 61.6158 288.186C61.7931 287.887 62.0311 287.649 62.3298 287.472C62.6285 287.295 62.9598 287.206 63.3238 287.206C63.6878 287.206 64.0191 287.295 64.3178 287.472C64.6258 287.649 64.8685 287.887 65.0458 288.186C65.2231 288.475 65.3118 288.802 65.3118 289.166C65.3118 289.539 65.2231 289.875 65.0458 290.174C64.8685 290.463 64.6305 290.697 64.3318 290.874C64.0331 291.051 63.6971 291.14 63.3238 291.14ZM63.3238 290.146C63.6038 290.146 63.8325 290.057 64.0098 289.88C64.1871 289.693 64.2758 289.455 64.2758 289.166C64.2758 288.886 64.1825 288.657 63.9958 288.48C63.8185 288.293 63.5945 288.2 63.3238 288.2C63.0531 288.2 62.8291 288.293 62.6518 288.48C62.4745 288.657 62.3858 288.886 62.3858 289.166C62.3858 289.455 62.4745 289.693 62.6518 289.88C62.8291 290.057 63.0531 290.146 63.3238 290.146ZM59.4178 285.078C59.0631 285.078 58.7365 284.989 58.4378 284.812C58.1391 284.635 57.9011 284.397 57.7238 284.098C57.5465 283.799 57.4578 283.468 57.4578 283.104C57.4578 282.731 57.5418 282.399 57.7098 282.11C57.8871 281.821 58.1251 281.587 58.4238 281.41C58.7225 281.233 59.0538 281.144 59.4178 281.144C59.7911 281.144 60.1271 281.233 60.4258 281.41C60.7245 281.587 60.9625 281.821 61.1398 282.11C61.3171 282.399 61.4058 282.731 61.4058 283.104C61.4058 283.468 61.3171 283.799 61.1398 284.098C60.9625 284.397 60.7245 284.635 60.4258 284.812C60.1365 284.989 59.8005 285.078 59.4178 285.078ZM59.4178 284.084C59.6978 284.084 59.9265 283.995 60.1038 283.818C60.2811 283.631 60.3698 283.393 60.3698 283.104C60.3698 282.815 60.2765 282.581 60.0898 282.404C59.9125 282.227 59.6885 282.138 59.4178 282.138C59.1471 282.138 58.9231 282.227 58.7458 282.404C58.5778 282.581 58.4938 282.815 58.4938 283.104C58.4938 283.393 58.5778 283.631 58.7458 283.818C58.9231 283.995 59.1471 284.084 59.4178 284.084Z" fill="#787878"/>
<path d="M43.616 225.14C42.972 225.14 42.3933 224.991 41.88 224.692C41.376 224.393 40.9746 223.992 40.676 223.488C40.3773 222.984 40.228 222.424 40.228 221.808C40.228 220.949 40.5266 220.095 41.124 219.246L43.98 215.284H45.506L42.58 219.274L42.104 219.526C42.216 219.33 42.3513 219.167 42.51 219.036C42.6686 218.896 42.8646 218.789 43.098 218.714C43.3313 218.639 43.6066 218.602 43.924 218.602C44.4933 218.602 45.0066 218.737 45.464 219.008C45.9306 219.279 46.304 219.652 46.584 220.128C46.8733 220.595 47.018 221.141 47.018 221.766C47.018 222.382 46.864 222.947 46.556 223.46C46.2573 223.973 45.8466 224.384 45.324 224.692C44.8106 224.991 44.2413 225.14 43.616 225.14ZM43.616 223.908C44.008 223.908 44.358 223.815 44.666 223.628C44.9833 223.432 45.2306 223.175 45.408 222.858C45.5946 222.531 45.688 222.167 45.688 221.766C45.688 221.365 45.5946 221.005 45.408 220.688C45.2306 220.361 44.9833 220.105 44.666 219.918C44.358 219.731 44.008 219.638 43.616 219.638C43.224 219.638 42.8693 219.731 42.552 219.918C42.244 220.105 41.9966 220.361 41.81 220.688C41.6326 221.005 41.544 221.365 41.544 221.766C41.544 222.167 41.6326 222.531 41.81 222.858C41.9966 223.185 42.244 223.441 42.552 223.628C42.8693 223.815 43.224 223.908 43.616 223.908ZM52.1903 225.14C51.4623 225.14 50.795 224.935 50.1883 224.524C49.591 224.113 49.115 223.535 48.7603 222.788C48.4056 222.032 48.2283 221.145 48.2283 220.128C48.2283 219.111 48.401 218.229 48.7463 217.482C49.101 216.735 49.577 216.161 50.1743 215.76C50.7716 215.349 51.4296 215.144 52.1483 215.144C52.8856 215.144 53.553 215.349 54.1503 215.76C54.7476 216.161 55.219 216.735 55.5643 217.482C55.919 218.229 56.0963 219.115 56.0963 220.142C56.0963 221.159 55.919 222.046 55.5643 222.802C55.219 223.549 54.7476 224.127 54.1503 224.538C53.5623 224.939 52.909 225.14 52.1903 225.14ZM52.1623 223.894C52.6756 223.894 53.1236 223.754 53.5063 223.474C53.8983 223.185 54.2063 222.76 54.4303 222.2C54.6543 221.64 54.7663 220.949 54.7663 220.128C54.7663 219.307 54.6543 218.621 54.4303 218.07C54.2063 217.51 53.8983 217.09 53.5063 216.81C53.1143 216.521 52.6616 216.376 52.1483 216.376C51.6443 216.376 51.1963 216.521 50.8043 216.81C50.4123 217.09 50.1043 217.51 49.8803 218.07C49.6656 218.621 49.5583 219.307 49.5583 220.128C49.5583 220.949 49.6656 221.64 49.8803 222.2C50.1043 222.76 50.4123 223.185 50.8043 223.474C51.1963 223.754 51.649 223.894 52.1623 223.894ZM57.6258 225L63.8558 215.284H65.1298L58.8998 225H57.6258ZM63.3238 225.14C62.9598 225.14 62.6285 225.051 62.3298 224.874C62.0311 224.697 61.7931 224.463 61.6158 224.174C61.4385 223.875 61.3498 223.539 61.3498 223.166C61.3498 222.802 61.4385 222.475 61.6158 222.186C61.7931 221.887 62.0311 221.649 62.3298 221.472C62.6285 221.295 62.9598 221.206 63.3238 221.206C63.6878 221.206 64.0191 221.295 64.3178 221.472C64.6258 221.649 64.8685 221.887 65.0458 222.186C65.2231 222.475 65.3118 222.802 65.3118 223.166C65.3118 223.539 65.2231 223.875 65.0458 224.174C64.8685 224.463 64.6305 224.697 64.3318 224.874C64.0331 225.051 63.6971 225.14 63.3238 225.14ZM63.3238 224.146C63.6038 224.146 63.8325 224.057 64.0098 223.88C64.1871 223.693 64.2758 223.455 64.2758 223.166C64.2758 222.886 64.1825 222.657 63.9958 222.48C63.8185 222.293 63.5945 222.2 63.3238 222.2C63.0531 222.2 62.8291 222.293 62.6518 222.48C62.4745 222.657 62.3858 222.886 62.3858 223.166C62.3858 223.455 62.4745 223.693 62.6518 223.88C62.8291 224.057 63.0531 224.146 63.3238 224.146ZM59.4178 219.078C59.0631 219.078 58.7365 218.989 58.4378 218.812C58.1391 218.635 57.9011 218.397 57.7238 218.098C57.5465 217.799 57.4578 217.468 57.4578 217.104C57.4578 216.731 57.5418 216.399 57.7098 216.11C57.8871 215.821 58.1251 215.587 58.4238 215.41C58.7225 215.233 59.0538 215.144 59.4178 215.144C59.7911 215.144 60.1271 215.233 60.4258 215.41C60.7245 215.587 60.9625 215.821 61.1398 216.11C61.3171 216.399 61.4058 216.731 61.4058 217.104C61.4058 217.468 61.3171 217.799 61.1398 218.098C60.9625 218.397 60.7245 218.635 60.4258 218.812C60.1365 218.989 59.8005 219.078 59.4178 219.078ZM59.4178 218.084C59.6978 218.084 59.9265 217.995 60.1038 217.818C60.2811 217.631 60.3698 217.393 60.3698 217.104C60.3698 216.815 60.2765 216.581 60.0898 216.404C59.9125 216.227 59.6885 216.138 59.4178 216.138C59.1471 216.138 58.9231 216.227 58.7458 216.404C58.5778 216.581 58.4938 216.815 58.4938 217.104C58.4938 217.393 58.5778 217.631 58.7458 217.818C58.9231 217.995 59.1471 218.084 59.4178 218.084Z" fill="#787878"/>
<path d="M43.723 159.14C43.079 159.14 42.5097 159.019 42.015 158.776C41.5297 158.533 41.1517 158.197 40.881 157.768C40.6104 157.339 40.475 156.853 40.475 156.312C40.475 155.873 40.559 155.472 40.727 155.108C40.895 154.744 41.1424 154.436 41.469 154.184C41.7957 153.923 42.1784 153.736 42.617 153.624L42.659 154.002C42.2857 153.899 41.9684 153.736 41.707 153.512C41.4457 153.279 41.245 153.008 41.105 152.7C40.9744 152.383 40.909 152.047 40.909 151.692C40.909 151.188 41.0304 150.745 41.273 150.362C41.5157 149.979 41.847 149.681 42.267 149.466C42.6964 149.242 43.1817 149.13 43.723 149.13C44.2737 149.13 44.759 149.242 45.179 149.466C45.599 149.681 45.9304 149.979 46.173 150.362C46.4157 150.745 46.537 151.188 46.537 151.692C46.537 152.047 46.467 152.383 46.327 152.7C46.1964 153.008 46.0004 153.279 45.739 153.512C45.487 153.736 45.1744 153.899 44.801 154.002L44.829 153.624C45.277 153.736 45.6597 153.923 45.977 154.184C46.3037 154.436 46.551 154.744 46.719 155.108C46.8964 155.472 46.985 155.873 46.985 156.312C46.985 156.853 46.8497 157.339 46.579 157.768C46.3084 158.197 45.9257 158.533 45.431 158.776C44.9457 159.019 44.3764 159.14 43.723 159.14ZM43.723 157.95C44.115 157.95 44.4557 157.875 44.745 157.726C45.0437 157.567 45.277 157.353 45.445 157.082C45.6224 156.811 45.711 156.499 45.711 156.144C45.711 155.799 45.6224 155.491 45.445 155.22C45.277 154.949 45.0437 154.739 44.745 154.59C44.4557 154.431 44.115 154.352 43.723 154.352C43.3404 154.352 42.9997 154.431 42.701 154.59C42.4024 154.739 42.1644 154.949 41.987 155.22C41.819 155.491 41.735 155.799 41.735 156.144C41.735 156.499 41.819 156.811 41.987 157.082C42.1644 157.353 42.4024 157.567 42.701 157.726C42.9997 157.875 43.3404 157.95 43.723 157.95ZM43.723 153.33C44.1897 153.33 44.5724 153.185 44.871 152.896C45.1697 152.607 45.319 152.233 45.319 151.776C45.319 151.328 45.1697 150.964 44.871 150.684C44.5724 150.395 44.1897 150.25 43.723 150.25C43.2657 150.25 42.8877 150.395 42.589 150.684C42.2904 150.964 42.141 151.328 42.141 151.776C42.141 152.233 42.2904 152.607 42.589 152.896C42.8877 153.185 43.2657 153.33 43.723 153.33ZM52.1903 159.14C51.4623 159.14 50.795 158.935 50.1883 158.524C49.591 158.113 49.115 157.535 48.7603 156.788C48.4056 156.032 48.2283 155.145 48.2283 154.128C48.2283 153.111 48.401 152.229 48.7463 151.482C49.101 150.735 49.577 150.161 50.1743 149.76C50.7716 149.349 51.4296 149.144 52.1483 149.144C52.8856 149.144 53.553 149.349 54.1503 149.76C54.7476 150.161 55.219 150.735 55.5643 151.482C55.919 152.229 56.0963 153.115 56.0963 154.142C56.0963 155.159 55.919 156.046 55.5643 156.802C55.219 157.549 54.7476 158.127 54.1503 158.538C53.5623 158.939 52.909 159.14 52.1903 159.14ZM52.1623 157.894C52.6756 157.894 53.1236 157.754 53.5063 157.474C53.8983 157.185 54.2063 156.76 54.4303 156.2C54.6543 155.64 54.7663 154.949 54.7663 154.128C54.7663 153.307 54.6543 152.621 54.4303 152.07C54.2063 151.51 53.8983 151.09 53.5063 150.81C53.1143 150.521 52.6616 150.376 52.1483 150.376C51.6443 150.376 51.1963 150.521 50.8043 150.81C50.4123 151.09 50.1043 151.51 49.8803 152.07C49.6656 152.621 49.5583 153.307 49.5583 154.128C49.5583 154.949 49.6656 155.64 49.8803 156.2C50.1043 156.76 50.4123 157.185 50.8043 157.474C51.1963 157.754 51.649 157.894 52.1623 157.894ZM57.6258 159L63.8558 149.284H65.1298L58.8998 159H57.6258ZM63.3238 159.14C62.9598 159.14 62.6285 159.051 62.3298 158.874C62.0311 158.697 61.7931 158.463 61.6158 158.174C61.4385 157.875 61.3498 157.539 61.3498 157.166C61.3498 156.802 61.4385 156.475 61.6158 156.186C61.7931 155.887 62.0311 155.649 62.3298 155.472C62.6285 155.295 62.9598 155.206 63.3238 155.206C63.6878 155.206 64.0191 155.295 64.3178 155.472C64.6258 155.649 64.8685 155.887 65.0458 156.186C65.2231 156.475 65.3118 156.802 65.3118 157.166C65.3118 157.539 65.2231 157.875 65.0458 158.174C64.8685 158.463 64.6305 158.697 64.3318 158.874C64.0331 159.051 63.6971 159.14 63.3238 159.14ZM63.3238 158.146C63.6038 158.146 63.8325 158.057 64.0098 157.88C64.1871 157.693 64.2758 157.455 64.2758 157.166C64.2758 156.886 64.1825 156.657 63.9958 156.48C63.8185 156.293 63.5945 156.2 63.3238 156.2C63.0531 156.2 62.8291 156.293 62.6518 156.48C62.4745 156.657 62.3858 156.886 62.3858 157.166C62.3858 157.455 62.4745 157.693 62.6518 157.88C62.8291 158.057 63.0531 158.146 63.3238 158.146ZM59.4178 153.078C59.0631 153.078 58.7365 152.989 58.4378 152.812C58.1391 152.635 57.9011 152.397 57.7238 152.098C57.5465 151.799 57.4578 151.468 57.4578 151.104C57.4578 150.731 57.5418 150.399 57.7098 150.11C57.8871 149.821 58.1251 149.587 58.4238 149.41C58.7225 149.233 59.0538 149.144 59.4178 149.144C59.7911 149.144 60.1271 149.233 60.4258 149.41C60.7245 149.587 60.9625 149.821 61.1398 150.11C61.3171 150.399 61.4058 150.731 61.4058 151.104C61.4058 151.468 61.3171 151.799 61.1398 152.098C60.9625 152.397 60.7245 152.635 60.4258 152.812C60.1365 152.989 59.8005 153.078 59.4178 153.078ZM59.4178 152.084C59.6978 152.084 59.9265 151.995 60.1038 151.818C60.2811 151.631 60.3698 151.393 60.3698 151.104C60.3698 150.815 60.2765 150.581 60.0898 150.404C59.9125 150.227 59.6885 150.138 59.4178 150.138C59.1471 150.138 58.9231 150.227 58.7458 150.404C58.5778 150.581 58.4938 150.815 58.4938 151.104C58.4938 151.393 58.5778 151.631 58.7458 151.818C58.9231 151.995 59.1471 152.084 59.4178 152.084Z" fill="#787878"/>
<path d="M35.9513 93V83.284H37.2533V93H35.9513ZM33.9633 84.46V83.284H37.1133V84.46H33.9633ZM43.0028 93.14C42.2748 93.14 41.6075 92.9347 41.0008 92.524C40.4035 92.1133 39.9275 91.5347 39.5728 90.788C39.2181 90.032 39.0408 89.1453 39.0408 88.128C39.0408 87.1107 39.2135 86.2287 39.5588 85.482C39.9135 84.7353 40.3895 84.1613 40.9868 83.76C41.5841 83.3493 42.2421 83.144 42.9608 83.144C43.6981 83.144 44.3655 83.3493 44.9628 83.76C45.5601 84.1613 46.0315 84.7353 46.3768 85.482C46.7315 86.2287 46.9088 87.1153 46.9088 88.142C46.9088 89.1593 46.7315 90.046 46.3768 90.802C46.0315 91.5487 45.5601 92.1273 44.9628 92.538C44.3748 92.9393 43.7215 93.14 43.0028 93.14ZM42.9748 91.894C43.4881 91.894 43.9361 91.754 44.3188 91.474C44.7108 91.1847 45.0188 90.76 45.2428 90.2C45.4668 89.64 45.5788 88.9493 45.5788 88.128C45.5788 87.3067 45.4668 86.6207 45.2428 86.07C45.0188 85.51 44.7108 85.09 44.3188 84.81C43.9268 84.5207 43.4741 84.376 42.9608 84.376C42.4568 84.376 42.0088 84.5207 41.6168 84.81C41.2248 85.09 40.9168 85.51 40.6928 86.07C40.4781 86.6207 40.3708 87.3067 40.3708 88.128C40.3708 88.9493 40.4781 89.64 40.6928 90.2C40.9168 90.76 41.2248 91.1847 41.6168 91.474C42.0088 91.754 42.4615 91.894 42.9748 91.894ZM52.1903 93.14C51.4623 93.14 50.795 92.9347 50.1883 92.524C49.591 92.1133 49.115 91.5347 48.7603 90.788C48.4056 90.032 48.2283 89.1453 48.2283 88.128C48.2283 87.1107 48.401 86.2287 48.7463 85.482C49.101 84.7353 49.577 84.1613 50.1743 83.76C50.7716 83.3493 51.4296 83.144 52.1483 83.144C52.8856 83.144 53.553 83.3493 54.1503 83.76C54.7476 84.1613 55.219 84.7353 55.5643 85.482C55.919 86.2287 56.0963 87.1153 56.0963 88.142C56.0963 89.1593 55.919 90.046 55.5643 90.802C55.219 91.5487 54.7476 92.1273 54.1503 92.538C53.5623 92.9393 52.909 93.14 52.1903 93.14ZM52.1623 91.894C52.6756 91.894 53.1236 91.754 53.5063 91.474C53.8983 91.1847 54.2063 90.76 54.4303 90.2C54.6543 89.64 54.7663 88.9493 54.7663 88.128C54.7663 87.3067 54.6543 86.6207 54.4303 86.07C54.2063 85.51 53.8983 85.09 53.5063 84.81C53.1143 84.5207 52.6616 84.376 52.1483 84.376C51.6443 84.376 51.1963 84.5207 50.8043 84.81C50.4123 85.09 50.1043 85.51 49.8803 86.07C49.6656 86.6207 49.5583 87.3067 49.5583 88.128C49.5583 88.9493 49.6656 89.64 49.8803 90.2C50.1043 90.76 50.4123 91.1847 50.8043 91.474C51.1963 91.754 51.649 91.894 52.1623 91.894ZM57.6258 93L63.8558 83.284H65.1298L58.8998 93H57.6258ZM63.3238 93.14C62.9598 93.14 62.6285 93.0513 62.3298 92.874C62.0311 92.6967 61.7931 92.4633 61.6158 92.174C61.4385 91.8753 61.3498 91.5393 61.3498 91.166C61.3498 90.802 61.4385 90.4753 61.6158 90.186C61.7931 89.8873 62.0311 89.6493 62.3298 89.472C62.6285 89.2947 62.9598 89.206 63.3238 89.206C63.6878 89.206 64.0191 89.2947 64.3178 89.472C64.6258 89.6493 64.8685 89.8873 65.0458 90.186C65.2231 90.4753 65.3118 90.802 65.3118 91.166C65.3118 91.5393 65.2231 91.8753 65.0458 92.174C64.8685 92.4633 64.6305 92.6967 64.3318 92.874C64.0331 93.0513 63.6971 93.14 63.3238 93.14ZM63.3238 92.146C63.6038 92.146 63.8325 92.0573 64.0098 91.88C64.1871 91.6933 64.2758 91.4553 64.2758 91.166C64.2758 90.886 64.1825 90.6573 63.9958 90.48C63.8185 90.2933 63.5945 90.2 63.3238 90.2C63.0531 90.2 62.8291 90.2933 62.6518 90.48C62.4745 90.6573 62.3858 90.886 62.3858 91.166C62.3858 91.4553 62.4745 91.6933 62.6518 91.88C62.8291 92.0573 63.0531 92.146 63.3238 92.146ZM59.4178 87.078C59.0631 87.078 58.7365 86.9893 58.4378 86.812C58.1391 86.6347 57.9011 86.3967 57.7238 86.098C57.5465 85.7993 57.4578 85.468 57.4578 85.104C57.4578 84.7307 57.5418 84.3993 57.7098 84.11C57.8871 83.8207 58.1251 83.5873 58.4238 83.41C58.7225 83.2327 59.0538 83.144 59.4178 83.144C59.7911 83.144 60.1271 83.2327 60.4258 83.41C60.7245 83.5873 60.9625 83.8207 61.1398 84.11C61.3171 84.3993 61.4058 84.7307 61.4058 85.104C61.4058 85.468 61.3171 85.7993 61.1398 86.098C60.9625 86.3967 60.7245 86.6347 60.4258 86.812C60.1365 86.9893 59.8005 87.078 59.4178 87.078ZM59.4178 86.084C59.6978 86.084 59.9265 85.9953 60.1038 85.818C60.2811 85.6313 60.3698 85.3933 60.3698 85.104C60.3698 84.8147 60.2765 84.5813 60.0898 84.404C59.9125 84.2267 59.6885 84.138 59.4178 84.138C59.1471 84.138 58.9231 84.2267 58.7458 84.404C58.5778 84.5813 58.4938 84.8147 58.4938 85.104C58.4938 85.3933 58.5778 85.6313 58.7458 85.818C58.9231 85.9953 59.1471 86.084 59.4178 86.084Z" fill="#787878"/>
<line x1="78.5" y1="79" x2="78.5" y2="427" stroke="#979797"/>
<line x1="78" y1="427.5" x2="1142" y2="427.5" stroke="#979797"/>
<path d="M148.938 454.14C148.247 454.14 147.603 454.014 147.006 453.762C146.408 453.501 145.886 453.141 145.438 452.684C144.99 452.217 144.64 451.681 144.388 451.074C144.136 450.467 144.01 449.819 144.01 449.128C144.01 448.428 144.136 447.779 144.388 447.182C144.64 446.575 144.985 446.043 145.424 445.586C145.872 445.129 146.39 444.774 146.978 444.522C147.575 444.27 148.219 444.144 148.91 444.144C149.6 444.144 150.24 444.27 150.828 444.522C151.425 444.774 151.948 445.129 152.396 445.586C152.844 446.043 153.189 446.575 153.432 447.182C153.684 447.789 153.81 448.442 153.81 449.142C153.81 449.833 153.684 450.481 153.432 451.088C153.189 451.695 152.844 452.227 152.396 452.684C151.957 453.141 151.439 453.501 150.842 453.762C150.254 454.014 149.619 454.14 148.938 454.14ZM153.586 454.686L149.036 450.136L149.89 449.282L154.426 453.832L153.586 454.686ZM148.91 452.88C149.6 452.88 150.212 452.721 150.744 452.404C151.276 452.077 151.691 451.634 151.99 451.074C152.298 450.505 152.452 449.856 152.452 449.128C152.452 448.587 152.363 448.092 152.186 447.644C152.018 447.187 151.775 446.79 151.458 446.454C151.14 446.118 150.767 445.861 150.338 445.684C149.908 445.497 149.432 445.404 148.91 445.404C148.219 445.404 147.608 445.563 147.076 445.88C146.544 446.197 146.124 446.636 145.816 447.196C145.517 447.756 145.368 448.4 145.368 449.128C145.368 449.669 145.456 450.173 145.634 450.64C145.811 451.097 146.054 451.494 146.362 451.83C146.679 452.157 147.052 452.413 147.482 452.6C147.92 452.787 148.396 452.88 148.91 452.88ZM157.217 454V444.284H158.519V454H157.217ZM155.229 445.46V444.284H158.379V445.46H155.229Z" fill="#787878"/>
<path d="M384.077 454.14C383.387 454.14 382.743 454.014 382.145 453.762C381.548 453.501 381.025 453.141 380.577 452.684C380.129 452.217 379.779 451.681 379.527 451.074C379.275 450.467 379.149 449.819 379.149 449.128C379.149 448.428 379.275 447.779 379.527 447.182C379.779 446.575 380.125 446.043 380.563 445.586C381.011 445.129 381.529 444.774 382.117 444.522C382.715 444.27 383.359 444.144 384.049 444.144C384.74 444.144 385.379 444.27 385.967 444.522C386.565 444.774 387.087 445.129 387.535 445.586C387.983 446.043 388.329 446.575 388.571 447.182C388.823 447.789 388.949 448.442 388.949 449.142C388.949 449.833 388.823 450.481 388.571 451.088C388.329 451.695 387.983 452.227 387.535 452.684C387.097 453.141 386.579 453.501 385.981 453.762C385.393 454.014 384.759 454.14 384.077 454.14ZM388.725 454.686L384.175 450.136L385.029 449.282L389.565 453.832L388.725 454.686ZM384.049 452.88C384.74 452.88 385.351 452.721 385.883 452.404C386.415 452.077 386.831 451.634 387.129 451.074C387.437 450.505 387.591 449.856 387.591 449.128C387.591 448.587 387.503 448.092 387.325 447.644C387.157 447.187 386.915 446.79 386.597 446.454C386.28 446.118 385.907 445.861 385.477 445.684C385.048 445.497 384.572 445.404 384.049 445.404C383.359 445.404 382.747 445.563 382.215 445.88C381.683 446.197 381.263 446.636 380.955 447.196C380.657 447.756 380.507 448.4 380.507 449.128C380.507 449.669 380.596 450.173 380.773 450.64C380.951 451.097 381.193 451.494 381.501 451.83C381.819 452.157 382.192 452.413 382.621 452.6C383.06 452.787 383.536 452.88 384.049 452.88ZM390.397 453.202L393.981 449.422C394.345 449.049 394.629 448.727 394.835 448.456C395.04 448.176 395.185 447.919 395.269 447.686C395.362 447.453 395.409 447.21 395.409 446.958C395.409 446.463 395.25 446.076 394.933 445.796C394.615 445.516 394.205 445.376 393.701 445.376C393.206 445.376 392.772 445.497 392.399 445.74C392.025 445.973 391.694 446.337 391.405 446.832L390.481 446.062C390.863 445.427 391.325 444.951 391.867 444.634C392.408 444.307 393.033 444.144 393.743 444.144C394.34 444.144 394.858 444.261 395.297 444.494C395.745 444.727 396.09 445.054 396.333 445.474C396.575 445.894 396.697 446.384 396.697 446.944C396.697 447.345 396.645 447.705 396.543 448.022C396.449 448.339 396.277 448.666 396.025 449.002C395.782 449.329 395.441 449.721 395.003 450.178L392.105 453.16L390.397 453.202ZM390.397 454V453.202L391.517 452.824H396.921V454H390.397Z" fill="#787878"/>
<path d="M617.598 454.14C616.907 454.14 616.263 454.014 615.666 453.762C615.068 453.501 614.546 453.141 614.098 452.684C613.65 452.217 613.3 451.681 613.048 451.074C612.796 450.467 612.67 449.819 612.67 449.128C612.67 448.428 612.796 447.779 613.048 447.182C613.3 446.575 613.645 446.043 614.084 445.586C614.532 445.129 615.05 444.774 615.638 444.522C616.235 444.27 616.879 444.144 617.57 444.144C618.26 444.144 618.9 444.27 619.488 444.522C620.085 444.774 620.608 445.129 621.056 445.586C621.504 446.043 621.849 446.575 622.092 447.182C622.344 447.789 622.47 448.442 622.47 449.142C622.47 449.833 622.344 450.481 622.092 451.088C621.849 451.695 621.504 452.227 621.056 452.684C620.617 453.141 620.099 453.501 619.502 453.762C618.914 454.014 618.279 454.14 617.598 454.14ZM622.246 454.686L617.696 450.136L618.55 449.282L623.086 453.832L622.246 454.686ZM617.57 452.88C618.26 452.88 618.872 452.721 619.404 452.404C619.936 452.077 620.351 451.634 620.65 451.074C620.958 450.505 621.112 449.856 621.112 449.128C621.112 448.587 621.023 448.092 620.846 447.644C620.678 447.187 620.435 446.79 620.118 446.454C619.8 446.118 619.427 445.861 618.998 445.684C618.568 445.497 618.092 445.404 617.57 445.404C616.879 445.404 616.268 445.563 615.736 445.88C615.204 446.197 614.784 446.636 614.476 447.196C614.177 447.756 614.028 448.4 614.028 449.128C614.028 449.669 614.116 450.173 614.294 450.64C614.471 451.097 614.714 451.494 615.022 451.83C615.339 452.157 615.712 452.413 616.142 452.6C616.58 452.787 617.056 452.88 617.57 452.88ZM626.913 454.14C626.278 454.14 625.7 454.023 625.177 453.79C624.664 453.547 624.23 453.197 623.875 452.74L624.771 451.844C624.986 452.171 625.28 452.432 625.653 452.628C626.026 452.815 626.442 452.908 626.899 452.908C627.328 452.908 627.697 452.829 628.005 452.67C628.322 452.502 628.57 452.269 628.747 451.97C628.934 451.671 629.027 451.326 629.027 450.934C629.027 450.533 628.934 450.187 628.747 449.898C628.57 449.599 628.318 449.371 627.991 449.212C627.664 449.053 627.277 448.974 626.829 448.974C626.661 448.974 626.493 448.988 626.325 449.016C626.157 449.035 625.994 449.067 625.835 449.114L626.395 448.358C626.572 448.274 626.764 448.209 626.969 448.162C627.174 448.115 627.38 448.092 627.585 448.092C628.108 448.092 628.574 448.213 628.985 448.456C629.405 448.699 629.736 449.039 629.979 449.478C630.231 449.917 630.357 450.425 630.357 451.004C630.357 451.62 630.208 452.166 629.909 452.642C629.62 453.109 629.218 453.477 628.705 453.748C628.192 454.009 627.594 454.14 626.913 454.14ZM625.835 449.114V448.316L628.677 445.082L630.245 445.068L627.319 448.386L625.835 449.114ZM624.337 445.46V444.284H630.245V445.068L629.097 445.46H624.337Z" fill="#787878"/>
<path d="M837.681 454.14C836.99 454.14 836.346 454.014 835.749 453.762C835.151 453.501 834.629 453.141 834.181 452.684C833.733 452.217 833.383 451.681 833.131 451.074C832.879 450.467 832.753 449.819 832.753 449.128C832.753 448.428 832.879 447.779 833.131 447.182C833.383 446.575 833.728 446.043 834.167 445.586C834.615 445.129 835.133 444.774 835.721 444.522C836.318 444.27 836.962 444.144 837.653 444.144C838.343 444.144 838.983 444.27 839.571 444.522C840.168 444.774 840.691 445.129 841.139 445.586C841.587 446.043 841.932 446.575 842.175 447.182C842.427 447.789 842.553 448.442 842.553 449.142C842.553 449.833 842.427 450.481 842.175 451.088C841.932 451.695 841.587 452.227 841.139 452.684C840.7 453.141 840.182 453.501 839.585 453.762C838.997 454.014 838.362 454.14 837.681 454.14ZM842.329 454.686L837.779 450.136L838.633 449.282L843.169 453.832L842.329 454.686ZM837.653 452.88C838.343 452.88 838.955 452.721 839.487 452.404C840.019 452.077 840.434 451.634 840.733 451.074C841.041 450.505 841.195 449.856 841.195 449.128C841.195 448.587 841.106 448.092 840.929 447.644C840.761 447.187 840.518 446.79 840.201 446.454C839.883 446.118 839.51 445.861 839.081 445.684C838.651 445.497 838.175 445.404 837.653 445.404C836.962 445.404 836.351 445.563 835.819 445.88C835.287 446.197 834.867 446.636 834.559 447.196C834.26 447.756 834.111 448.4 834.111 449.128C834.111 449.669 834.199 450.173 834.377 450.64C834.554 451.097 834.797 451.494 835.105 451.83C835.422 452.157 835.795 452.413 836.225 452.6C836.663 452.787 837.139 452.88 837.653 452.88ZM844 450.654L847.542 444.284H849.026L845.414 450.654H844ZM844 451.466V450.654L844.56 450.29H851.448V451.466H844ZM848.746 454V447.574H850.048V454H848.746Z" fill="#787878"/>
<path d="M1065.08 454.14C1064.39 454.14 1063.74 454.014 1063.15 453.762C1062.55 453.501 1062.03 453.141 1061.58 452.684C1061.13 452.217 1060.78 451.681 1060.53 451.074C1060.28 450.467 1060.15 449.819 1060.15 449.128C1060.15 448.428 1060.28 447.779 1060.53 447.182C1060.78 446.575 1061.12 446.043 1061.56 445.586C1062.01 445.129 1062.53 444.774 1063.12 444.522C1063.71 444.27 1064.36 444.144 1065.05 444.144C1065.74 444.144 1066.38 444.27 1066.97 444.522C1067.56 444.774 1068.09 445.129 1068.54 445.586C1068.98 446.043 1069.33 446.575 1069.57 447.182C1069.82 447.789 1069.95 448.442 1069.95 449.142C1069.95 449.833 1069.82 450.481 1069.57 451.088C1069.33 451.695 1068.98 452.227 1068.54 452.684C1068.1 453.141 1067.58 453.501 1066.98 453.762C1066.39 454.014 1065.76 454.14 1065.08 454.14ZM1069.73 454.686L1065.18 450.136L1066.03 449.282L1070.57 453.832L1069.73 454.686ZM1065.05 452.88C1065.74 452.88 1066.35 452.721 1066.88 452.404C1067.42 452.077 1067.83 451.634 1068.13 451.074C1068.44 450.505 1068.59 449.856 1068.59 449.128C1068.59 448.587 1068.5 448.092 1068.33 447.644C1068.16 447.187 1067.91 446.79 1067.6 446.454C1067.28 446.118 1066.91 445.861 1066.48 445.684C1066.05 445.497 1065.57 445.404 1065.05 445.404C1064.36 445.404 1063.75 445.563 1063.22 445.88C1062.68 446.197 1062.26 446.636 1061.96 447.196C1061.66 447.756 1061.51 448.4 1061.51 449.128C1061.51 449.669 1061.6 450.173 1061.77 450.64C1061.95 451.097 1062.19 451.494 1062.5 451.83C1062.82 452.157 1063.19 452.413 1063.62 452.6C1064.06 452.787 1064.54 452.88 1065.05 452.88ZM1074.41 454.14C1073.74 454.14 1073.15 454.023 1072.63 453.79C1072.12 453.547 1071.68 453.197 1071.33 452.74L1072.22 451.844C1072.44 452.171 1072.73 452.432 1073.1 452.628C1073.49 452.815 1073.91 452.908 1074.38 452.908C1074.82 452.908 1075.2 452.824 1075.53 452.656C1075.86 452.488 1076.12 452.255 1076.31 451.956C1076.51 451.648 1076.6 451.284 1076.6 450.864C1076.6 450.435 1076.51 450.071 1076.32 449.772C1076.14 449.473 1075.89 449.249 1075.57 449.1C1075.26 448.941 1074.92 448.862 1074.55 448.862C1074.16 448.862 1073.81 448.909 1073.5 449.002C1073.19 449.095 1072.89 449.254 1072.61 449.478L1072.63 448.638C1072.79 448.442 1072.97 448.283 1073.17 448.162C1073.38 448.041 1073.61 447.947 1073.87 447.882C1074.14 447.817 1074.44 447.784 1074.78 447.784C1075.46 447.784 1076.03 447.924 1076.49 448.204C1076.96 448.484 1077.31 448.862 1077.56 449.338C1077.81 449.814 1077.93 450.346 1077.93 450.934C1077.93 451.55 1077.78 452.101 1077.47 452.586C1077.17 453.071 1076.76 453.454 1076.23 453.734C1075.69 454.005 1075.09 454.14 1074.41 454.14ZM1072.61 449.478L1071.9 448.764L1072.33 444.284H1073.54L1073.05 448.89L1072.61 449.478ZM1072.6 445.46L1072.33 444.284H1077.44V445.46H1072.6Z" fill="#787878"/>
<rect x="134" y="145" width="34" height="269" rx="17" fill="#704FE6"/>
<rect x="1052" y="79" width="34" height="335" rx="17" fill="#25D366"/>
<rect x="371" y="327" width="34" height="87" rx="17" fill="#FF003D"/>
<rect x="604" y="107" width="34" height="307" rx="17" fill="#25D366"/>
<rect x="825" y="202" width="34" height="212" rx="17" fill="#34B7F1"/>
</svg>
