<svg width="13" height="15" viewBox="0 0 13 15" fill="none" xmlns="http://www.w3.org/2000/svg">
<path d="M8.68765 0.968765C8.13322 0.967281 7.584 1.07568 7.07172 1.2877C6.55943 1.49972 6.09424 1.81116 5.70302 2.20402L0.533648 7.37451C0.375065 7.5328 0.285856 7.7476 0.285645 7.97166C0.285434 8.19572 0.374239 8.41068 0.532523 8.56926C0.690808 8.72785 0.905606 8.81706 1.12967 8.81727C1.35372 8.81748 1.56869 8.72867 1.72727 8.57039L6.8989 3.39764C7.37999 2.95535 8.01339 2.71607 8.66675 2.7298C9.32012 2.74352 9.9429 3.00918 10.405 3.47128C10.8671 3.93338 11.1328 4.55617 11.1465 5.20954C11.1602 5.8629 10.9209 6.49629 10.4786 6.97739L4.51277 12.9433C4.35283 13.0923 4.14127 13.1734 3.92269 13.1696C3.7041 13.1657 3.49554 13.0772 3.34095 12.9226C3.18636 12.768 3.09781 12.5594 3.09395 12.3409C3.09009 12.1223 3.17123 11.9107 3.32027 11.7508L9.28615 5.78489C9.44473 5.62646 9.53388 5.41151 9.53399 5.18735C9.53409 4.96319 9.44514 4.74816 9.28671 4.58958C9.12828 4.43099 8.91333 4.34184 8.68917 4.34174C8.46501 4.34163 8.24998 4.43058 8.0914 4.58902L2.1244 10.5571C1.68211 11.0382 1.44283 11.6716 1.45656 12.325C1.47028 12.9784 1.73594 13.6011 2.19804 14.0632C2.66014 14.5253 3.28293 14.791 3.93629 14.8047C4.58966 14.8185 5.22305 14.5792 5.70415 14.1369L11.67 8.17102C12.0629 7.78002 12.3745 7.31506 12.5867 6.80297C12.7989 6.29088 12.9076 5.74183 12.9064 5.18752C12.9052 4.069 12.4604 2.99663 11.6694 2.20572C10.8785 1.41481 9.80616 0.969956 8.68765 0.968765Z" fill="black"/>
</svg>
