<svg width="32" height="32" viewBox="0 0 32 32" fill="none" xmlns="http://www.w3.org/2000/svg">
<g clip-path="url(#clip0_64_978)">
<path d="M12.0003 19.9999H20.0004C20.2125 20.0002 20.4161 19.9158 20.5661 19.7658C20.7161 19.6158 20.8005 19.4122 20.8002 19.2001C20.7964 17.6491 19.8952 16.2405 18.4887 15.5869C18.946 15.0256 19.1971 14.3242 19.2003 13.6C19.2003 11.8328 17.7677 10.3999 16.0002 10.3999C14.233 10.3999 12.8004 11.8328 12.8004 13.6C12.8033 14.3242 13.0547 15.0256 13.512 15.5869C12.1055 16.2405 11.2043 17.6491 11.2002 19.2001C11.2002 19.4122 11.2843 19.6158 11.4346 19.7658C11.5846 19.9158 11.7882 20.0002 12.0003 19.9999ZM16.0002 12.0001C16.8841 12.0001 17.6004 12.7164 17.6004 13.6C17.6004 14.4836 16.8841 15.1999 16.0002 15.1999C15.1166 15.1999 14.4003 14.4836 14.4003 13.6C14.4012 12.7167 15.1169 12.001 16.0002 12.0001ZM15.2004 16.8001H16.8003C17.8172 16.8013 18.7233 17.442 19.0635 18.4H12.9369C13.2773 17.442 14.1835 16.8013 15.2004 16.8001Z" fill="#704FE6"/>
<path d="M1.59961 10.3999H9.59971C9.81182 10.4002 10.0154 10.3158 10.1654 10.1658C10.3157 10.0158 10.3998 9.81223 10.3998 9.60012C10.3957 8.04915 9.49453 6.64055 8.08799 5.98694C8.54531 5.42561 8.79668 4.72424 8.79961 4.00002C8.79961 2.23284 7.36699 0.799927 5.5998 0.799927C3.83232 0.799927 2.39971 2.23284 2.39971 4.00002C2.40293 4.72424 2.654 5.42561 3.11133 5.98694C1.70479 6.64055 0.803614 8.04915 0.799805 9.60012C0.799512 9.81223 0.883887 10.0158 1.03389 10.1658C1.18389 10.3158 1.3875 10.4002 1.59961 10.3999ZM5.5998 2.40012C6.4834 2.40012 7.19971 3.11643 7.19971 4.00002C7.19971 4.88362 6.4834 5.59993 5.5998 5.59993C4.71592 5.59993 3.99961 4.88362 3.99961 4.00002C4.00049 3.11672 4.7165 2.401 5.5998 2.40012ZM4.79971 7.20012H6.39961C7.4165 7.20129 8.32266 7.84202 8.66309 8.80002H2.53652C2.87666 7.84202 3.78281 7.20129 4.79971 7.20012Z" fill="#704FE6"/>
<path d="M22.3997 15.1999H30.3995C30.6119 15.2001 30.8152 15.1158 30.9655 14.9658C31.1155 14.8158 31.1996 14.6122 31.1996 14.4C31.1958 12.8491 30.2946 11.4405 28.8881 10.7869C29.3454 10.2255 29.5965 9.52417 29.5997 8.79995C29.5997 7.03276 28.1668 5.59985 26.3996 5.59985C24.6324 5.59985 23.1995 7.03276 23.1995 8.79995C23.2027 9.52417 23.4538 10.2255 23.9111 10.7869C22.5046 11.4405 21.6034 12.8491 21.5996 14.4C21.5996 14.6122 21.6837 14.8158 21.8337 14.9658C21.984 15.1158 22.1873 15.2001 22.3997 15.1999ZM26.3996 7.20005C27.2832 7.20005 27.9995 7.91636 27.9995 8.79995C27.9995 9.68354 27.2832 10.3999 26.3996 10.3999C25.516 10.3999 24.7997 9.68354 24.7997 8.79995C24.8006 7.91665 25.5163 7.20093 26.3996 7.20005ZM25.5995 12H27.1997C28.2163 12.0012 29.1225 12.6419 29.4629 13.6H23.3363C23.6768 12.6419 24.5829 12.0012 25.5995 12Z" fill="#704FE6"/>
<path d="M31.2 29.5999H30.3999V17.5999C30.4002 17.3878 30.3158 17.1842 30.1658 17.0342C30.0158 16.8842 29.8122 16.7998 29.6001 16.8001H23.1999C22.9878 16.7998 22.7842 16.8842 22.6342 17.0342C22.4842 17.1842 22.3998 17.3878 22.4001 17.5999V29.5999H20.0001V22.3999C20.0001 22.1878 19.916 21.9842 19.7657 21.8342C19.6157 21.6842 19.4121 21.5998 19.2 21.6001H12.8001C12.5877 21.5998 12.3844 21.6842 12.2341 21.8342C12.0841 21.9842 12 22.1878 12 22.3999V29.5999H9.6V12.7999C9.6 12.5878 9.51592 12.3842 9.36592 12.2342C9.21562 12.0842 9.0123 11.9998 8.7999 12.0001H2.4C2.18789 11.9998 1.98428 12.0842 1.83428 12.2342C1.68398 12.3842 1.5999 12.5878 1.5999 12.7999V29.5999H0.800098C0.358301 29.5999 0 29.9582 0 30.4C0 30.8418 0.358301 31.2001 0.800098 31.2001H31.2C31.6418 31.2001 32.0001 30.8418 32.0001 30.4C32.0001 29.9582 31.6418 29.5999 31.2 29.5999ZM24 18.4H28.8V29.5999H24V18.4ZM13.5999 23.2H18.3999V29.5999H13.5999V23.2ZM3.2001 13.6H8.0001V29.5999H3.2001V13.6Z" fill="#704FE6"/>
</g>
<defs>
<clipPath id="clip0_64_978">
<rect width="32" height="32" fill="white"/>
</clipPath>
</defs>
</svg>
