<svg width="50" height="50" viewBox="0 0 50 50" fill="none" xmlns="http://www.w3.org/2000/svg">
<circle cx="25" cy="25" r="24.5" fill="white" stroke="#DDDDDD"/>
<mask id="path-2-inside-1_64_6425" fill="white">
<path d="M16.5128 1.48474C22.0844 -0.526195 28.1891 -0.493462 33.7389 1.57711C39.2886 3.64768 43.9229 7.62155 46.8158 12.7905C49.7087 17.9595 50.6722 23.9878 49.5347 29.8009C48.3972 35.6141 45.2325 40.8346 40.6046 44.5319C35.9768 48.2292 30.1865 50.1632 24.2656 49.9892C18.3447 49.8152 12.678 47.5445 8.27525 43.5818C3.87253 39.6191 1.01989 34.2218 0.225715 28.3518C-0.56846 22.4819 0.747429 16.5206 3.93887 11.5304L4.57884 11.9397C1.48438 16.7783 0.208472 22.5584 0.978515 28.25C1.74856 33.9416 4.51452 39.1748 8.78346 43.0172C13.0524 46.8595 18.547 49.0612 24.2879 49.2299C30.0289 49.3986 35.6433 47.5234 40.1305 43.9384C44.6177 40.3534 47.6862 35.2916 48.7892 29.6551C49.8921 24.0185 48.9579 18.1734 46.1529 13.1615C43.3479 8.14962 38.8545 4.2965 33.4733 2.28884C28.0922 0.281191 22.173 0.249453 16.7707 2.19928L16.5128 1.48474Z"/>
</mask>
<path d="M16.5128 1.48474C22.0844 -0.526195 28.1891 -0.493462 33.7389 1.57711C39.2886 3.64768 43.9229 7.62155 46.8158 12.7905C49.7087 17.9595 50.6722 23.9878 49.5347 29.8009C48.3972 35.6141 45.2325 40.8346 40.6046 44.5319C35.9768 48.2292 30.1865 50.1632 24.2656 49.9892C18.3447 49.8152 12.678 47.5445 8.27525 43.5818C3.87253 39.6191 1.01989 34.2218 0.225715 28.3518C-0.56846 22.4819 0.747429 16.5206 3.93887 11.5304L4.57884 11.9397C1.48438 16.7783 0.208472 22.5584 0.978515 28.25C1.74856 33.9416 4.51452 39.1748 8.78346 43.0172C13.0524 46.8595 18.547 49.0612 24.2879 49.2299C30.0289 49.3986 35.6433 47.5234 40.1305 43.9384C44.6177 40.3534 47.6862 35.2916 48.7892 29.6551C49.8921 24.0185 48.9579 18.1734 46.1529 13.1615C43.3479 8.14962 38.8545 4.2965 33.4733 2.28884C28.0922 0.281191 22.173 0.249453 16.7707 2.19928L16.5128 1.48474Z" stroke="#704FE6" mask="url(#path-2-inside-1_64_6425)"/>
<circle cx="4.8383" cy="11.2902" r="2.41935" fill="#704FE6"/>
<path d="M15.468 29.596L20.238 24.61C20.574 24.25 20.844 23.932 21.048 23.656C21.264 23.368 21.42 23.098 21.516 22.846C21.612 22.582 21.66 22.318 21.66 22.054C21.66 21.526 21.486 21.112 21.138 20.812C20.802 20.512 20.364 20.362 19.824 20.362C19.272 20.362 18.78 20.506 18.348 20.794C17.928 21.082 17.532 21.538 17.16 22.162L15.486 20.74C15.99 19.888 16.614 19.246 17.358 18.814C18.114 18.37 18.978 18.148 19.95 18.148C20.778 18.148 21.498 18.31 22.11 18.634C22.734 18.958 23.214 19.408 23.55 19.984C23.886 20.56 24.054 21.232 24.054 22C24.054 22.516 23.988 22.984 23.856 23.404C23.736 23.824 23.526 24.244 23.226 24.664C22.938 25.072 22.536 25.534 22.02 26.05L18.546 29.596H15.468ZM15.468 31V29.596L17.556 28.876H24.324V31H15.468ZM29.4312 31.18C28.5792 31.18 27.7992 31.03 27.0912 30.73C26.3832 30.418 25.7892 29.974 25.3092 29.398L26.9292 27.796C27.1692 28.156 27.5112 28.444 27.9552 28.66C28.3992 28.876 28.8792 28.984 29.3952 28.984C29.8752 28.984 30.2892 28.9 30.6372 28.732C30.9852 28.552 31.2552 28.306 31.4472 27.994C31.6512 27.67 31.7532 27.298 31.7532 26.878C31.7532 26.434 31.6512 26.056 31.4472 25.744C31.2552 25.432 30.9732 25.192 30.6012 25.024C30.2292 24.856 29.7852 24.772 29.2692 24.772C29.0412 24.772 28.8072 24.79 28.5672 24.826C28.3272 24.85 28.1232 24.892 27.9552 24.952L29.0352 23.584C29.3352 23.488 29.6292 23.41 29.9172 23.35C30.2172 23.278 30.4932 23.242 30.7452 23.242C31.3932 23.242 31.9752 23.398 32.4912 23.71C33.0192 24.01 33.4332 24.442 33.7332 25.006C34.0452 25.558 34.2012 26.212 34.2012 26.968C34.2012 27.808 34.0032 28.546 33.6072 29.182C33.2112 29.806 32.6532 30.298 31.9332 30.658C31.2252 31.006 30.3912 31.18 29.4312 31.18ZM27.9552 24.952V23.548L31.1952 19.786L34.0032 19.75L30.6552 23.584L27.9552 24.952ZM26.0112 20.47V18.346H34.0032V19.75L32.0052 20.47H26.0112Z" fill="#704FE6"/>
</svg>
