<svg width="40" height="41" viewBox="0 0 40 41" fill="none" xmlns="http://www.w3.org/2000/svg">
<path d="M14.1409 34.8656C14.1409 38.0965 16.7694 40.725 20.0003 40.725C23.2311 40.725 25.8596 38.0965 25.8596 34.8656V30.0219C25.8596 27.3623 26.9773 24.7644 28.9261 22.894C30.4121 21.4678 31.5465 19.6911 32.2066 17.7563C32.9098 15.695 33.0738 13.5361 32.6938 11.3397C32.1946 8.4538 30.6828 5.79419 28.4368 3.85084C26.1072 1.83513 23.1111 0.725054 20.0003 0.724976C16.9008 0.724976 13.9108 1.83076 11.581 3.83865C9.32504 5.78287 7.80707 8.44677 7.30668 11.3397C6.92676 13.5361 7.09066 15.6951 7.79386 17.7563C8.45394 19.6911 9.58832 21.4677 11.0744 22.894C13.0232 24.7643 14.1409 27.3617 14.1409 30.0201V34.8656ZM12.6974 21.203C10.1257 18.735 9.00269 15.2854 9.61613 11.7391C10.4852 6.71521 14.8523 3.0688 20.0003 3.06873C25.1482 3.06873 29.5153 6.71521 30.3844 11.7391C30.9978 15.2855 29.8748 18.735 27.3032 21.203C25.1829 23.2379 23.8593 25.9747 23.5741 28.8497L16.4266 28.8484C16.1413 25.9743 14.8176 23.2379 12.6974 21.203ZM23.5159 31.1935V34.8656C23.5159 36.8041 21.9388 38.3812 20.0003 38.3812C18.0618 38.3812 16.4846 36.8041 16.4846 34.8656V31.1922L23.5159 31.1935Z" fill="#075E54"/>
<path d="M18.8281 11.2719C18.8281 10.6257 19.3538 10.1 20 10.1C20.6462 10.1 21.1719 10.6257 21.1719 11.2719C21.1719 11.6485 20.9975 11.9929 20.6934 12.2168C19.5254 13.0767 18.8281 14.4551 18.8281 15.904V17.1312H21.1719V15.904C21.1719 15.1971 21.5125 14.5242 22.083 14.1041C22.9801 13.4436 23.5156 12.3848 23.5156 11.2719C23.5156 9.33333 21.9385 7.75623 20 7.75623C18.0615 7.75623 16.4844 9.33333 16.4844 11.2719V12.4437H18.8281V11.2719Z" fill="#075E54"/>
<path d="M1.2334 5.88202L2.89043 4.22499L6.34031 7.67487L4.68328 9.3319L1.2334 5.88202Z" fill="#075E54"/>
<path d="M0 12.4437H4.77016V14.7875H0V12.4437Z" fill="#075E54"/>
<path d="M1.25879 21.3206L4.70619 17.8732L6.36322 19.5302L2.91582 22.9776L1.25879 21.3206Z" fill="#075E54"/>
<path d="M33.6533 7.67792L37.1031 4.22809L38.7602 5.88512L35.3104 9.33495L33.6533 7.67792Z" fill="#075E54"/>
<path d="M35.2295 12.4437H39.9997V14.7875H35.2295V12.4437Z" fill="#075E54"/>
<path d="M33.6289 19.5345L35.2859 17.8775L38.7333 21.3249L37.0763 22.9819L33.6289 19.5345Z" fill="#075E54"/>
<path d="M18.8281 19.475H21.1719V21.8187H18.8281V19.475Z" fill="#075E54"/>
</svg>
