<svg width="28" height="28" viewBox="0 0 28 28" fill="none" xmlns="http://www.w3.org/2000/svg">
<path d="M25.8322 0H15.3374C14.142 0 13.1696 0.972508 13.1696 2.16781V6.57519H8.7622C7.56684 6.57519 6.59438 7.5477 6.59438 8.743V13.1695H2.20746C0.990281 13.1696 0 14.1598 0 15.377V25.7925C0 27.0097 0.990281 28 2.20746 28H12.623C13.8401 28 14.8304 27.0097 14.8304 25.7925V21.4057H19.2569C20.4523 21.4057 21.4248 20.4332 21.4248 19.2379V14.8305H25.8321C27.0275 14.8305 27.9999 13.858 27.9999 12.6627V2.16781C28 0.972508 27.0275 0 25.8322 0ZM13.1887 25.7925C13.1887 26.1045 12.935 26.3583 12.623 26.3583H2.20746C1.89552 26.3583 1.64172 26.1045 1.64172 25.7925V15.377C1.64172 15.065 1.89552 14.8113 2.20746 14.8113H12.623C12.9349 14.8113 13.1887 15.065 13.1887 15.377C13.1887 15.8348 13.1887 25.3358 13.1887 25.7925ZM19.783 19.2378C19.783 19.5279 19.5471 19.7639 19.2569 19.7639H14.8304V15.377C14.8304 14.1598 13.8401 13.1696 12.623 13.1696H8.2361V8.74305C8.2361 8.45299 8.47208 8.21696 8.7622 8.21696H19.2569C19.547 8.21696 19.783 8.45294 19.783 8.74305V19.2378ZM26.3582 12.6626C26.3582 12.9527 26.1222 13.1887 25.8321 13.1887H21.4248V8.74305C21.4248 7.5477 20.4523 6.57524 19.2569 6.57524H14.8113V2.16781C14.8113 1.87775 15.0473 1.64172 15.3374 1.64172H25.8322C26.1222 1.64172 26.3583 1.8777 26.3583 2.16781V12.6626H26.3582Z" fill="#075E54"/>
<path d="M10.446 17.5573L6.13239 21.8709L4.38468 20.1233C4.06416 19.8028 3.54436 19.8028 3.22383 20.1233C2.90325 20.4438 2.90325 20.9636 3.22383 21.2841L5.55199 23.6122C5.87257 23.9328 6.39232 23.9328 6.71284 23.6122L11.6069 18.7181C11.9275 18.3976 11.9275 17.8778 11.6069 17.5573C11.2864 17.2368 10.7666 17.2368 10.446 17.5573Z" fill="#075E54"/>
</svg>
