<svg width="48" height="48" viewBox="0 0 48 48" fill="none" xmlns="http://www.w3.org/2000/svg">
<rect width="48" height="48" rx="24" fill="#F3F3FA"/>
<path d="M27.4371 32.7432H20.5621C19.6583 32.7432 18.5971 32.1307 18.1458 31.3482L14.7083 25.3957C14.2496 24.6007 14.2496 23.4007 14.7083 22.6051L18.1464 16.6526C18.5977 15.8701 19.6589 15.2576 20.5627 15.2576H27.4371C28.3408 15.2576 29.4021 15.8701 29.8533 16.6526L33.2908 22.6051C33.7496 23.4001 33.7496 24.6001 33.2908 25.3957L29.8527 31.3482C29.4021 32.1307 28.3402 32.7432 27.4371 32.7432ZM20.5621 16.5069C20.0964 16.5069 19.4608 16.8738 19.2283 17.2769L15.7902 23.2294C15.5577 23.6326 15.5577 24.3669 15.7902 24.7701L19.2277 30.7226C19.4608 31.1263 20.0964 31.4926 20.5614 31.4926H27.4371C27.9027 31.4926 28.5383 31.1257 28.7708 30.7226L32.2089 24.7701C32.4414 24.3669 32.4414 23.6326 32.2089 23.2294L28.7714 17.2769C28.5383 16.8732 27.9027 16.5069 27.4377 16.5069H20.5621ZM23.9996 27.6976C21.9602 27.6976 20.3014 26.0388 20.3014 24.0001C20.3014 21.9613 21.9602 20.3026 23.9996 20.3026C26.0389 20.3026 27.6977 21.9613 27.6977 24.0001C27.6977 26.0388 26.0389 27.6976 23.9996 27.6976ZM23.9996 21.5526C22.6496 21.5526 21.5514 22.6507 21.5514 24.0001C21.5514 25.3494 22.6496 26.4476 23.9996 26.4476C25.3496 26.4476 26.4477 25.3494 26.4477 24.0001C26.4477 22.6507 25.3496 21.5526 23.9996 21.5526Z" fill="#704FE6"/>
</svg>
