<svg width="28" height="28" viewBox="0 0 28 28" fill="none" xmlns="http://www.w3.org/2000/svg">
<path d="M7.60293 10.9681C7.16805 10.9681 6.81543 11.3208 6.81543 11.7556C6.81543 12.1905 7.16805 12.5431 7.60293 12.5431H16.0467C16.4816 12.5431 16.8342 12.1905 16.8342 11.7556C16.8342 11.3208 16.4816 10.9681 16.0467 10.9681H7.60293Z" fill="#075E54"/>
<path d="M11.3996 15.4385H7.60293C7.16805 15.4385 6.81543 15.7911 6.81543 16.226C6.81543 16.6609 7.16805 17.0135 7.60293 17.0135H11.3996C11.8344 17.0135 12.1871 16.6609 12.1871 16.226C12.1871 15.7911 11.8344 15.4385 11.3996 15.4385Z" fill="#075E54"/>
<path d="M11.2828 25.4625H5.28908C4.0002 25.4625 2.95283 24.4108 2.95283 23.1175V7.16627C2.95283 5.87302 4.0002 4.82127 5.28908 4.82127H6.9157V5.01902C6.9157 6.1679 7.8502 7.10152 8.99908 7.10152H16.5241C17.673 7.10152 18.6075 6.1679 18.6075 5.01902V4.82127H20.2262C21.5361 4.82127 22.5616 5.85115 22.5616 7.16627V11.655C22.5616 12.0899 22.9142 12.4425 23.3491 12.4425C23.784 12.4425 24.1366 12.0899 24.1366 11.655V7.16627C24.1366 5.00502 22.3822 3.24627 20.2253 3.24627H18.6066V3.04502C18.6066 1.89615 17.6721 0.962524 16.5232 0.962524H8.9982C7.84933 0.962524 6.91483 1.89615 6.91483 3.04502V3.24627H5.28908C3.1322 3.24627 1.37695 5.00502 1.37695 7.16627V23.1175C1.37695 25.2788 3.1322 27.0375 5.28908 27.0375H11.2828C11.7177 27.0375 12.0703 26.6849 12.0703 26.25C12.0703 25.8151 11.7177 25.4625 11.2828 25.4625ZM8.49158 3.04502C8.49158 2.76502 8.71908 2.53752 8.99908 2.53752H16.5241C16.8041 2.53752 17.0316 2.76502 17.0316 3.04502V5.01815C17.0316 5.29815 16.8041 5.52565 16.5241 5.52565H8.99908C8.71908 5.52565 8.49158 5.29815 8.49158 5.01815V3.04502Z" fill="#075E54"/>
<path d="M25.7855 15.1883C24.7075 14.1094 22.8254 14.1085 21.7465 15.1883L14.7649 22.1699C14.54 22.3948 14.393 22.68 14.3396 22.9941L13.9564 25.2595C13.875 25.7451 14.0351 26.2439 14.3834 26.5913C14.6712 26.8791 15.0606 27.0366 15.4605 27.0366C15.5454 27.0366 15.6294 27.0296 15.7134 27.0156L17.9779 26.6333C18.292 26.5799 18.5772 26.4329 18.8021 26.208L25.7837 19.2264C26.8976 18.1134 26.8976 16.3021 25.7855 15.1883ZM17.7162 25.081L15.5104 25.5211L15.8796 23.2838L20.8837 18.2796L22.6959 20.0918L17.7162 25.081ZM24.6707 18.1125L23.808 18.977L21.9967 17.1658L22.8604 16.3021C23.1019 16.0606 23.4239 15.9268 23.7651 15.9268C24.1081 15.9268 24.4292 16.0598 24.6707 16.3021C25.1704 16.8018 25.1704 17.6129 24.6707 18.1125Z" fill="#075E54"/>
</svg>
