<svg width="81" height="72" viewBox="0 0 81 72" fill="none" xmlns="http://www.w3.org/2000/svg">
<path fill-rule="evenodd" clip-rule="evenodd" d="M80.4202 54.4951C79.8778 53.9527 73.5194 52.1148 70.0841 51.4519C63.6353 50.2163 56.7646 52.5967 43.6863 60.522C35.8212 65.2833 32.5064 66.9105 28.5588 67.905C11.7739 72.1841 2.22119 64.8918 6.65096 51.1204L7.10298 49.7041L8.6097 51.1803C17.1378 59.4673 32.6269 56.0926 38.2319 44.6716C45.2533 30.418 22.4113 26.1992 8.66988 39.1871L7.70567 40.1213C7.85634 38.4639 6.98235 35.119 10.3273 25.3855C13.6121 15.8329 13.5217 16.1644 13.5518 11.6743C13.5819 6.28026 11.8944 3.11623 8.15768 1.54924C2.07052 -0.982061 0.352823 3.11623 4.9634 3.20663C10.9 3.32717 11.6533 10.2276 6.77147 22.4019C3.03479 31.7135 2.19103 36.8966 3.60735 41.8387L4.33054 44.4305L3.45668 45.7561C-7.45201 62.1192 8.97123 76.3429 31.5722 70.1955C37.569 68.5682 38.7442 67.9957 49.894 61.2154C62.1286 53.8023 66.2871 52.6874 74.1522 54.8571C79.6066 56.3939 82.2584 56.2429 80.4202 54.4951ZM9.78492 45.3041C13.3107 38.7348 25.5754 32.2559 30.9394 34.1544C39.9195 37.3185 31.0599 53.4407 20.3622 53.4106C14.7572 53.3805 8.15765 48.3176 9.78492 45.3041Z" fill="#25D366" fill-opacity="0.22"/>
</svg>
