<svg width="28" height="28" viewBox="0 0 28 28" fill="none" xmlns="http://www.w3.org/2000/svg">
<g clip-path="url(#clip0_64_367)">
<path d="M10.7187 12.5781V15.8593C10.7187 16.0043 10.7764 16.1435 10.8789 16.246L11.9727 17.3398C12.0753 17.4423 12.2143 17.4999 12.3594 17.4999H15.6406C15.7856 17.4999 15.9247 17.4423 16.0273 17.3398L17.121 16.246C17.2236 16.1435 17.2812 16.0043 17.2812 15.8593V12.5781C17.2812 11.7409 17.337 11.5609 18.7865 9.65958C19.5905 8.60499 20.0156 7.34488 20.0156 6.0156C20.0156 2.6986 17.317 0 14 0C10.683 0 7.98438 2.6986 7.98438 6.0156C7.98438 7.34488 8.40935 8.60499 9.21342 9.65958C10.663 11.5608 10.7187 11.7409 10.7187 12.5781ZM16.1875 13.1249V14.2187H11.8125V13.1249H16.1875ZM15.414 16.4062H12.5859L11.8124 15.6328V15.3124H16.1874V15.6328L15.414 16.4062ZM14 1.09375C16.7139 1.09375 18.9218 3.30169 18.9218 6.0156C18.9218 7.10322 18.5743 8.13402 17.9168 8.99644C16.6901 10.6054 16.306 11.1771 16.2128 12.0312H14.5468V7.33592L15.4804 6.40235C15.694 6.1888 15.694 5.84252 15.4804 5.62891C15.2668 5.41535 14.9206 5.41535 14.707 5.62891L13.9999 6.33596L13.2929 5.62891C13.0793 5.41535 12.7331 5.41535 12.5194 5.62891C12.3059 5.84246 12.3059 6.18874 12.5194 6.40235L13.453 7.33592V12.0312H11.787C11.6939 11.177 11.3098 10.6053 10.0831 8.99644C9.4256 8.13402 9.07801 7.10322 9.07801 6.0156C9.07812 3.30169 11.2861 1.09375 14 1.09375Z" fill="#075E54"/>
<path d="M4.97656 6.5625H6.07031C6.3723 6.5625 6.61719 6.31766 6.61719 6.01562C6.61719 5.71359 6.3723 5.46875 6.07031 5.46875H4.97656C4.67458 5.46875 4.42969 5.71359 4.42969 6.01562C4.42969 6.31766 4.67458 6.5625 4.97656 6.5625Z" fill="#075E54"/>
<path d="M5.91218 1.97746L6.85937 2.52434C6.94545 2.57405 7.03951 2.59773 7.13226 2.59773C7.32126 2.59773 7.50506 2.49962 7.6064 2.32424C7.75745 2.06266 7.66781 1.7282 7.40624 1.57715L6.45906 1.03027C6.19754 0.879227 5.86307 0.968915 5.71202 1.23043C5.56103 1.49195 5.65061 1.82641 5.91218 1.97746Z" fill="#075E54"/>
<path d="M6.85939 9.50683L5.91221 10.0537C5.65064 10.2047 5.561 10.5392 5.71205 10.8007C5.81338 10.9762 5.99713 11.0742 6.18619 11.0742C6.27894 11.0742 6.373 11.0506 6.45908 11.0009L7.40627 10.454C7.66784 10.303 7.75747 9.96855 7.60642 9.70693C7.45538 9.44541 7.12096 9.35583 6.85939 9.50683Z" fill="#075E54"/>
<path d="M21.3828 6.01562C21.3828 6.31766 21.6277 6.5625 21.9297 6.5625H23.0235C23.3255 6.5625 23.5704 6.31766 23.5704 6.01562C23.5704 5.71359 23.3255 5.46875 23.0235 5.46875H21.9297C21.6277 5.46875 21.3828 5.71359 21.3828 6.01562Z" fill="#075E54"/>
<path d="M20.8678 2.5977C20.9606 2.5977 21.0546 2.57402 21.1407 2.52431L22.0879 1.97744C22.3495 1.82639 22.4391 1.49198 22.2881 1.23041C22.137 0.968891 21.8027 0.879258 21.541 1.03025L20.5938 1.57713C20.3323 1.72817 20.2426 2.06259 20.3937 2.32421C20.495 2.49959 20.6788 2.5977 20.8678 2.5977Z" fill="#075E54"/>
<path d="M20.5938 10.454L21.541 11.0009C21.6271 11.0506 21.7212 11.0742 21.8139 11.0742C22.0029 11.0742 22.1867 10.9762 22.2881 10.8007C22.4391 10.5392 22.3495 10.2048 22.0879 10.0537L21.1407 9.50684C20.8792 9.35579 20.5448 9.44548 20.3937 9.70699C20.2426 9.96856 20.3323 10.303 20.5938 10.454Z" fill="#075E54"/>
<path d="M27.4531 23.0782V21.3964C27.4531 21.0944 27.2082 20.8495 26.9062 20.8495C24.7057 20.8495 23.3316 20.2177 22.1193 19.6603C21.7652 19.4974 21.4306 19.3436 21.0958 19.2155C19.4874 18.6004 18.0242 18.54 16.7468 19.0361C15.7052 19.4405 14.7839 20.218 13.9999 21.3523C13.2159 20.218 12.2947 19.4405 11.2531 19.0361C9.97578 18.54 8.51246 18.6004 6.90411 19.2155C6.56926 19.3436 6.23479 19.4974 5.88063 19.6603C4.66833 20.2177 3.29425 20.8495 1.09369 20.8495C0.791708 20.8495 0.546818 21.0944 0.546818 21.3964V23.0781C0.244835 23.0781 0 23.3229 0 23.625V26.0859C0 26.3879 0.24489 26.6328 0.546873 26.6328H11.7956C12.206 27.4545 13.0612 28 13.9999 28C14.9387 28 15.7939 27.4545 16.2043 26.6328H27.453C27.755 26.6328 27.9999 26.3879 27.9999 26.0859V23.625C27.9999 23.323 27.7551 23.0782 27.4531 23.0782ZM20.705 20.2371C21.0064 20.3524 21.325 20.4989 21.6623 20.654C22.8156 21.1843 24.2293 21.8343 26.3593 21.9311V23.0782H15.8671C15.3648 23.0782 14.924 23.1747 14.5468 23.3662V22.53C16.0404 19.974 18.0562 19.2241 20.705 20.2371ZM6.3376 20.654C6.67497 20.4989 6.99357 20.3523 7.29485 20.2371C9.94373 19.2241 11.9595 19.974 13.4531 22.53V23.3662C13.0759 23.1746 12.6351 23.0782 12.1328 23.0782H1.64056V21.931C3.77063 21.8343 5.18441 21.1843 6.3376 20.654ZM26.9061 25.5391H15.8346C15.5927 25.5391 15.3795 25.6981 15.3105 25.9299C15.1393 26.5048 14.6005 26.9063 13.9999 26.9063C13.3994 26.9063 12.8606 26.5048 12.6894 25.9299C12.6204 25.698 12.4072 25.5391 12.1653 25.5391H1.09375V24.1719H12.1328C12.7941 24.1719 13.2368 24.4054 13.5263 24.9068C13.624 25.076 13.8045 25.1802 13.9999 25.1802C14.1952 25.1802 14.3758 25.076 14.4735 24.9068C14.7629 24.4055 15.2057 24.1719 15.867 24.1719H26.906V25.5391H26.9061Z" fill="#075E54"/>
</g>
<defs>
<clipPath id="clip0_64_367">
<rect width="28" height="28" fill="white"/>
</clipPath>
</defs>
</svg>
