<svg width="40" height="35" viewBox="0 0 40 35" fill="none" xmlns="http://www.w3.org/2000/svg">
<path d="M36.8 5.72498C35.0352 5.72498 33.6 7.16021 33.6 8.92498C33.6 10.1106 34.256 11.1378 35.2176 11.6914C33.376 16.0738 30.5455 18.7714 27.7791 18.5202C24.7776 18.2754 22.3312 14.725 20.9791 8.78904C22.7103 8.3506 23.9999 6.7906 23.9999 4.92506C23.9999 2.71865 22.2047 0.925056 19.9999 0.925056C17.7952 0.925056 15.9999 2.71865 15.9999 4.92506C15.9999 6.79068 17.2895 8.35068 19.0207 8.78904C17.6687 14.7251 15.2223 18.2754 12.2207 18.5202C9.46711 18.741 6.62547 16.0706 4.78227 11.6898C5.74383 11.1378 6.39984 10.1106 6.39984 8.92506C6.39984 7.16029 4.96461 5.72506 3.19984 5.72506C1.43523 5.72498 0 7.16021 0 8.92498C0 10.565 1.24641 11.9074 2.84156 12.0897L6.26719 29.9138C5.40641 30.2786 4.8 31.1314 4.8 32.125C4.8 33.4482 5.8768 34.525 7.2 34.525H32.8C34.1232 34.525 35.2 33.4482 35.2 32.125C35.2 31.1314 34.5936 30.2786 33.7328 29.9138L37.1584 12.0898C38.7536 11.9074 40 10.565 40 8.92498C40 7.16021 38.5648 5.72498 36.8 5.72498ZM3.2 10.525C2.31844 10.525 1.6 9.80818 1.6 8.92498C1.6 8.04178 2.31844 7.32498 3.2 7.32498C4.08156 7.32498 4.8 8.04178 4.8 8.92498C4.8 9.80818 4.08164 10.525 3.2 10.525ZM17.6 4.92498C17.6 3.60178 18.6768 2.52498 20 2.52498C21.3232 2.52498 22.4 3.60178 22.4 4.92498C22.4 6.24818 21.3232 7.32498 20 7.32498C18.6768 7.32498 17.6 6.24818 17.6 4.92498ZM32.8 32.925H7.2C6.75844 32.925 6.4 32.565 6.4 32.125C6.4 31.685 6.75844 31.325 7.2 31.325H32.8C33.2416 31.325 33.6 31.685 33.6 32.125C33.6 32.565 33.2416 32.925 32.8 32.925ZM32.1392 29.725H7.86078L5.18242 15.7874C7.20484 18.7186 9.75039 20.3378 12.3504 20.1154C15.6544 19.845 18.3632 16.7169 20 11.3986C21.6368 16.717 24.3456 19.845 27.6496 20.1154C27.8032 20.1282 27.9568 20.1346 28.1104 20.1346C30.5472 20.1329 32.9152 18.5378 34.8192 15.7794L32.1392 29.725ZM36.8 10.525C35.9184 10.525 35.2 9.80818 35.2 8.92498C35.2 8.04178 35.9184 7.32498 36.8 7.32498C37.6816 7.32498 38.4 8.04178 38.4 8.92498C38.4 9.80818 37.6816 10.525 36.8 10.525Z" fill="#075E54"/>
</svg>
