<svg width="32" height="32" viewBox="0 0 32 32" fill="none" xmlns="http://www.w3.org/2000/svg">
<path d="M27.3125 16.7595H24.1801C23.7538 16.7595 23.3411 16.8177 22.9482 16.9249C22.1734 15.4016 20.5914 14.355 18.7684 14.355H13.2316C11.4086 14.355 9.82662 15.4016 9.05175 16.9249C8.65894 16.8177 8.24619 16.7595 7.81987 16.7595H4.6875C2.10281 16.7595 0 18.8623 0 21.447V26.4544C0 28.0052 1.26169 29.2669 2.8125 29.2669H29.1875C30.7383 29.2669 32 28.0052 32 26.4544V21.447C32 18.8623 29.8972 16.7595 27.3125 16.7595ZM8.54406 19.0426V27.3919H2.8125C2.29556 27.3919 1.875 26.9714 1.875 26.4544V21.447C1.875 19.8962 3.13669 18.6345 4.6875 18.6345H7.81987C8.07438 18.6345 8.32081 18.6691 8.55544 18.7328C8.54869 18.8354 8.54406 18.9385 8.54406 19.0426ZM21.5809 27.3919H10.4191V19.0425C10.4191 17.4917 11.6807 16.23 13.2316 16.23H18.7684C20.3193 16.23 21.5809 17.4917 21.5809 19.0425V27.3919ZM30.125 26.4544C30.125 26.9714 29.7044 27.3919 29.1875 27.3919H23.4559V19.0425C23.4559 18.9384 23.4513 18.8352 23.4446 18.7327C23.6792 18.6691 23.9256 18.6345 24.1801 18.6345H27.3125C28.8633 18.6345 30.125 19.8962 30.125 21.447V26.4544Z" fill="#704FE6"/>
<path d="M6.25327 7.90649C3.95645 7.90649 2.08789 9.77506 2.08789 12.0719C2.08783 14.3687 3.95645 16.2372 6.25327 16.2372C8.55002 16.2372 10.4186 14.3687 10.4186 12.0719C10.4186 9.77506 8.55008 7.90649 6.25327 7.90649ZM6.2532 14.3622C4.99027 14.3622 3.96283 13.3348 3.96283 12.0719C3.96283 10.8089 4.99027 9.78149 6.2532 9.78149C7.51614 9.78149 8.54358 10.8089 8.54358 12.0719C8.54358 13.3348 7.51614 14.3622 6.2532 14.3622Z" fill="#704FE6"/>
<path d="M16.0004 2.73303C12.9319 2.73303 10.4355 5.22941 10.4355 8.29791C10.4355 11.3664 12.9319 13.8628 16.0004 13.8628C19.0689 13.8628 21.5653 11.3664 21.5653 8.29791C21.5653 5.22947 19.0689 2.73303 16.0004 2.73303ZM16.0004 11.9878C13.9658 11.9878 12.3105 10.3325 12.3105 8.29791C12.3105 6.26334 13.9658 4.60803 16.0004 4.60803C18.035 4.60803 19.6903 6.26328 19.6903 8.29791C19.6903 10.3325 18.035 11.9878 16.0004 11.9878Z" fill="#704FE6"/>
<path d="M25.7464 7.90649C23.4497 7.90649 21.5811 9.77506 21.5811 12.0719C21.5811 14.3687 23.4497 16.2372 25.7464 16.2372C28.0432 16.2372 29.9118 14.3687 29.9118 12.0719C29.9118 9.77506 28.0432 7.90649 25.7464 7.90649ZM25.7464 14.3622C24.4836 14.3622 23.4561 13.3348 23.4561 12.0719C23.4561 10.8089 24.4836 9.78149 25.7464 9.78149C27.0094 9.78149 28.0368 10.8089 28.0368 12.0719C28.0368 13.3348 27.0094 14.3622 25.7464 14.3622Z" fill="#704FE6"/>
</svg>
