<svg width="28" height="28" viewBox="0 0 28 28" fill="none" xmlns="http://www.w3.org/2000/svg">
<g clip-path="url(#clip0_64_380)">
<path fill-rule="evenodd" clip-rule="evenodd" d="M11.4559 0.230803C12.2817 0.0791072 13.1321 0 14 0C21.732 0 28 6.26801 28 14C28 21.732 21.732 28 14 28C13.1321 28 12.2817 27.9209 11.4559 27.7692C10.8222 27.6528 10.4028 27.0447 10.5192 26.411C10.6356 25.7773 11.2437 25.3578 11.8775 25.4743C12.5649 25.6005 13.2742 25.6667 14 25.6667C20.4433 25.6667 25.6667 20.4433 25.6667 14C25.6667 7.55667 20.4433 2.33333 14 2.33333C13.2742 2.33333 12.5649 2.39947 11.8775 2.52574C11.2437 2.64215 10.6356 2.22278 10.5192 1.58905C10.4028 0.955316 10.8222 0.347209 11.4559 0.230803ZM8.59321 2.29936C8.91584 2.8571 8.72526 3.57078 8.16752 3.89341C6.57595 4.81407 5.22139 6.1004 4.21937 7.6372C3.86745 8.17694 3.14462 8.32921 2.60489 7.97728C2.06514 7.62537 1.91289 6.90254 2.2648 6.3628C3.46626 4.52011 5.08984 2.97814 6.99915 1.87367C7.55688 1.55102 8.27057 1.74162 8.59321 2.29936ZM20.6347 9.65212C21.103 10.0947 21.1238 10.8331 20.6813 11.3014L13.176 19.2421C12.4308 20.0304 11.1941 20.0304 10.449 19.2421L7.31879 15.9302C6.87619 15.4619 6.89702 14.7236 7.36528 14.2809C7.83356 13.8384 8.57195 13.8592 9.01454 14.3275L11.8125 17.2878L18.9854 9.69862C19.428 9.23035 20.1664 9.20953 20.6347 9.65212ZM1.76365 9.94695C2.39126 10.0928 2.7818 10.7198 2.63594 11.3474C2.43816 12.1984 2.33333 13.0863 2.33333 14C2.33333 14.9137 2.43816 15.8016 2.63594 16.6525C2.7818 17.2802 2.39126 17.9072 1.76365 18.053C1.13605 18.1989 0.509033 17.8083 0.363175 17.1808C0.125431 16.1577 0 15.0928 0 14C0 12.9072 0.125431 11.8422 0.363175 10.8192C0.509033 10.1916 1.13605 9.8011 1.76365 9.94695ZM2.60489 20.0227C3.14462 19.6708 3.86745 19.8231 4.21937 20.3628C5.22139 21.8996 6.57595 23.1859 8.16752 24.1066C8.72526 24.4292 8.91584 25.143 8.59321 25.7006C8.27057 26.2584 7.55688 26.4489 6.99915 26.1263C5.08984 25.0218 3.46626 23.4799 2.2648 21.6372C1.91289 21.0974 2.06514 20.3747 2.60489 20.0227Z" fill="#075E54"/>
</g>
<defs>
<clipPath id="clip0_64_380">
<rect width="28" height="28" fill="white"/>
</clipPath>
</defs>
</svg>
